{"glyphs":{"0":{"ha":926,"x_min":67,"x_max":860,"o":"m 464 -11 q 259 48 349 -11 q 118 219 169 107 q 67 486 67 332 q 118 753 67 640 q 259 924 169 865 q 464 983 349 983 q 667 924 578 983 q 808 753 757 865 q 860 486 860 640 q 808 219 860 332 q 667 48 757 107 q 464 -11 578 -11 m 464 113 q 651 208 581 113 q 721 486 721 304 q 651 764 721 668 q 464 860 581 860 q 276 764 346 860 q 206 486 206 668 q 276 208 206 304 q 464 113 346 113 z "},"1":{"ha":514,"x_min":11,"x_max":368,"o":"m 368 972 l 368 0 l 231 0 l 231 851 l 11 851 l 11 972 l 368 972 z "},"2":{"ha":797,"x_min":19,"x_max":750,"o":"m 750 121 l 750 0 l 51 0 l 51 94 l 447 476 q 544 597 519 546 q 569 699 569 647 q 516 817 569 775 q 363 860 463 860 q 114 754 201 860 l 19 836 q 169 944 76 906 q 375 983 261 983 q 618 910 528 983 q 708 713 708 838 q 675 565 708 635 q 549 407 642 496 l 251 121 l 750 121 z "},"3":{"ha":794,"x_min":7,"x_max":732,"o":"m 439 564 q 657 476 582 550 q 732 286 732 401 q 690 135 732 203 q 566 28 649 68 q 364 -11 483 -11 q 164 20 260 -11 q 7 107 68 51 l 71 217 q 199 141 121 169 q 364 113 276 113 q 533 158 472 113 q 593 285 593 204 q 533 410 593 365 q 353 454 474 454 l 275 454 l 275 551 l 519 851 l 51 851 l 51 972 l 693 972 l 693 878 l 439 564 z "},"4":{"ha":929,"x_min":53,"x_max":913,"o":"m 913 239 l 728 239 l 728 0 l 593 0 l 593 239 l 53 239 l 53 336 l 550 972 l 700 972 l 224 358 l 597 358 l 597 569 l 728 569 l 728 358 l 913 358 l 913 239 z "},"5":{"ha":797,"x_min":24,"x_max":749,"o":"m 344 585 q 651 506 553 585 q 749 292 749 428 q 708 137 749 206 q 584 28 667 68 q 381 -11 501 -11 q 182 20 278 -11 q 24 107 86 51 l 88 217 q 215 141 138 169 q 379 113 293 113 q 549 159 489 113 q 610 286 610 206 q 543 419 610 374 q 315 464 476 464 l 94 464 l 146 972 l 694 972 l 694 851 l 263 851 l 236 585 l 344 585 z "},"6":{"ha":857,"x_min":67,"x_max":819,"o":"m 486 590 q 658 554 582 590 q 776 451 733 518 q 819 296 819 383 q 774 135 819 204 q 651 27 729 65 q 475 -11 572 -11 q 173 115 279 -11 q 67 474 67 242 q 124 751 67 636 q 285 924 182 865 q 526 983 389 983 q 660 969 597 983 q 768 926 722 954 l 715 818 q 529 864 646 864 q 292 770 378 864 q 206 497 206 676 q 207 463 206 475 q 322 558 249 525 q 486 590 394 590 m 469 101 q 625 153 565 101 q 685 290 685 204 q 624 427 685 376 q 463 478 564 478 q 347 453 397 478 q 267 385 296 428 q 239 289 239 342 q 266 195 239 238 q 345 127 293 153 q 469 101 397 101 z "},"7":{"ha":831,"x_min":42,"x_max":775,"o":"m 775 972 l 775 878 l 382 0 l 235 0 l 619 851 l 175 851 l 175 678 l 42 678 l 42 972 l 775 972 z "},"8":{"ha":894,"x_min":61,"x_max":833,"o":"m 661 510 q 789 418 744 478 q 833 275 833 358 q 786 123 833 188 q 651 24 739 58 q 446 -11 564 -11 q 242 24 329 -11 q 108 123 156 58 q 61 275 61 188 q 105 418 61 358 q 232 510 149 478 q 131 594 165 542 q 96 719 96 647 q 140 860 96 800 q 263 951 183 919 q 446 983 342 983 q 631 951 551 983 q 755 860 711 919 q 799 719 799 800 q 763 595 799 649 q 661 510 728 542 m 446 871 q 290 828 347 871 q 233 714 233 786 q 290 600 233 642 q 446 558 346 558 q 605 600 547 558 q 663 714 663 642 q 603 828 663 786 q 446 871 544 871 m 446 101 q 628 149 561 101 q 694 279 694 197 q 628 406 694 360 q 446 453 561 453 q 265 406 331 453 q 200 279 200 360 q 265 149 200 197 q 446 101 331 101 z "},"9":{"ha":857,"x_min":39,"x_max":790,"o":"m 382 983 q 684 857 578 983 q 790 499 790 731 q 733 222 790 336 q 572 48 675 107 q 331 -11 468 -11 q 197 3 260 -11 q 89 46 135 18 l 142 154 q 329 108 213 108 q 566 202 481 108 q 651 475 651 296 l 651 510 q 536 415 610 447 q 371 382 463 382 q 199 418 275 382 q 81 522 124 454 q 39 676 39 589 q 84 838 39 768 q 207 945 129 907 q 382 983 285 983 m 394 494 q 511 519 460 494 q 591 588 563 544 q 619 683 619 631 q 592 777 619 735 q 513 845 565 819 q 388 871 461 871 q 233 819 292 871 q 174 682 174 768 q 233 545 174 596 q 394 494 293 494 z "},"\u0000":{"ha":0,"x_min":0,"x_max":0,"o":""},"\r":{"ha":374,"x_min":0,"x_max":0,"o":""}," ":{"ha":374,"x_min":0,"x_max":0,"o":""},"A":{"ha":1111,"x_min":138,"x_max":974,"o":"m 554 983 q 861 870 749 983 q 974 546 974 757 l 974 0 l 835 0 l 835 268 l 274 268 l 274 0 l 138 0 l 138 546 q 250 870 138 757 q 554 983 363 983 m 835 389 l 835 558 q 760 783 835 707 q 554 860 686 860 q 348 783 422 860 q 274 558 274 707 l 274 389 l 835 389 z "},"Á":{"ha":1111,"x_min":138,"x_max":974,"o":"m 554 983 q 861 870 749 983 q 974 546 974 757 l 974 0 l 835 0 l 835 268 l 274 268 l 274 0 l 138 0 l 138 546 q 250 870 138 757 q 554 983 363 983 m 835 389 l 835 558 q 760 783 835 707 q 554 860 686 860 q 348 783 422 860 q 274 558 274 707 l 274 389 l 835 389 m 639 1232 l 808 1232 l 575 1051 l 450 1051 l 639 1232 z "},"Ă":{"ha":1111,"x_min":138,"x_max":974,"o":"m 554 983 q 861 870 749 983 q 974 546 974 757 l 974 0 l 835 0 l 835 268 l 274 268 l 274 0 l 138 0 l 138 546 q 250 870 138 757 q 554 983 363 983 m 835 389 l 835 558 q 760 783 835 707 q 554 860 686 860 q 348 783 422 860 q 274 558 274 707 l 274 389 l 835 389 m 554 1043 q 395 1094 458 1043 q 329 1232 332 1146 l 419 1232 q 459 1151 421 1182 q 554 1121 497 1121 q 649 1151 611 1121 q 689 1232 688 1182 l 779 1232 q 713 1094 776 1146 q 554 1043 650 1043 z "},"Ắ":{"ha":1111,"x_min":138,"x_max":974,"o":"m 554 983 q 861 870 749 983 q 974 546 974 757 l 974 0 l 835 0 l 835 268 l 274 268 l 274 0 l 138 0 l 138 546 q 250 870 138 757 q 554 983 363 983 m 835 389 l 835 558 q 760 783 835 707 q 554 860 686 860 q 348 783 422 860 q 274 558 274 707 l 274 389 l 835 389 m 554 1043 q 399 1083 461 1043 q 329 1190 338 1122 l 418 1190 q 461 1137 424 1157 q 554 1117 499 1117 q 647 1137 610 1117 q 690 1190 685 1157 l 779 1190 q 709 1083 771 1122 q 554 1043 647 1043 m 622 1379 l 774 1379 l 568 1222 l 458 1222 l 622 1379 z "},"Ặ":{"ha":1111,"x_min":138,"x_max":974,"o":"m 554 983 q 861 870 749 983 q 974 546 974 757 l 974 0 l 835 0 l 835 268 l 274 268 l 274 0 l 138 0 l 138 546 q 250 870 138 757 q 554 983 363 983 m 835 389 l 835 558 q 760 783 835 707 q 554 860 686 860 q 348 783 422 860 q 274 558 274 707 l 274 389 l 835 389 m 554 -272 q 504 -253 525 -272 q 483 -203 483 -233 q 504 -151 483 -172 q 554 -131 525 -131 q 604 -151 583 -131 q 625 -203 625 -172 q 604 -253 625 -233 q 554 -272 583 -272 m 554 1043 q 395 1094 458 1043 q 329 1232 332 1146 l 419 1232 q 459 1151 421 1182 q 554 1121 497 1121 q 649 1151 611 1121 q 689 1232 688 1182 l 779 1232 q 713 1094 776 1146 q 554 1043 650 1043 z "},"Ằ":{"ha":1111,"x_min":138,"x_max":974,"o":"m 554 983 q 861 870 749 983 q 974 546 974 757 l 974 0 l 835 0 l 835 268 l 274 268 l 274 0 l 138 0 l 138 546 q 250 870 138 757 q 554 983 363 983 m 835 389 l 835 558 q 760 783 835 707 q 554 860 686 860 q 348 783 422 860 q 274 558 274 707 l 274 389 l 835 389 m 554 1043 q 399 1083 461 1043 q 329 1190 338 1122 l 418 1190 q 461 1137 424 1157 q 554 1117 499 1117 q 647 1137 610 1117 q 690 1190 685 1157 l 779 1190 q 709 1083 771 1122 q 554 1043 647 1043 m 336 1379 l 488 1379 l 650 1222 l 542 1222 l 336 1379 z "},"Ẳ":{"ha":1111,"x_min":138,"x_max":974,"o":"m 554 983 q 861 870 749 983 q 974 546 974 757 l 974 0 l 835 0 l 835 268 l 274 268 l 274 0 l 138 0 l 138 546 q 250 870 138 757 q 554 983 363 983 m 835 389 l 835 558 q 760 783 835 707 q 554 860 686 860 q 348 783 422 860 q 274 558 274 707 l 274 389 l 835 389 m 554 1043 q 399 1083 461 1043 q 329 1190 338 1122 l 418 1190 q 461 1137 424 1157 q 554 1117 499 1117 q 647 1137 610 1117 q 690 1190 685 1157 l 779 1190 q 709 1083 771 1122 q 554 1043 647 1043 m 540 1225 q 582 1256 568 1238 q 596 1292 596 1274 q 581 1323 596 1311 q 543 1335 567 1335 q 483 1318 513 1335 l 458 1369 q 554 1396 500 1396 q 633 1369 604 1396 q 663 1299 663 1342 q 639 1231 663 1261 q 576 1185 615 1201 l 540 1225 z "},"Ẵ":{"ha":1111,"x_min":138,"x_max":974,"o":"m 554 983 q 861 870 749 983 q 974 546 974 757 l 974 0 l 835 0 l 835 268 l 274 268 l 274 0 l 138 0 l 138 546 q 250 870 138 757 q 554 983 363 983 m 835 389 l 835 558 q 760 783 835 707 q 554 860 686 860 q 348 783 422 860 q 274 558 274 707 l 274 389 l 835 389 m 554 1043 q 399 1083 461 1043 q 329 1190 338 1122 l 418 1190 q 461 1137 424 1157 q 554 1117 499 1117 q 647 1137 610 1117 q 690 1190 685 1157 l 779 1190 q 709 1083 771 1122 q 554 1043 647 1043 m 651 1229 q 591 1240 617 1229 q 532 1274 565 1251 q 464 1304 489 1304 q 400 1235 403 1304 l 325 1235 q 362 1340 326 1301 q 458 1378 397 1378 q 516 1367 490 1378 q 575 1333 542 1356 q 614 1310 599 1318 q 646 1303 629 1303 q 692 1321 676 1303 q 710 1371 708 1339 l 783 1371 q 747 1267 782 1306 q 651 1229 711 1229 z "},"Ǎ":{"ha":1111,"x_min":138,"x_max":974,"o":"m 554 983 q 861 870 749 983 q 974 546 974 757 l 974 0 l 835 0 l 835 268 l 274 268 l 274 0 l 138 0 l 138 546 q 250 870 138 757 q 554 983 363 983 m 835 389 l 835 558 q 760 783 835 707 q 554 860 686 860 q 348 783 422 860 q 274 558 274 707 l 274 389 l 835 389 m 803 1232 l 618 1051 l 490 1051 l 306 1232 l 426 1232 l 554 1126 l 682 1232 l 803 1232 z "},"Â":{"ha":1111,"x_min":138,"x_max":974,"o":"m 554 983 q 861 870 749 983 q 974 546 974 757 l 974 0 l 835 0 l 835 268 l 274 268 l 274 0 l 138 0 l 138 546 q 250 870 138 757 q 554 983 363 983 m 835 389 l 835 558 q 760 783 835 707 q 554 860 686 860 q 348 783 422 860 q 274 558 274 707 l 274 389 l 835 389 m 682 1051 l 554 1158 l 426 1051 l 306 1051 l 490 1232 l 618 1232 l 803 1051 l 682 1051 z "},"Ấ":{"ha":1111,"x_min":138,"x_max":1007,"o":"m 554 983 q 861 870 749 983 q 974 546 974 757 l 974 0 l 835 0 l 835 268 l 274 268 l 274 0 l 138 0 l 138 546 q 250 870 138 757 q 554 983 363 983 m 835 389 l 835 558 q 760 783 835 707 q 554 860 686 860 q 348 783 422 860 q 274 558 274 707 l 274 389 l 835 389 m 681 1051 l 554 1129 l 428 1051 l 306 1051 l 492 1190 l 617 1190 l 803 1051 l 681 1051 m 856 1331 l 1007 1331 l 801 1174 l 692 1174 l 856 1331 z "},"Ậ":{"ha":1111,"x_min":138,"x_max":974,"o":"m 554 983 q 861 870 749 983 q 974 546 974 757 l 974 0 l 835 0 l 835 268 l 274 268 l 274 0 l 138 0 l 138 546 q 250 870 138 757 q 554 983 363 983 m 835 389 l 835 558 q 760 783 835 707 q 554 860 686 860 q 348 783 422 860 q 274 558 274 707 l 274 389 l 835 389 m 554 -272 q 504 -253 525 -272 q 483 -203 483 -233 q 504 -151 483 -172 q 554 -131 525 -131 q 604 -151 583 -131 q 625 -203 625 -172 q 604 -253 625 -233 q 554 -272 583 -272 m 682 1051 l 554 1158 l 426 1051 l 306 1051 l 490 1232 l 618 1232 l 803 1051 l 682 1051 z "},"Ầ":{"ha":1111,"x_min":138,"x_max":974,"o":"m 554 983 q 861 870 749 983 q 974 546 974 757 l 974 0 l 835 0 l 835 268 l 274 268 l 274 0 l 138 0 l 138 546 q 250 870 138 757 q 554 983 363 983 m 835 389 l 835 558 q 760 783 835 707 q 554 860 686 860 q 348 783 422 860 q 274 558 274 707 l 274 389 l 835 389 m 681 1051 l 554 1129 l 428 1051 l 306 1051 l 492 1190 l 617 1190 l 803 1051 l 681 1051 m 569 1331 l 721 1331 l 883 1174 l 775 1174 l 569 1331 z "},"Ẩ":{"ha":1111,"x_min":138,"x_max":974,"o":"m 554 983 q 861 870 749 983 q 974 546 974 757 l 974 0 l 835 0 l 835 268 l 274 268 l 274 0 l 138 0 l 138 546 q 250 870 138 757 q 554 983 363 983 m 835 389 l 835 558 q 760 783 835 707 q 554 860 686 860 q 348 783 422 860 q 274 558 274 707 l 274 389 l 835 389 m 681 1051 l 554 1129 l 428 1051 l 306 1051 l 492 1190 l 617 1190 l 803 1051 l 681 1051 m 721 1189 q 763 1219 749 1201 q 776 1256 776 1238 q 762 1287 776 1275 q 724 1299 747 1299 q 664 1282 693 1299 l 639 1333 q 735 1360 681 1360 q 814 1333 785 1360 q 843 1263 843 1306 q 819 1195 843 1225 q 757 1149 796 1165 l 721 1189 z "},"Ẫ":{"ha":1111,"x_min":138,"x_max":974,"o":"m 554 983 q 861 870 749 983 q 974 546 974 757 l 974 0 l 835 0 l 835 268 l 274 268 l 274 0 l 138 0 l 138 546 q 250 870 138 757 q 554 983 363 983 m 835 389 l 835 558 q 760 783 835 707 q 554 860 686 860 q 348 783 422 860 q 274 558 274 707 l 274 389 l 835 389 m 681 1051 l 554 1129 l 428 1051 l 306 1051 l 492 1190 l 617 1190 l 803 1051 l 681 1051 m 651 1238 q 591 1249 617 1238 q 532 1282 565 1260 q 464 1313 489 1313 q 400 1243 403 1313 l 325 1243 q 362 1348 326 1310 q 458 1386 397 1386 q 516 1375 490 1386 q 575 1342 542 1364 q 614 1319 599 1326 q 646 1311 629 1311 q 692 1329 676 1311 q 710 1379 708 1347 l 783 1379 q 747 1276 782 1314 q 651 1238 711 1238 z "},"Ȁ":{"ha":1111,"x_min":138,"x_max":974,"o":"m 554 983 q 861 870 749 983 q 974 546 974 757 l 974 0 l 835 0 l 835 268 l 274 268 l 274 0 l 138 0 l 138 546 q 250 870 138 757 q 554 983 363 983 m 835 389 l 835 558 q 760 783 835 707 q 554 860 686 860 q 348 783 422 860 q 274 558 274 707 l 274 389 l 835 389 m 225 1232 l 365 1232 l 489 1051 l 376 1051 l 225 1232 m 465 1232 l 607 1232 l 732 1051 l 619 1051 l 465 1232 z "},"Ä":{"ha":1111,"x_min":138,"x_max":974,"o":"m 554 983 q 861 870 749 983 q 974 546 974 757 l 974 0 l 835 0 l 835 268 l 274 268 l 274 0 l 138 0 l 138 546 q 250 870 138 757 q 554 983 363 983 m 835 389 l 835 558 q 760 783 835 707 q 554 860 686 860 q 348 783 422 860 q 274 558 274 707 l 274 389 l 835 389 m 425 1075 q 375 1095 396 1075 q 354 1146 354 1115 q 375 1197 354 1176 q 425 1218 396 1218 q 475 1197 454 1218 q 496 1146 496 1176 q 475 1095 496 1115 q 425 1075 454 1075 m 683 1075 q 633 1095 654 1075 q 613 1146 613 1115 q 633 1197 613 1176 q 683 1218 654 1218 q 733 1197 713 1218 q 754 1146 754 1176 q 733 1095 754 1115 q 683 1075 713 1075 z "},"Ạ":{"ha":1111,"x_min":138,"x_max":974,"o":"m 554 983 q 861 870 749 983 q 974 546 974 757 l 974 0 l 835 0 l 835 268 l 274 268 l 274 0 l 138 0 l 138 546 q 250 870 138 757 q 554 983 363 983 m 835 389 l 835 558 q 760 783 835 707 q 554 860 686 860 q 348 783 422 860 q 274 558 274 707 l 274 389 l 835 389 m 554 -272 q 504 -253 525 -272 q 483 -203 483 -233 q 504 -151 483 -172 q 554 -131 525 -131 q 604 -151 583 -131 q 625 -203 625 -172 q 604 -253 625 -233 q 554 -272 583 -272 z "},"À":{"ha":1111,"x_min":138,"x_max":974,"o":"m 554 983 q 861 870 749 983 q 974 546 974 757 l 974 0 l 835 0 l 835 268 l 274 268 l 274 0 l 138 0 l 138 546 q 250 870 138 757 q 554 983 363 983 m 835 389 l 835 558 q 760 783 835 707 q 554 860 686 860 q 348 783 422 860 q 274 558 274 707 l 274 389 l 835 389 m 300 1232 l 469 1232 l 658 1051 l 533 1051 l 300 1232 z "},"Ả":{"ha":1111,"x_min":138,"x_max":974,"o":"m 554 983 q 861 870 749 983 q 974 546 974 757 l 974 0 l 835 0 l 835 268 l 274 268 l 274 0 l 138 0 l 138 546 q 250 870 138 757 q 554 983 363 983 m 835 389 l 835 558 q 760 783 835 707 q 554 860 686 860 q 348 783 422 860 q 274 558 274 707 l 274 389 l 835 389 m 535 1093 q 594 1134 575 1111 q 613 1186 613 1157 q 592 1233 613 1214 q 540 1251 572 1251 q 457 1225 497 1251 l 426 1288 q 485 1317 451 1307 q 553 1326 518 1326 q 655 1291 615 1326 q 694 1197 694 1256 q 581 1039 694 1092 l 535 1093 z "},"Ȃ":{"ha":1111,"x_min":138,"x_max":974,"o":"m 554 983 q 861 870 749 983 q 974 546 974 757 l 974 0 l 835 0 l 835 268 l 274 268 l 274 0 l 138 0 l 138 546 q 250 870 138 757 q 554 983 363 983 m 835 389 l 835 558 q 760 783 835 707 q 554 860 686 860 q 348 783 422 860 q 274 558 274 707 l 274 389 l 835 389 m 329 1051 q 395 1189 332 1138 q 554 1240 458 1240 q 713 1189 650 1240 q 779 1051 776 1138 l 689 1051 q 649 1133 688 1103 q 554 1163 611 1163 q 459 1133 497 1163 q 419 1051 421 1103 l 329 1051 z "},"Ā":{"ha":1111,"x_min":138,"x_max":974,"o":"m 554 983 q 861 870 749 983 q 974 546 974 757 l 974 0 l 835 0 l 835 268 l 274 268 l 274 0 l 138 0 l 138 546 q 250 870 138 757 q 554 983 363 983 m 835 389 l 835 558 q 760 783 835 707 q 554 860 686 860 q 348 783 422 860 q 274 558 274 707 l 274 389 l 835 389 m 328 1183 l 781 1183 l 781 1100 l 328 1100 l 328 1183 z "},"Ą":{"ha":1111,"x_min":138,"x_max":1004,"o":"m 554 983 q 861 870 749 983 q 974 546 974 757 l 974 0 l 835 0 l 835 268 l 274 268 l 274 0 l 138 0 l 138 546 q 250 870 138 757 q 554 983 363 983 m 835 389 l 835 558 q 760 783 835 707 q 554 860 686 860 q 348 783 422 860 q 274 558 274 707 l 274 389 l 835 389 m 879 -311 q 757 -273 801 -311 q 713 -171 713 -235 q 760 -53 713 -110 q 911 44 807 3 l 974 0 q 847 -78 885 -39 q 808 -161 808 -118 q 832 -214 808 -194 q 893 -233 856 -233 q 979 -210 944 -233 l 1004 -278 q 879 -311 951 -311 z "},"Å":{"ha":1111,"x_min":138,"x_max":974,"o":"m 554 983 q 861 870 749 983 q 974 546 974 757 l 974 0 l 835 0 l 835 268 l 274 268 l 274 0 l 138 0 l 138 546 q 250 870 138 757 q 554 983 363 983 m 835 389 l 835 558 q 760 783 835 707 q 554 860 686 860 q 348 783 422 860 q 274 558 274 707 l 274 389 l 835 389 m 553 1061 q 444 1105 489 1061 q 400 1211 400 1149 q 444 1319 400 1274 q 553 1364 489 1364 q 663 1319 618 1364 q 707 1211 707 1274 q 663 1105 707 1149 q 553 1061 618 1061 m 553 1119 q 619 1146 593 1119 q 644 1211 644 1172 q 618 1278 644 1251 q 553 1304 592 1304 q 488 1278 514 1304 q 463 1211 463 1251 q 488 1146 463 1172 q 553 1119 514 1119 z "},"Ǻ":{"ha":1111,"x_min":138,"x_max":974,"o":"m 554 983 q 861 870 749 983 q 974 546 974 757 l 974 0 l 835 0 l 835 268 l 274 268 l 274 0 l 138 0 l 138 546 q 250 870 138 757 q 554 983 363 983 m 835 389 l 835 558 q 760 783 835 707 q 554 860 686 860 q 348 783 422 860 q 274 558 274 707 l 274 389 l 835 389 m 681 1299 q 707 1211 707 1260 q 663 1105 707 1149 q 553 1061 618 1061 q 444 1105 489 1061 q 400 1211 400 1149 q 444 1319 400 1274 q 553 1364 489 1364 q 628 1344 593 1364 l 744 1463 l 814 1406 l 681 1299 m 553 1119 q 619 1146 593 1119 q 644 1211 644 1172 q 618 1278 644 1251 q 553 1304 592 1304 q 488 1278 514 1304 q 463 1211 463 1251 q 488 1146 463 1172 q 553 1119 514 1119 z "},"Ã":{"ha":1111,"x_min":138,"x_max":974,"o":"m 554 983 q 861 870 749 983 q 974 546 974 757 l 974 0 l 835 0 l 835 268 l 274 268 l 274 0 l 138 0 l 138 546 q 250 870 138 757 q 554 983 363 983 m 835 389 l 835 558 q 760 783 835 707 q 554 860 686 860 q 348 783 422 860 q 274 558 274 707 l 274 389 l 835 389 m 651 1056 q 594 1069 618 1056 q 533 1111 569 1083 q 497 1140 513 1131 q 467 1149 482 1149 q 417 1126 436 1149 q 396 1063 397 1103 l 321 1063 q 360 1186 324 1140 q 457 1232 397 1232 q 516 1217 490 1232 q 575 1175 542 1203 q 613 1147 599 1156 q 642 1138 626 1138 q 692 1160 672 1138 q 713 1221 711 1182 l 788 1221 q 748 1101 785 1146 q 651 1056 711 1056 z "},"Æ":{"ha":1492,"x_min":125,"x_max":1438,"o":"m 1438 118 l 1438 0 l 731 0 l 731 282 l 264 282 l 264 0 l 125 0 l 125 546 q 231 861 125 750 q 532 972 336 972 l 1418 972 l 1418 854 l 867 854 l 867 550 l 1357 550 l 1357 438 l 867 438 l 867 118 l 1438 118 m 731 399 l 731 847 l 542 847 q 334 770 404 847 q 264 543 264 693 l 264 399 l 731 399 z "},"Ǽ":{"ha":1492,"x_min":125,"x_max":1438,"o":"m 1438 118 l 1438 0 l 731 0 l 731 282 l 264 282 l 264 0 l 125 0 l 125 546 q 231 861 125 750 q 532 972 336 972 l 1418 972 l 1418 854 l 867 854 l 867 550 l 1357 550 l 1357 438 l 867 438 l 867 118 l 1438 118 m 731 399 l 731 847 l 542 847 q 334 770 404 847 q 264 543 264 693 l 264 399 l 731 399 m 824 1232 l 993 1232 l 760 1051 l 635 1051 l 824 1232 z "},"B":{"ha":1051,"x_min":146,"x_max":982,"o":"m 800 504 q 933 419 885 481 q 982 263 982 357 q 887 68 982 136 q 610 0 792 0 l 146 0 l 146 972 l 582 972 q 840 906 749 972 q 931 721 931 839 q 895 589 931 644 q 800 504 860 533 m 285 860 l 285 549 l 569 549 q 734 588 676 549 q 792 704 792 628 q 734 820 792 781 q 569 860 676 860 l 285 860 m 604 113 q 782 151 722 113 q 842 274 842 190 q 604 436 842 436 l 285 436 l 285 113 l 604 113 z "},"C":{"ha":1004,"x_min":67,"x_max":951,"o":"m 581 -11 q 317 53 435 -11 q 133 231 200 118 q 67 486 67 344 q 133 741 67 628 q 318 919 200 854 q 582 983 436 983 q 790 945 696 983 q 951 832 885 907 l 861 744 q 588 860 751 860 q 392 811 479 860 q 255 677 304 763 q 206 486 206 592 q 255 295 206 381 q 392 161 304 210 q 588 113 479 113 q 861 229 750 113 l 951 142 q 790 28 885 67 q 581 -11 694 -11 z "},"Ć":{"ha":1004,"x_min":67,"x_max":951,"o":"m 581 -11 q 317 53 435 -11 q 133 231 200 118 q 67 486 67 344 q 133 741 67 628 q 318 919 200 854 q 582 983 436 983 q 790 945 696 983 q 951 832 885 907 l 861 744 q 588 860 751 860 q 392 811 479 860 q 255 677 304 763 q 206 486 206 592 q 255 295 206 381 q 392 161 304 210 q 588 113 479 113 q 861 229 750 113 l 951 142 q 790 28 885 67 q 581 -11 694 -11 m 656 1232 l 825 1232 l 592 1051 l 467 1051 l 656 1232 z "},"Č":{"ha":1004,"x_min":67,"x_max":951,"o":"m 581 -11 q 317 53 435 -11 q 133 231 200 118 q 67 486 67 344 q 133 741 67 628 q 318 919 200 854 q 582 983 436 983 q 790 945 696 983 q 951 832 885 907 l 861 744 q 588 860 751 860 q 392 811 479 860 q 255 677 304 763 q 206 486 206 592 q 255 295 206 381 q 392 161 304 210 q 588 113 479 113 q 861 229 750 113 l 951 142 q 790 28 885 67 q 581 -11 694 -11 m 819 1232 l 635 1051 l 507 1051 l 322 1232 l 443 1232 l 571 1126 l 699 1232 l 819 1232 z "},"Ç":{"ha":1004,"x_min":67,"x_max":951,"o":"m 581 -11 q 317 53 435 -11 q 133 231 200 118 q 67 486 67 344 q 133 741 67 628 q 318 919 200 854 q 582 983 436 983 q 790 945 696 983 q 951 832 885 907 l 861 744 q 588 860 751 860 q 392 811 479 860 q 255 677 304 763 q 206 486 206 592 q 255 295 206 381 q 392 161 304 210 q 588 113 479 113 q 861 229 750 113 l 951 142 q 790 28 885 67 q 581 -11 694 -11 m 524 -311 q 400 -281 451 -311 l 429 -212 q 524 -236 471 -236 q 601 -181 601 -236 q 582 -141 601 -156 q 522 -126 563 -126 l 485 -126 l 519 10 l 596 10 l 575 -69 q 665 -106 633 -75 q 696 -185 696 -137 q 649 -277 696 -243 q 524 -311 601 -311 z "},"Ḉ":{"ha":1004,"x_min":67,"x_max":951,"o":"m 581 -11 q 317 53 435 -11 q 133 231 200 118 q 67 486 67 344 q 133 741 67 628 q 318 919 200 854 q 582 983 436 983 q 790 945 696 983 q 951 832 885 907 l 861 744 q 588 860 751 860 q 392 811 479 860 q 255 677 304 763 q 206 486 206 592 q 255 295 206 381 q 392 161 304 210 q 588 113 479 113 q 861 229 750 113 l 951 142 q 790 28 885 67 q 581 -11 694 -11 m 524 -311 q 400 -281 451 -311 l 429 -212 q 524 -236 471 -236 q 601 -181 601 -236 q 582 -141 601 -156 q 522 -126 563 -126 l 485 -126 l 519 10 l 596 10 l 575 -69 q 665 -106 633 -75 q 696 -185 696 -137 q 649 -277 696 -243 q 524 -311 601 -311 m 656 1232 l 825 1232 l 592 1051 l 467 1051 l 656 1232 z "},"Ĉ":{"ha":1004,"x_min":67,"x_max":951,"o":"m 581 -11 q 317 53 435 -11 q 133 231 200 118 q 67 486 67 344 q 133 741 67 628 q 318 919 200 854 q 582 983 436 983 q 790 945 696 983 q 951 832 885 907 l 861 744 q 588 860 751 860 q 392 811 479 860 q 255 677 304 763 q 206 486 206 592 q 255 295 206 381 q 392 161 304 210 q 588 113 479 113 q 861 229 750 113 l 951 142 q 790 28 885 67 q 581 -11 694 -11 m 699 1051 l 571 1158 l 443 1051 l 322 1051 l 507 1232 l 635 1232 l 819 1051 l 699 1051 z "},"Ċ":{"ha":1004,"x_min":67,"x_max":951,"o":"m 581 -11 q 317 53 435 -11 q 133 231 200 118 q 67 486 67 344 q 133 741 67 628 q 318 919 200 854 q 582 983 436 983 q 790 945 696 983 q 951 832 885 907 l 861 744 q 588 860 751 860 q 392 811 479 860 q 255 677 304 763 q 206 486 206 592 q 255 295 206 381 q 392 161 304 210 q 588 113 479 113 q 861 229 750 113 l 951 142 q 790 28 885 67 q 581 -11 694 -11 m 571 1076 q 513 1100 536 1076 q 489 1158 489 1124 q 513 1217 489 1193 q 571 1240 536 1240 q 629 1217 606 1240 q 653 1158 653 1193 q 629 1100 653 1124 q 571 1076 606 1076 z "},"D":{"ha":1147,"x_min":146,"x_max":1081,"o":"m 146 972 l 556 972 q 829 911 710 972 q 1015 740 949 850 q 1081 486 1081 629 q 1015 233 1081 343 q 829 61 949 122 q 556 0 710 0 l 146 0 l 146 972 m 547 121 q 755 167 665 121 q 893 295 844 213 q 942 486 942 378 q 893 677 942 594 q 755 806 844 760 q 547 851 665 851 l 285 851 l 285 121 l 547 121 z "},"Ǆ":{"ha":2019,"x_min":146,"x_max":1979,"o":"m 146 972 l 556 972 q 829 911 710 972 q 1015 740 949 850 q 1081 486 1081 629 q 1015 233 1081 343 q 829 61 949 122 q 556 0 710 0 l 146 0 l 146 972 m 547 121 q 755 167 665 121 q 893 295 844 213 q 942 486 942 378 q 893 677 942 594 q 755 806 844 760 q 547 851 665 851 l 285 851 l 285 121 l 547 121 m 1979 121 l 1979 0 l 1167 0 l 1167 86 l 1446 438 l 1250 438 l 1250 553 l 1538 553 l 1774 851 l 1172 851 l 1172 972 l 1958 972 l 1958 888 l 1692 550 l 1872 550 l 1872 435 l 1600 435 l 1353 121 l 1979 121 m 1818 1232 l 1633 1051 l 1506 1051 l 1321 1232 l 1442 1232 l 1569 1126 l 1697 1232 l 1818 1232 z "},"Ð":{"ha":1158,"x_min":15,"x_max":1092,"o":"m 157 972 l 567 972 q 840 911 721 972 q 1026 740 960 850 q 1092 486 1092 629 q 1026 233 1092 343 q 840 61 960 122 q 567 0 721 0 l 157 0 l 157 972 m 558 121 q 766 167 676 121 q 904 295 856 213 q 953 486 953 378 q 904 677 953 594 q 766 806 856 760 q 558 851 676 851 l 296 851 l 296 121 l 558 121 m 15 550 l 571 550 l 571 440 l 15 440 l 15 550 z "},"Ď":{"ha":1147,"x_min":146,"x_max":1081,"o":"m 146 972 l 556 972 q 829 911 710 972 q 1015 740 949 850 q 1081 486 1081 629 q 1015 233 1081 343 q 829 61 949 122 q 556 0 710 0 l 146 0 l 146 972 m 547 121 q 755 167 665 121 q 893 295 844 213 q 942 486 942 378 q 893 677 942 594 q 755 806 844 760 q 547 851 665 851 l 285 851 l 285 121 l 547 121 m 775 1231 l 590 1050 l 463 1050 l 278 1231 l 399 1231 l 526 1125 l 654 1231 l 775 1231 z "},"Đ":{"ha":1158,"x_min":15,"x_max":1092,"o":"m 157 972 l 567 972 q 840 911 721 972 q 1026 740 960 850 q 1092 486 1092 629 q 1026 233 1092 343 q 840 61 960 122 q 567 0 721 0 l 157 0 l 157 972 m 558 121 q 766 167 676 121 q 904 295 856 213 q 953 486 953 378 q 904 677 953 594 q 766 806 856 760 q 558 851 676 851 l 296 851 l 296 121 l 558 121 m 15 550 l 571 550 l 571 440 l 15 440 l 15 550 z "},"Ḍ":{"ha":1147,"x_min":146,"x_max":1081,"o":"m 146 972 l 556 972 q 829 911 710 972 q 1015 740 949 850 q 1081 486 1081 629 q 1015 233 1081 343 q 829 61 949 122 q 556 0 710 0 l 146 0 l 146 972 m 547 121 q 755 167 665 121 q 893 295 844 213 q 942 486 942 378 q 893 677 942 594 q 755 806 844 760 q 547 851 665 851 l 285 851 l 285 121 l 547 121 m 532 -272 q 482 -253 503 -272 q 461 -203 461 -233 q 482 -151 461 -172 q 532 -131 503 -131 q 582 -151 561 -131 q 603 -203 603 -172 q 582 -253 603 -233 q 532 -272 561 -272 z "},"Ḏ":{"ha":1147,"x_min":146,"x_max":1081,"o":"m 146 972 l 556 972 q 829 911 710 972 q 1015 740 949 850 q 1081 486 1081 629 q 1015 233 1081 343 q 829 61 949 122 q 556 0 710 0 l 146 0 l 146 972 m 547 121 q 755 167 665 121 q 893 295 844 213 q 942 486 942 378 q 893 677 942 594 q 755 806 844 760 q 547 851 665 851 l 285 851 l 285 121 l 547 121 m 306 -157 l 758 -157 l 758 -242 l 306 -242 l 306 -157 z "},"ǅ":{"ha":1885,"x_min":146,"x_max":1826,"o":"m 146 972 l 556 972 q 829 911 710 972 q 1015 740 949 850 q 1081 486 1081 629 q 1015 233 1081 343 q 829 61 949 122 q 556 0 710 0 l 146 0 l 146 972 m 547 121 q 755 167 665 121 q 893 295 844 213 q 942 486 942 378 q 893 677 942 594 q 755 806 844 760 q 547 851 665 851 l 285 851 l 285 121 l 547 121 m 1826 110 l 1826 0 l 1210 0 l 1210 86 l 1397 319 l 1264 319 l 1264 425 l 1483 425 l 1644 626 l 1218 626 l 1218 736 l 1815 736 l 1815 649 l 1633 424 l 1771 424 l 1771 318 l 1549 318 l 1381 110 l 1826 110 m 1763 1024 l 1578 843 l 1450 843 l 1265 1024 l 1386 1024 l 1514 918 l 1642 1024 l 1763 1024 z "},"E":{"ha":894,"x_min":71,"x_max":869,"o":"m 869 101 q 706 19 807 49 q 485 -11 604 -11 q 258 24 351 -11 q 118 122 165 60 q 71 267 71 185 q 119 410 71 350 q 243 497 167 471 q 147 581 182 525 q 113 711 113 638 q 156 849 113 788 q 289 947 200 910 q 506 983 378 983 q 681 964 596 983 q 829 908 767 944 l 789 797 q 511 864 664 864 q 318 819 385 864 q 251 701 251 774 q 303 590 251 629 q 450 551 354 551 l 700 551 l 700 432 l 444 432 q 272 393 335 432 q 210 276 210 354 q 281 153 210 197 q 492 108 351 108 q 677 135 589 108 q 822 210 765 163 l 869 101 z "},"É":{"ha":894,"x_min":71,"x_max":869,"o":"m 869 101 q 706 19 807 49 q 485 -11 604 -11 q 258 24 351 -11 q 118 122 165 60 q 71 267 71 185 q 119 410 71 350 q 243 497 167 471 q 147 581 182 525 q 113 711 113 638 q 156 849 113 788 q 289 947 200 910 q 506 983 378 983 q 681 964 596 983 q 829 908 767 944 l 789 797 q 511 864 664 864 q 318 819 385 864 q 251 701 251 774 q 303 590 251 629 q 450 551 354 551 l 700 551 l 700 432 l 444 432 q 272 393 335 432 q 210 276 210 354 q 281 153 210 197 q 492 108 351 108 q 677 135 589 108 q 822 210 765 163 l 869 101 m 571 1232 l 740 1232 l 507 1051 l 382 1051 l 571 1232 z "},"Ĕ":{"ha":894,"x_min":71,"x_max":869,"o":"m 869 101 q 706 19 807 49 q 485 -11 604 -11 q 258 24 351 -11 q 118 122 165 60 q 71 267 71 185 q 119 410 71 350 q 243 497 167 471 q 147 581 182 525 q 113 711 113 638 q 156 849 113 788 q 289 947 200 910 q 506 983 378 983 q 681 964 596 983 q 829 908 767 944 l 789 797 q 511 864 664 864 q 318 819 385 864 q 251 701 251 774 q 303 590 251 629 q 450 551 354 551 l 700 551 l 700 432 l 444 432 q 272 393 335 432 q 210 276 210 354 q 281 153 210 197 q 492 108 351 108 q 677 135 589 108 q 822 210 765 163 l 869 101 m 486 1043 q 327 1094 390 1043 q 261 1232 264 1146 l 351 1232 q 391 1151 353 1182 q 486 1121 429 1121 q 581 1151 543 1121 q 621 1232 619 1182 l 711 1232 q 645 1094 708 1146 q 486 1043 582 1043 z "},"Ě":{"ha":894,"x_min":71,"x_max":869,"o":"m 869 101 q 706 19 807 49 q 485 -11 604 -11 q 258 24 351 -11 q 118 122 165 60 q 71 267 71 185 q 119 410 71 350 q 243 497 167 471 q 147 581 182 525 q 113 711 113 638 q 156 849 113 788 q 289 947 200 910 q 506 983 378 983 q 681 964 596 983 q 829 908 767 944 l 789 797 q 511 864 664 864 q 318 819 385 864 q 251 701 251 774 q 303 590 251 629 q 450 551 354 551 l 700 551 l 700 432 l 444 432 q 272 393 335 432 q 210 276 210 354 q 281 153 210 197 q 492 108 351 108 q 677 135 589 108 q 822 210 765 163 l 869 101 m 735 1232 l 550 1051 l 422 1051 l 238 1232 l 358 1232 l 486 1126 l 614 1232 l 735 1232 z "},"Ḝ":{"ha":894,"x_min":71,"x_max":869,"o":"m 869 101 q 706 19 807 49 q 485 -11 604 -11 q 258 24 351 -11 q 118 122 165 60 q 71 267 71 185 q 119 410 71 350 q 243 497 167 471 q 147 581 182 525 q 113 711 113 638 q 156 849 113 788 q 289 947 200 910 q 506 983 378 983 q 681 964 596 983 q 829 908 767 944 l 789 797 q 511 864 664 864 q 318 819 385 864 q 251 701 251 774 q 303 590 251 629 q 450 551 354 551 l 700 551 l 700 432 l 444 432 q 272 393 335 432 q 210 276 210 354 q 281 153 210 197 q 492 108 351 108 q 677 135 589 108 q 822 210 765 163 l 869 101 m 451 -311 q 328 -281 379 -311 l 357 -212 q 451 -236 399 -236 q 529 -181 529 -236 q 510 -141 529 -156 q 450 -126 490 -126 l 413 -126 l 447 10 l 524 10 l 503 -69 q 592 -106 561 -75 q 624 -185 624 -137 q 576 -277 624 -243 q 451 -311 529 -311 m 486 1043 q 327 1094 390 1043 q 261 1232 264 1146 l 351 1232 q 391 1151 353 1182 q 486 1121 429 1121 q 581 1151 543 1121 q 621 1232 619 1182 l 711 1232 q 645 1094 708 1146 q 486 1043 582 1043 z "},"Ê":{"ha":894,"x_min":71,"x_max":869,"o":"m 869 101 q 706 19 807 49 q 485 -11 604 -11 q 258 24 351 -11 q 118 122 165 60 q 71 267 71 185 q 119 410 71 350 q 243 497 167 471 q 147 581 182 525 q 113 711 113 638 q 156 849 113 788 q 289 947 200 910 q 506 983 378 983 q 681 964 596 983 q 829 908 767 944 l 789 797 q 511 864 664 864 q 318 819 385 864 q 251 701 251 774 q 303 590 251 629 q 450 551 354 551 l 700 551 l 700 432 l 444 432 q 272 393 335 432 q 210 276 210 354 q 281 153 210 197 q 492 108 351 108 q 677 135 589 108 q 822 210 765 163 l 869 101 m 614 1051 l 486 1158 l 358 1051 l 238 1051 l 422 1232 l 550 1232 l 735 1051 l 614 1051 z "},"Ế":{"ha":894,"x_min":71,"x_max":939,"o":"m 869 101 q 706 19 807 49 q 485 -11 604 -11 q 258 24 351 -11 q 118 122 165 60 q 71 267 71 185 q 119 410 71 350 q 243 497 167 471 q 147 581 182 525 q 113 711 113 638 q 156 849 113 788 q 289 947 200 910 q 506 983 378 983 q 681 964 596 983 q 829 908 767 944 l 789 797 q 511 864 664 864 q 318 819 385 864 q 251 701 251 774 q 303 590 251 629 q 450 551 354 551 l 700 551 l 700 432 l 444 432 q 272 393 335 432 q 210 276 210 354 q 281 153 210 197 q 492 108 351 108 q 677 135 589 108 q 822 210 765 163 l 869 101 m 613 1051 l 486 1129 l 360 1051 l 238 1051 l 424 1190 l 549 1190 l 735 1051 l 613 1051 m 788 1331 l 939 1331 l 733 1174 l 624 1174 l 788 1331 z "},"Ệ":{"ha":894,"x_min":71,"x_max":869,"o":"m 869 101 q 706 19 807 49 q 485 -11 604 -11 q 258 24 351 -11 q 118 122 165 60 q 71 267 71 185 q 119 410 71 350 q 243 497 167 471 q 147 581 182 525 q 113 711 113 638 q 156 849 113 788 q 289 947 200 910 q 506 983 378 983 q 681 964 596 983 q 829 908 767 944 l 789 797 q 511 864 664 864 q 318 819 385 864 q 251 701 251 774 q 303 590 251 629 q 450 551 354 551 l 700 551 l 700 432 l 444 432 q 272 393 335 432 q 210 276 210 354 q 281 153 210 197 q 492 108 351 108 q 677 135 589 108 q 822 210 765 163 l 869 101 m 486 -272 q 436 -253 457 -272 q 415 -203 415 -233 q 436 -151 415 -172 q 486 -131 457 -131 q 536 -151 515 -131 q 557 -203 557 -172 q 536 -253 557 -233 q 486 -272 515 -272 m 614 1051 l 486 1158 l 358 1051 l 238 1051 l 422 1232 l 550 1232 l 735 1051 l 614 1051 z "},"Ề":{"ha":894,"x_min":71,"x_max":869,"o":"m 869 101 q 706 19 807 49 q 485 -11 604 -11 q 258 24 351 -11 q 118 122 165 60 q 71 267 71 185 q 119 410 71 350 q 243 497 167 471 q 147 581 182 525 q 113 711 113 638 q 156 849 113 788 q 289 947 200 910 q 506 983 378 983 q 681 964 596 983 q 829 908 767 944 l 789 797 q 511 864 664 864 q 318 819 385 864 q 251 701 251 774 q 303 590 251 629 q 450 551 354 551 l 700 551 l 700 432 l 444 432 q 272 393 335 432 q 210 276 210 354 q 281 153 210 197 q 492 108 351 108 q 677 135 589 108 q 822 210 765 163 l 869 101 m 613 1051 l 486 1129 l 360 1051 l 238 1051 l 424 1190 l 549 1190 l 735 1051 l 613 1051 m 501 1331 l 653 1331 l 815 1174 l 707 1174 l 501 1331 z "},"Ể":{"ha":894,"x_min":71,"x_max":869,"o":"m 869 101 q 706 19 807 49 q 485 -11 604 -11 q 258 24 351 -11 q 118 122 165 60 q 71 267 71 185 q 119 410 71 350 q 243 497 167 471 q 147 581 182 525 q 113 711 113 638 q 156 849 113 788 q 289 947 200 910 q 506 983 378 983 q 681 964 596 983 q 829 908 767 944 l 789 797 q 511 864 664 864 q 318 819 385 864 q 251 701 251 774 q 303 590 251 629 q 450 551 354 551 l 700 551 l 700 432 l 444 432 q 272 393 335 432 q 210 276 210 354 q 281 153 210 197 q 492 108 351 108 q 677 135 589 108 q 822 210 765 163 l 869 101 m 613 1051 l 486 1129 l 360 1051 l 238 1051 l 424 1190 l 549 1190 l 735 1051 l 613 1051 m 653 1189 q 694 1219 681 1201 q 708 1256 708 1238 q 694 1287 708 1275 q 656 1299 679 1299 q 596 1282 625 1299 l 571 1333 q 667 1360 613 1360 q 746 1333 717 1360 q 775 1263 775 1306 q 751 1195 775 1225 q 689 1149 728 1165 l 653 1189 z "},"Ễ":{"ha":894,"x_min":71,"x_max":869,"o":"m 869 101 q 706 19 807 49 q 485 -11 604 -11 q 258 24 351 -11 q 118 122 165 60 q 71 267 71 185 q 119 410 71 350 q 243 497 167 471 q 147 581 182 525 q 113 711 113 638 q 156 849 113 788 q 289 947 200 910 q 506 983 378 983 q 681 964 596 983 q 829 908 767 944 l 789 797 q 511 864 664 864 q 318 819 385 864 q 251 701 251 774 q 303 590 251 629 q 450 551 354 551 l 700 551 l 700 432 l 444 432 q 272 393 335 432 q 210 276 210 354 q 281 153 210 197 q 492 108 351 108 q 677 135 589 108 q 822 210 765 163 l 869 101 m 613 1051 l 486 1129 l 360 1051 l 238 1051 l 424 1190 l 549 1190 l 735 1051 l 613 1051 m 583 1238 q 523 1249 549 1238 q 464 1282 497 1260 q 396 1313 421 1313 q 332 1243 335 1313 l 257 1243 q 294 1348 258 1310 q 390 1386 329 1386 q 448 1375 422 1386 q 507 1342 474 1364 q 546 1319 531 1326 q 578 1311 561 1311 q 624 1329 608 1311 q 642 1379 640 1347 l 715 1379 q 678 1276 714 1314 q 583 1238 643 1238 z "},"Ȅ":{"ha":894,"x_min":71,"x_max":869,"o":"m 869 101 q 706 19 807 49 q 485 -11 604 -11 q 258 24 351 -11 q 118 122 165 60 q 71 267 71 185 q 119 410 71 350 q 243 497 167 471 q 147 581 182 525 q 113 711 113 638 q 156 849 113 788 q 289 947 200 910 q 506 983 378 983 q 681 964 596 983 q 829 908 767 944 l 789 797 q 511 864 664 864 q 318 819 385 864 q 251 701 251 774 q 303 590 251 629 q 450 551 354 551 l 700 551 l 700 432 l 444 432 q 272 393 335 432 q 210 276 210 354 q 281 153 210 197 q 492 108 351 108 q 677 135 589 108 q 822 210 765 163 l 869 101 m 157 1232 l 297 1232 l 421 1051 l 308 1051 l 157 1232 m 397 1232 l 539 1232 l 664 1051 l 551 1051 l 397 1232 z "},"Ë":{"ha":894,"x_min":71,"x_max":869,"o":"m 869 101 q 706 19 807 49 q 485 -11 604 -11 q 258 24 351 -11 q 118 122 165 60 q 71 267 71 185 q 119 410 71 350 q 243 497 167 471 q 147 581 182 525 q 113 711 113 638 q 156 849 113 788 q 289 947 200 910 q 506 983 378 983 q 681 964 596 983 q 829 908 767 944 l 789 797 q 511 864 664 864 q 318 819 385 864 q 251 701 251 774 q 303 590 251 629 q 450 551 354 551 l 700 551 l 700 432 l 444 432 q 272 393 335 432 q 210 276 210 354 q 281 153 210 197 q 492 108 351 108 q 677 135 589 108 q 822 210 765 163 l 869 101 m 357 1075 q 307 1095 328 1075 q 286 1146 286 1115 q 307 1197 286 1176 q 357 1218 328 1218 q 407 1197 386 1218 q 428 1146 428 1176 q 407 1095 428 1115 q 357 1075 386 1075 m 615 1075 q 565 1095 586 1075 q 544 1146 544 1115 q 565 1197 544 1176 q 615 1218 586 1218 q 665 1197 644 1218 q 686 1146 686 1176 q 665 1095 686 1115 q 615 1075 644 1075 z "},"Ė":{"ha":894,"x_min":71,"x_max":869,"o":"m 869 101 q 706 19 807 49 q 485 -11 604 -11 q 258 24 351 -11 q 118 122 165 60 q 71 267 71 185 q 119 410 71 350 q 243 497 167 471 q 147 581 182 525 q 113 711 113 638 q 156 849 113 788 q 289 947 200 910 q 506 983 378 983 q 681 964 596 983 q 829 908 767 944 l 789 797 q 511 864 664 864 q 318 819 385 864 q 251 701 251 774 q 303 590 251 629 q 450 551 354 551 l 700 551 l 700 432 l 444 432 q 272 393 335 432 q 210 276 210 354 q 281 153 210 197 q 492 108 351 108 q 677 135 589 108 q 822 210 765 163 l 869 101 m 486 1076 q 428 1100 451 1076 q 404 1158 404 1124 q 428 1217 404 1193 q 486 1240 451 1240 q 544 1217 521 1240 q 568 1158 568 1193 q 544 1100 568 1124 q 486 1076 521 1076 z "},"Ẹ":{"ha":894,"x_min":71,"x_max":869,"o":"m 869 101 q 706 19 807 49 q 485 -11 604 -11 q 258 24 351 -11 q 118 122 165 60 q 71 267 71 185 q 119 410 71 350 q 243 497 167 471 q 147 581 182 525 q 113 711 113 638 q 156 849 113 788 q 289 947 200 910 q 506 983 378 983 q 681 964 596 983 q 829 908 767 944 l 789 797 q 511 864 664 864 q 318 819 385 864 q 251 701 251 774 q 303 590 251 629 q 450 551 354 551 l 700 551 l 700 432 l 444 432 q 272 393 335 432 q 210 276 210 354 q 281 153 210 197 q 492 108 351 108 q 677 135 589 108 q 822 210 765 163 l 869 101 m 486 -272 q 436 -253 457 -272 q 415 -203 415 -233 q 436 -151 415 -172 q 486 -131 457 -131 q 536 -151 515 -131 q 557 -203 557 -172 q 536 -253 557 -233 q 486 -272 515 -272 z "},"È":{"ha":894,"x_min":71,"x_max":869,"o":"m 869 101 q 706 19 807 49 q 485 -11 604 -11 q 258 24 351 -11 q 118 122 165 60 q 71 267 71 185 q 119 410 71 350 q 243 497 167 471 q 147 581 182 525 q 113 711 113 638 q 156 849 113 788 q 289 947 200 910 q 506 983 378 983 q 681 964 596 983 q 829 908 767 944 l 789 797 q 511 864 664 864 q 318 819 385 864 q 251 701 251 774 q 303 590 251 629 q 450 551 354 551 l 700 551 l 700 432 l 444 432 q 272 393 335 432 q 210 276 210 354 q 281 153 210 197 q 492 108 351 108 q 677 135 589 108 q 822 210 765 163 l 869 101 m 232 1232 l 401 1232 l 590 1051 l 465 1051 l 232 1232 z "},"Ẻ":{"ha":894,"x_min":71,"x_max":869,"o":"m 869 101 q 706 19 807 49 q 485 -11 604 -11 q 258 24 351 -11 q 118 122 165 60 q 71 267 71 185 q 119 410 71 350 q 243 497 167 471 q 147 581 182 525 q 113 711 113 638 q 156 849 113 788 q 289 947 200 910 q 506 983 378 983 q 681 964 596 983 q 829 908 767 944 l 789 797 q 511 864 664 864 q 318 819 385 864 q 251 701 251 774 q 303 590 251 629 q 450 551 354 551 l 700 551 l 700 432 l 444 432 q 272 393 335 432 q 210 276 210 354 q 281 153 210 197 q 492 108 351 108 q 677 135 589 108 q 822 210 765 163 l 869 101 m 467 1093 q 526 1134 507 1111 q 544 1186 544 1157 q 524 1233 544 1214 q 472 1251 504 1251 q 389 1225 429 1251 l 358 1288 q 417 1317 383 1307 q 485 1326 450 1326 q 587 1291 547 1326 q 626 1197 626 1256 q 513 1039 626 1092 l 467 1093 z "},"Ȇ":{"ha":894,"x_min":71,"x_max":869,"o":"m 869 101 q 706 19 807 49 q 485 -11 604 -11 q 258 24 351 -11 q 118 122 165 60 q 71 267 71 185 q 119 410 71 350 q 243 497 167 471 q 147 581 182 525 q 113 711 113 638 q 156 849 113 788 q 289 947 200 910 q 506 983 378 983 q 681 964 596 983 q 829 908 767 944 l 789 797 q 511 864 664 864 q 318 819 385 864 q 251 701 251 774 q 303 590 251 629 q 450 551 354 551 l 700 551 l 700 432 l 444 432 q 272 393 335 432 q 210 276 210 354 q 281 153 210 197 q 492 108 351 108 q 677 135 589 108 q 822 210 765 163 l 869 101 m 261 1051 q 327 1189 264 1138 q 486 1240 390 1240 q 645 1189 582 1240 q 711 1051 708 1138 l 621 1051 q 581 1133 619 1103 q 486 1163 543 1163 q 391 1133 429 1163 q 351 1051 353 1103 l 261 1051 z "},"Ē":{"ha":894,"x_min":71,"x_max":869,"o":"m 869 101 q 706 19 807 49 q 485 -11 604 -11 q 258 24 351 -11 q 118 122 165 60 q 71 267 71 185 q 119 410 71 350 q 243 497 167 471 q 147 581 182 525 q 113 711 113 638 q 156 849 113 788 q 289 947 200 910 q 506 983 378 983 q 681 964 596 983 q 829 908 767 944 l 789 797 q 511 864 664 864 q 318 819 385 864 q 251 701 251 774 q 303 590 251 629 q 450 551 354 551 l 700 551 l 700 432 l 444 432 q 272 393 335 432 q 210 276 210 354 q 281 153 210 197 q 492 108 351 108 q 677 135 589 108 q 822 210 765 163 l 869 101 m 260 1183 l 713 1183 l 713 1100 l 260 1100 l 260 1183 z "},"Ḗ":{"ha":894,"x_min":71,"x_max":869,"o":"m 869 101 q 706 19 807 49 q 485 -11 604 -11 q 258 24 351 -11 q 118 122 165 60 q 71 267 71 185 q 119 410 71 350 q 243 497 167 471 q 147 581 182 525 q 113 711 113 638 q 156 849 113 788 q 289 947 200 910 q 506 983 378 983 q 681 964 596 983 q 829 908 767 944 l 789 797 q 511 864 664 864 q 318 819 385 864 q 251 701 251 774 q 303 590 251 629 q 450 551 354 551 l 700 551 l 700 432 l 444 432 q 272 393 335 432 q 210 276 210 354 q 281 153 210 197 q 492 108 351 108 q 677 135 589 108 q 822 210 765 163 l 869 101 m 260 1161 l 713 1161 l 713 1082 l 260 1082 l 260 1161 m 554 1406 l 706 1406 l 500 1249 l 390 1249 l 554 1406 z "},"Ḕ":{"ha":894,"x_min":71,"x_max":869,"o":"m 869 101 q 706 19 807 49 q 485 -11 604 -11 q 258 24 351 -11 q 118 122 165 60 q 71 267 71 185 q 119 410 71 350 q 243 497 167 471 q 147 581 182 525 q 113 711 113 638 q 156 849 113 788 q 289 947 200 910 q 506 983 378 983 q 681 964 596 983 q 829 908 767 944 l 789 797 q 511 864 664 864 q 318 819 385 864 q 251 701 251 774 q 303 590 251 629 q 450 551 354 551 l 700 551 l 700 432 l 444 432 q 272 393 335 432 q 210 276 210 354 q 281 153 210 197 q 492 108 351 108 q 677 135 589 108 q 822 210 765 163 l 869 101 m 260 1161 l 713 1161 l 713 1082 l 260 1082 l 260 1161 m 268 1406 l 419 1406 l 582 1249 l 474 1249 l 268 1406 z "},"Ę":{"ha":894,"x_min":71,"x_max":869,"o":"m 743 -233 q 788 -227 765 -233 q 828 -210 811 -221 l 854 -278 q 729 -311 799 -311 q 607 -273 651 -311 q 563 -171 563 -235 q 638 4 563 -75 q 485 -11 564 -11 q 258 24 351 -11 q 118 122 165 60 q 71 267 71 185 q 119 410 71 350 q 243 497 167 471 q 147 581 182 525 q 113 711 113 638 q 156 849 113 788 q 289 947 200 910 q 506 983 378 983 q 681 964 596 983 q 829 908 767 944 l 789 797 q 511 864 664 864 q 318 819 385 864 q 251 701 251 774 q 303 590 251 629 q 450 551 354 551 l 700 551 l 700 432 l 444 432 q 272 393 335 432 q 210 276 210 354 q 281 153 210 197 q 492 108 351 108 q 676 136 588 108 q 822 210 764 164 l 869 100 q 703 -43 750 19 q 657 -158 657 -106 q 681 -214 657 -194 q 743 -233 704 -233 z "},"Ẽ":{"ha":894,"x_min":71,"x_max":869,"o":"m 869 101 q 706 19 807 49 q 485 -11 604 -11 q 258 24 351 -11 q 118 122 165 60 q 71 267 71 185 q 119 410 71 350 q 243 497 167 471 q 147 581 182 525 q 113 711 113 638 q 156 849 113 788 q 289 947 200 910 q 506 983 378 983 q 681 964 596 983 q 829 908 767 944 l 789 797 q 511 864 664 864 q 318 819 385 864 q 251 701 251 774 q 303 590 251 629 q 450 551 354 551 l 700 551 l 700 432 l 444 432 q 272 393 335 432 q 210 276 210 354 q 281 153 210 197 q 492 108 351 108 q 677 135 589 108 q 822 210 765 163 l 869 101 m 583 1056 q 526 1069 550 1056 q 465 1111 501 1083 q 429 1140 444 1131 q 399 1149 414 1149 q 349 1126 368 1149 q 328 1063 329 1103 l 253 1063 q 292 1186 256 1140 q 389 1232 329 1232 q 448 1217 422 1232 q 507 1175 474 1203 q 544 1147 531 1156 q 574 1138 558 1138 q 624 1160 604 1138 q 644 1221 643 1182 l 719 1221 q 680 1101 717 1146 q 583 1056 643 1056 z "},"Ʒ":{"ha":865,"x_min":43,"x_max":797,"o":"m 474 563 q 714 478 631 553 q 797 286 797 404 q 754 134 797 201 q 624 28 711 67 q 413 -11 538 -11 q 201 20 300 -11 q 43 106 101 51 l 94 215 q 231 138 147 167 q 410 110 315 110 q 592 156 528 110 q 657 286 657 203 q 593 410 657 365 q 400 456 529 456 l 319 456 l 319 551 l 586 854 l 81 854 l 81 972 l 751 972 l 751 878 l 474 563 z "},"Ǯ":{"ha":865,"x_min":43,"x_max":797,"o":"m 474 563 q 714 478 631 553 q 797 286 797 404 q 754 134 797 201 q 624 28 711 67 q 413 -11 538 -11 q 201 20 300 -11 q 43 106 101 51 l 94 215 q 231 138 147 167 q 410 110 315 110 q 592 156 528 110 q 657 286 657 203 q 593 410 657 365 q 400 456 529 456 l 319 456 l 319 551 l 586 854 l 81 854 l 81 972 l 751 972 l 751 878 l 474 563 m 668 1232 l 483 1051 l 356 1051 l 171 1232 l 292 1232 l 419 1126 l 547 1232 l 668 1232 z "},"F":{"ha":842,"x_min":138,"x_max":821,"o":"m 544 860 q 344 799 411 860 q 276 624 276 739 l 276 513 l 721 513 l 721 393 l 276 393 l 276 0 l 138 0 l 138 625 q 244 888 138 793 q 540 983 350 983 q 696 965 624 983 q 821 910 768 946 l 775 794 q 544 860 682 860 z "},"G":{"ha":1072,"x_min":67,"x_max":961,"o":"m 819 492 l 953 492 l 953 0 l 831 0 l 831 65 q 560 -11 724 -11 q 315 47 428 -11 q 134 217 201 106 q 67 482 67 329 q 134 740 67 626 q 320 919 201 854 q 588 983 439 983 q 799 945 704 983 q 961 833 894 907 l 875 747 q 593 860 758 860 q 394 811 482 860 q 256 676 306 763 q 206 482 206 590 q 256 282 206 367 q 390 153 307 197 q 571 110 474 110 q 703 133 639 110 q 819 200 768 156 l 819 492 z "},"Ğ":{"ha":1072,"x_min":67,"x_max":961,"o":"m 819 492 l 953 492 l 953 0 l 831 0 l 831 65 q 560 -11 724 -11 q 315 47 428 -11 q 134 217 201 106 q 67 482 67 329 q 134 740 67 626 q 320 919 201 854 q 588 983 439 983 q 799 945 704 983 q 961 833 894 907 l 875 747 q 593 860 758 860 q 394 811 482 860 q 256 676 306 763 q 206 482 206 590 q 256 282 206 367 q 390 153 307 197 q 571 110 474 110 q 703 133 639 110 q 819 200 768 156 l 819 492 m 569 1043 q 410 1094 474 1043 q 344 1232 347 1146 l 435 1232 q 474 1151 436 1182 q 569 1121 513 1121 q 665 1151 626 1121 q 704 1232 703 1182 l 794 1232 q 728 1094 792 1146 q 569 1043 665 1043 z "},"Ǧ":{"ha":1072,"x_min":67,"x_max":961,"o":"m 819 492 l 953 492 l 953 0 l 831 0 l 831 65 q 560 -11 724 -11 q 315 47 428 -11 q 134 217 201 106 q 67 482 67 329 q 134 740 67 626 q 320 919 201 854 q 588 983 439 983 q 799 945 704 983 q 961 833 894 907 l 875 747 q 593 860 758 860 q 394 811 482 860 q 256 676 306 763 q 206 482 206 590 q 256 282 206 367 q 390 153 307 197 q 571 110 474 110 q 703 133 639 110 q 819 200 768 156 l 819 492 m 818 1232 l 633 1051 l 506 1051 l 321 1232 l 442 1232 l 569 1126 l 697 1232 l 818 1232 z "},"Ĝ":{"ha":1072,"x_min":67,"x_max":961,"o":"m 819 492 l 953 492 l 953 0 l 831 0 l 831 65 q 560 -11 724 -11 q 315 47 428 -11 q 134 217 201 106 q 67 482 67 329 q 134 740 67 626 q 320 919 201 854 q 588 983 439 983 q 799 945 704 983 q 961 833 894 907 l 875 747 q 593 860 758 860 q 394 811 482 860 q 256 676 306 763 q 206 482 206 590 q 256 282 206 367 q 390 153 307 197 q 571 110 474 110 q 703 133 639 110 q 819 200 768 156 l 819 492 m 697 1051 l 569 1158 l 442 1051 l 321 1051 l 506 1232 l 633 1232 l 818 1051 l 697 1051 z "},"Ģ":{"ha":1072,"x_min":67,"x_max":961,"o":"m 819 492 l 953 492 l 953 0 l 831 0 l 831 65 q 560 -11 724 -11 q 315 47 428 -11 q 134 217 201 106 q 67 482 67 329 q 134 740 67 626 q 320 919 201 854 q 588 983 439 983 q 799 945 704 983 q 961 833 894 907 l 875 747 q 593 860 758 860 q 394 811 482 860 q 256 676 306 763 q 206 482 206 590 q 256 282 206 367 q 390 153 307 197 q 571 110 474 110 q 703 133 639 110 q 819 200 768 156 l 819 492 m 563 -129 q 614 -147 594 -129 q 633 -193 633 -165 q 615 -264 633 -226 l 574 -364 l 504 -364 l 536 -253 q 503 -231 515 -246 q 492 -193 492 -215 q 511 -147 492 -165 q 563 -129 531 -129 z "},"Ġ":{"ha":1072,"x_min":67,"x_max":961,"o":"m 819 492 l 953 492 l 953 0 l 831 0 l 831 65 q 560 -11 724 -11 q 315 47 428 -11 q 134 217 201 106 q 67 482 67 329 q 134 740 67 626 q 320 919 201 854 q 588 983 439 983 q 799 945 704 983 q 961 833 894 907 l 875 747 q 593 860 758 860 q 394 811 482 860 q 256 676 306 763 q 206 482 206 590 q 256 282 206 367 q 390 153 307 197 q 571 110 474 110 q 703 133 639 110 q 819 200 768 156 l 819 492 m 569 1076 q 511 1100 535 1076 q 488 1158 488 1124 q 511 1217 488 1193 q 569 1240 535 1240 q 628 1217 604 1240 q 651 1158 651 1193 q 628 1100 651 1124 q 569 1076 604 1076 z "},"Ḡ":{"ha":1072,"x_min":67,"x_max":961,"o":"m 819 492 l 953 492 l 953 0 l 831 0 l 831 65 q 560 -11 724 -11 q 315 47 428 -11 q 134 217 201 106 q 67 482 67 329 q 134 740 67 626 q 320 919 201 854 q 588 983 439 983 q 799 945 704 983 q 961 833 894 907 l 875 747 q 593 860 758 860 q 394 811 482 860 q 256 676 306 763 q 206 482 206 590 q 256 282 206 367 q 390 153 307 197 q 571 110 474 110 q 703 133 639 110 q 819 200 768 156 l 819 492 m 343 1183 l 796 1183 l 796 1100 l 343 1100 l 343 1183 z "},"Ǥ":{"ha":1128,"x_min":67,"x_max":1090,"o":"m 819 492 l 953 492 l 953 0 l 831 0 l 831 65 q 560 -11 724 -11 q 315 47 428 -11 q 134 217 201 106 q 67 482 67 329 q 134 740 67 626 q 320 919 201 854 q 588 983 439 983 q 799 945 704 983 q 961 833 894 907 l 875 747 q 593 860 758 860 q 394 811 482 860 q 256 676 306 763 q 206 482 206 590 q 256 282 206 367 q 390 153 307 197 q 571 110 474 110 q 703 133 639 110 q 819 200 768 156 l 819 492 m 558 385 l 1091 385 l 1091 275 l 558 275 l 558 385 z "},"H":{"ha":1128,"x_min":146,"x_max":982,"o":"m 982 972 l 982 0 l 843 0 l 843 433 l 285 433 l 285 0 l 146 0 l 146 972 l 285 972 l 285 554 l 843 554 l 843 972 l 982 972 z "},"Ħ":{"ha":1150,"x_min":13,"x_max":1133,"o":"m 993 972 l 993 0 l 854 0 l 854 433 l 296 433 l 296 0 l 157 0 l 157 972 l 296 972 l 296 554 l 854 554 l 854 972 l 993 972 m 13 822 l 1133 822 l 1133 713 l 13 713 l 13 822 z "},"Ḫ":{"ha":1128,"x_min":146,"x_max":982,"o":"m 982 972 l 982 0 l 843 0 l 843 433 l 285 433 l 285 0 l 146 0 l 146 972 l 285 972 l 285 554 l 843 554 l 843 972 l 982 972 m 563 -290 q 403 -242 467 -290 q 338 -112 340 -193 l 425 -112 q 464 -188 425 -160 q 563 -217 503 -217 q 661 -188 622 -217 q 700 -112 700 -160 l 788 -112 q 722 -242 785 -193 q 563 -290 658 -290 z "},"Ȟ":{"ha":1128,"x_min":146,"x_max":982,"o":"m 982 972 l 982 0 l 843 0 l 843 433 l 285 433 l 285 0 l 146 0 l 146 972 l 285 972 l 285 554 l 843 554 l 843 972 l 982 972 m 811 1232 l 626 1051 l 499 1051 l 314 1232 l 435 1232 l 563 1126 l 690 1232 l 811 1232 z "},"Ĥ":{"ha":1128,"x_min":146,"x_max":982,"o":"m 982 972 l 982 0 l 843 0 l 843 433 l 285 433 l 285 0 l 146 0 l 146 972 l 285 972 l 285 554 l 843 554 l 843 972 l 982 972 m 690 1051 l 563 1158 l 435 1051 l 314 1051 l 499 1232 l 626 1232 l 811 1051 l 690 1051 z "},"Ḥ":{"ha":1128,"x_min":146,"x_max":982,"o":"m 982 972 l 982 0 l 843 0 l 843 433 l 285 433 l 285 0 l 146 0 l 146 972 l 285 972 l 285 554 l 843 554 l 843 972 l 982 972 m 563 -272 q 513 -253 533 -272 q 492 -203 492 -233 q 513 -151 492 -172 q 563 -131 533 -131 q 613 -151 592 -131 q 633 -203 633 -172 q 613 -253 633 -233 q 563 -272 592 -272 z "},"I":{"ha":633,"x_min":60,"x_max":574,"o":"m 386 851 l 386 121 l 574 121 l 574 0 l 60 0 l 60 121 l 247 121 l 247 851 l 60 851 l 60 972 l 574 972 l 574 851 l 386 851 z "},"Ĳ":{"ha":1000,"x_min":121,"x_max":863,"o":"m 454 -150 q 274 -124 360 -150 q 121 -51 188 -97 l 175 60 q 308 -4 236 18 q 457 -26 381 -26 q 656 50 588 -26 q 724 281 724 126 l 724 972 l 863 972 l 863 288 q 753 -37 863 75 q 454 -150 643 -150 m 138 972 l 276 972 l 276 290 l 138 290 l 138 972 z "},"Í":{"ha":633,"x_min":60,"x_max":574,"o":"m 386 851 l 386 121 l 574 121 l 574 0 l 60 0 l 60 121 l 247 121 l 247 851 l 60 851 l 60 972 l 574 972 l 574 851 l 386 851 m 403 1232 l 572 1232 l 339 1051 l 214 1051 l 403 1232 z "},"Ĭ":{"ha":633,"x_min":60,"x_max":574,"o":"m 386 851 l 386 121 l 574 121 l 574 0 l 60 0 l 60 121 l 247 121 l 247 851 l 60 851 l 60 972 l 574 972 l 574 851 l 386 851 m 318 1043 q 159 1094 222 1043 q 93 1232 96 1146 l 183 1232 q 223 1151 185 1182 q 318 1121 261 1121 q 413 1151 375 1121 q 453 1232 451 1182 l 543 1232 q 477 1094 540 1146 q 318 1043 414 1043 z "},"Î":{"ha":633,"x_min":60,"x_max":574,"o":"m 386 851 l 386 121 l 574 121 l 574 0 l 60 0 l 60 121 l 247 121 l 247 851 l 60 851 l 60 972 l 574 972 l 574 851 l 386 851 m 446 1051 l 318 1158 l 190 1051 l 69 1051 l 254 1232 l 382 1232 l 567 1051 l 446 1051 z "},"Ȉ":{"ha":633,"x_min":-11,"x_max":574,"o":"m 386 851 l 386 121 l 574 121 l 574 0 l 60 0 l 60 121 l 247 121 l 247 851 l 60 851 l 60 972 l 574 972 l 574 851 l 386 851 m -11 1232 l 129 1232 l 253 1051 l 140 1051 l -11 1232 m 229 1232 l 371 1232 l 496 1051 l 383 1051 l 229 1232 z "},"Ï":{"ha":633,"x_min":60,"x_max":574,"o":"m 386 851 l 386 121 l 574 121 l 574 0 l 60 0 l 60 121 l 247 121 l 247 851 l 60 851 l 60 972 l 574 972 l 574 851 l 386 851 m 189 1075 q 139 1095 160 1075 q 118 1146 118 1115 q 139 1197 118 1176 q 189 1218 160 1218 q 239 1197 218 1218 q 260 1146 260 1176 q 239 1095 260 1115 q 189 1075 218 1075 m 447 1075 q 397 1095 418 1075 q 376 1146 376 1115 q 397 1197 376 1176 q 447 1218 418 1218 q 497 1197 476 1218 q 518 1146 518 1176 q 497 1095 518 1115 q 447 1075 476 1075 z "},"Ḯ":{"ha":633,"x_min":60,"x_max":574,"o":"m 386 851 l 386 121 l 574 121 l 574 0 l 60 0 l 60 121 l 247 121 l 247 851 l 60 851 l 60 972 l 574 972 l 574 851 l 386 851 m 193 1075 q 144 1094 164 1075 q 124 1144 124 1114 q 144 1193 124 1174 q 193 1213 164 1213 q 241 1193 221 1213 q 261 1144 261 1174 q 241 1095 261 1115 q 193 1075 221 1075 m 444 1075 q 397 1095 417 1075 q 376 1144 376 1115 q 397 1193 376 1174 q 444 1213 417 1213 q 494 1193 474 1213 q 514 1144 514 1174 q 494 1095 514 1115 q 444 1075 474 1075 m 386 1406 l 538 1406 l 332 1249 l 222 1249 l 386 1406 z "},"İ":{"ha":633,"x_min":60,"x_max":574,"o":"m 386 851 l 386 121 l 574 121 l 574 0 l 60 0 l 60 121 l 247 121 l 247 851 l 60 851 l 60 972 l 574 972 l 574 851 l 386 851 m 318 1076 q 260 1100 283 1076 q 236 1158 236 1124 q 260 1217 236 1193 q 318 1240 283 1240 q 376 1217 353 1240 q 400 1158 400 1193 q 376 1100 400 1124 q 318 1076 353 1076 z "},"Ị":{"ha":633,"x_min":60,"x_max":574,"o":"m 386 851 l 386 121 l 574 121 l 574 0 l 60 0 l 60 121 l 247 121 l 247 851 l 60 851 l 60 972 l 574 972 l 574 851 l 386 851 m 318 -272 q 268 -253 289 -272 q 247 -203 247 -233 q 268 -151 247 -172 q 318 -131 289 -131 q 368 -151 347 -131 q 389 -203 389 -172 q 368 -253 389 -233 q 318 -272 347 -272 z "},"Ì":{"ha":633,"x_min":60,"x_max":574,"o":"m 386 851 l 386 121 l 574 121 l 574 0 l 60 0 l 60 121 l 247 121 l 247 851 l 60 851 l 60 972 l 574 972 l 574 851 l 386 851 m 64 1232 l 233 1232 l 422 1051 l 297 1051 l 64 1232 z "},"Ỉ":{"ha":633,"x_min":60,"x_max":574,"o":"m 386 851 l 386 121 l 574 121 l 574 0 l 60 0 l 60 121 l 247 121 l 247 851 l 60 851 l 60 972 l 574 972 l 574 851 l 386 851 m 299 1093 q 358 1134 339 1111 q 376 1186 376 1157 q 356 1233 376 1214 q 304 1251 336 1251 q 221 1225 261 1251 l 190 1288 q 249 1317 215 1307 q 317 1326 282 1326 q 419 1291 379 1326 q 458 1197 458 1256 q 344 1039 458 1092 l 299 1093 z "},"Ȋ":{"ha":633,"x_min":60,"x_max":574,"o":"m 386 851 l 386 121 l 574 121 l 574 0 l 60 0 l 60 121 l 247 121 l 247 851 l 60 851 l 60 972 l 574 972 l 574 851 l 386 851 m 93 1051 q 159 1189 96 1138 q 318 1240 222 1240 q 477 1189 414 1240 q 543 1051 540 1138 l 453 1051 q 413 1133 451 1103 q 318 1163 375 1163 q 223 1133 261 1163 q 183 1051 185 1103 l 93 1051 z "},"Ī":{"ha":633,"x_min":60,"x_max":574,"o":"m 386 851 l 386 121 l 574 121 l 574 0 l 60 0 l 60 121 l 247 121 l 247 851 l 60 851 l 60 972 l 574 972 l 574 851 l 386 851 m 92 1183 l 544 1183 l 544 1100 l 92 1100 l 92 1183 z "},"Į":{"ha":633,"x_min":60,"x_max":574,"o":"m 386 851 l 386 121 l 574 121 l 574 0 l 60 0 l 60 121 l 247 121 l 247 851 l 60 851 l 60 972 l 574 972 l 574 851 l 386 851 m 349 -311 q 248 -274 286 -311 q 210 -176 210 -237 q 338 43 210 -56 l 386 0 q 322 -84 339 -44 q 304 -161 304 -124 q 322 -214 304 -194 q 365 -233 339 -233 q 413 -217 389 -233 l 436 -283 q 349 -311 404 -311 z "},"Ĩ":{"ha":633,"x_min":60,"x_max":574,"o":"m 386 851 l 386 121 l 574 121 l 574 0 l 60 0 l 60 121 l 247 121 l 247 851 l 60 851 l 60 972 l 574 972 l 574 851 l 386 851 m 415 1056 q 358 1069 382 1056 q 297 1111 333 1083 q 261 1140 276 1131 q 231 1149 246 1149 q 181 1126 200 1149 q 160 1063 161 1103 l 85 1063 q 124 1186 88 1140 q 221 1232 161 1232 q 280 1217 254 1232 q 339 1175 306 1203 q 376 1147 363 1156 q 406 1138 390 1138 q 456 1160 436 1138 q 476 1221 475 1182 l 551 1221 q 512 1101 549 1146 q 415 1056 475 1056 z "},"J":{"ha":710,"x_min":-12,"x_max":572,"o":"m 267 -150 q 108 -113 181 -150 q -12 -10 35 -76 l 65 85 q 265 -31 146 -31 q 433 167 433 -31 l 433 851 l 83 851 l 83 972 l 572 972 l 572 174 q 495 -69 572 13 q 267 -150 418 -150 z "},"Ĵ":{"ha":710,"x_min":-12,"x_max":576,"o":"m 267 -150 q 108 -113 181 -150 q -12 -10 35 -76 l 65 85 q 265 -31 146 -31 q 433 167 433 -31 l 433 851 l 83 851 l 83 972 l 572 972 l 572 174 q 495 -69 572 13 q 267 -150 418 -150 m 456 1051 l 328 1158 l 200 1051 l 79 1051 l 264 1232 l 392 1232 l 576 1051 l 456 1051 z "},"K":{"ha":999,"x_min":146,"x_max":997,"o":"m 463 432 l 285 251 l 285 0 l 146 0 l 146 972 l 285 972 l 285 429 l 813 972 l 971 972 l 556 535 l 997 0 l 835 0 l 463 432 z "},"Ǩ":{"ha":999,"x_min":146,"x_max":997,"o":"m 463 432 l 285 251 l 285 0 l 146 0 l 146 972 l 285 972 l 285 429 l 813 972 l 971 972 l 556 535 l 997 0 l 835 0 l 463 432 m 769 1232 l 585 1051 l 457 1051 l 272 1232 l 393 1232 l 521 1126 l 649 1232 l 769 1232 z "},"Ķ":{"ha":999,"x_min":146,"x_max":997,"o":"m 463 432 l 285 251 l 285 0 l 146 0 l 146 972 l 285 972 l 285 429 l 813 972 l 971 972 l 556 535 l 997 0 l 835 0 l 463 432 m 521 -131 q 572 -149 553 -131 q 592 -194 592 -167 q 574 -265 592 -228 l 532 -365 l 463 -365 l 494 -254 q 462 -232 474 -247 q 450 -194 450 -217 q 469 -149 450 -167 q 521 -131 489 -131 z "},"L":{"ha":825,"x_min":146,"x_max":811,"o":"m 146 972 l 285 972 l 285 121 l 811 121 l 811 0 l 146 0 l 146 972 z "},"Ǉ":{"ha":1576,"x_min":146,"x_max":1439,"o":"m 146 972 l 285 972 l 285 121 l 811 121 l 811 0 l 146 0 l 146 972 m 1133 -150 q 974 -113 1047 -150 q 854 -10 901 -76 l 932 85 q 1132 -31 1013 -31 q 1300 167 1300 -31 l 1300 851 l 950 851 l 950 972 l 1439 972 l 1439 174 q 1362 -69 1439 13 q 1133 -150 1285 -150 z "},"Ĺ":{"ha":825,"x_min":111,"x_max":811,"o":"m 146 972 l 285 972 l 285 121 l 811 121 l 811 0 l 146 0 l 146 972 m 300 1232 l 469 1232 l 236 1051 l 111 1051 l 300 1232 z "},"Ľ":{"ha":825,"x_min":146,"x_max":811,"o":"m 146 972 l 285 972 l 285 121 l 811 121 l 811 0 l 146 0 l 146 972 m 608 1018 l 718 1018 l 701 750 l 608 750 l 608 1018 z "},"Ļ":{"ha":825,"x_min":146,"x_max":811,"o":"m 146 972 l 285 972 l 285 121 l 811 121 l 811 0 l 146 0 l 146 972 m 494 -131 q 546 -149 526 -131 q 565 -194 565 -167 q 547 -265 565 -228 l 506 -365 l 436 -365 l 468 -254 q 435 -232 447 -247 q 424 -194 424 -217 q 443 -149 424 -167 q 494 -131 463 -131 z "},"Ŀ":{"ha":825,"x_min":146,"x_max":811,"o":"m 146 972 l 285 972 l 285 121 l 811 121 l 811 0 l 146 0 l 146 972 m 628 460 q 568 484 593 460 q 543 546 543 508 q 568 608 543 583 q 628 632 593 632 q 687 608 663 632 q 711 546 711 583 q 687 484 711 508 q 628 460 663 460 z "},"Ḷ":{"ha":825,"x_min":146,"x_max":811,"o":"m 146 972 l 285 972 l 285 121 l 811 121 l 811 0 l 146 0 l 146 972 m 494 -272 q 444 -253 465 -272 q 424 -203 424 -233 q 444 -151 424 -172 q 494 -131 465 -131 q 544 -151 524 -131 q 565 -203 565 -172 q 544 -253 565 -233 q 494 -272 524 -272 z "},"ǈ":{"ha":1219,"x_min":146,"x_max":1115,"o":"m 146 972 l 285 972 l 285 121 l 811 121 l 811 0 l 146 0 l 146 972 m 857 -278 q 767 -267 808 -278 q 697 -233 725 -256 l 740 -131 q 849 -165 782 -165 q 930 -133 901 -165 q 958 -36 958 -100 l 958 736 l 1092 736 l 1092 -33 q 1031 -212 1092 -147 q 857 -278 969 -278 m 1025 878 q 960 903 986 878 q 935 964 935 928 q 960 1026 935 1000 q 1025 1051 986 1051 q 1090 1027 1064 1051 q 1115 967 1115 1003 q 1090 903 1115 929 q 1025 878 1064 878 z "},"Ḻ":{"ha":825,"x_min":146,"x_max":811,"o":"m 146 972 l 285 972 l 285 121 l 811 121 l 811 0 l 146 0 l 146 972 m 268 -157 l 721 -157 l 721 -242 l 268 -242 l 268 -157 z "},"Ł":{"ha":836,"x_min":13,"x_max":822,"o":"m 157 972 l 296 972 l 296 121 l 822 121 l 822 0 l 157 0 l 157 972 m 13 421 l 451 754 l 513 676 l 74 343 l 13 421 z "},"M":{"ha":1704,"x_min":146,"x_max":1565,"o":"m 1208 983 q 1471 886 1376 983 q 1565 604 1565 789 l 1565 0 l 1428 0 l 1428 600 q 1361 794 1428 728 q 1185 860 1294 860 q 994 791 1064 860 q 924 581 924 722 l 924 0 l 786 0 l 786 600 q 723 794 786 729 q 550 860 660 860 q 356 790 428 860 q 285 581 285 721 l 285 0 l 146 0 l 146 972 l 279 972 l 279 831 q 401 943 322 903 q 583 983 479 983 q 770 940 692 983 q 886 821 849 897 q 1016 941 932 899 q 1208 983 1100 983 z "},"Ṃ":{"ha":1704,"x_min":146,"x_max":1565,"o":"m 1208 983 q 1471 886 1376 983 q 1565 604 1565 789 l 1565 0 l 1428 0 l 1428 600 q 1361 794 1428 728 q 1185 860 1294 860 q 994 791 1064 860 q 924 581 924 722 l 924 0 l 786 0 l 786 600 q 723 794 786 729 q 550 860 660 860 q 356 790 428 860 q 285 581 285 721 l 285 0 l 146 0 l 146 972 l 279 972 l 279 831 q 401 943 322 903 q 583 983 479 983 q 770 940 692 983 q 886 821 849 897 q 1016 941 932 899 q 1208 983 1100 983 m 857 -272 q 807 -253 828 -272 q 786 -203 786 -233 q 807 -151 786 -172 q 857 -131 828 -131 q 907 -151 886 -131 q 928 -203 928 -172 q 907 -253 928 -233 q 857 -272 886 -272 z "},"N":{"ha":1108,"x_min":146,"x_max":971,"o":"m 599 983 q 872 878 774 983 q 971 576 971 772 l 971 0 l 833 0 l 833 572 q 764 787 833 714 q 571 860 694 860 q 361 782 438 860 q 285 551 285 704 l 285 0 l 146 0 l 146 972 l 279 972 l 279 835 q 599 983 378 983 z "},"Ǌ":{"ha":1818,"x_min":146,"x_max":1681,"o":"m 599 983 q 872 878 774 983 q 971 576 971 772 l 971 0 l 833 0 l 833 572 q 764 787 833 714 q 571 860 694 860 q 361 782 438 860 q 285 551 285 704 l 285 0 l 146 0 l 146 972 l 279 972 l 279 835 q 599 983 378 983 m 1375 -150 q 1216 -113 1289 -150 q 1096 -10 1143 -76 l 1174 85 q 1374 -31 1254 -31 q 1542 167 1542 -31 l 1542 851 l 1192 851 l 1192 972 l 1681 972 l 1681 174 q 1603 -69 1681 13 q 1375 -150 1526 -150 z "},"Ń":{"ha":1108,"x_min":146,"x_max":971,"o":"m 599 983 q 872 878 774 983 q 971 576 971 772 l 971 0 l 833 0 l 833 572 q 764 787 833 714 q 571 860 694 860 q 361 782 438 860 q 285 551 285 704 l 285 0 l 146 0 l 146 972 l 279 972 l 279 835 q 599 983 378 983 m 643 1232 l 813 1232 l 579 1051 l 454 1051 l 643 1232 z "},"Ň":{"ha":1108,"x_min":146,"x_max":971,"o":"m 599 983 q 872 878 774 983 q 971 576 971 772 l 971 0 l 833 0 l 833 572 q 764 787 833 714 q 571 860 694 860 q 361 782 438 860 q 285 551 285 704 l 285 0 l 146 0 l 146 972 l 279 972 l 279 835 q 599 983 378 983 m 807 1232 l 622 1051 l 494 1051 l 310 1232 l 431 1232 l 558 1126 l 686 1232 l 807 1232 z "},"Ņ":{"ha":1108,"x_min":146,"x_max":971,"o":"m 599 983 q 872 878 774 983 q 971 576 971 772 l 971 0 l 833 0 l 833 572 q 764 787 833 714 q 571 860 694 860 q 361 782 438 860 q 285 551 285 704 l 285 0 l 146 0 l 146 972 l 279 972 l 279 835 q 599 983 378 983 m 557 -131 q 608 -149 589 -131 q 628 -194 628 -167 q 610 -265 628 -228 l 568 -365 l 499 -365 l 531 -254 q 498 -232 510 -247 q 486 -194 486 -217 q 506 -149 486 -167 q 557 -131 525 -131 z "},"Ṅ":{"ha":1108,"x_min":146,"x_max":971,"o":"m 599 983 q 872 878 774 983 q 971 576 971 772 l 971 0 l 833 0 l 833 572 q 764 787 833 714 q 571 860 694 860 q 361 782 438 860 q 285 551 285 704 l 285 0 l 146 0 l 146 972 l 279 972 l 279 835 q 599 983 378 983 m 558 1076 q 500 1100 524 1076 q 476 1158 476 1124 q 500 1217 476 1193 q 558 1240 524 1240 q 617 1217 593 1240 q 640 1158 640 1193 q 617 1100 640 1124 q 558 1076 593 1076 z "},"Ṇ":{"ha":1108,"x_min":146,"x_max":971,"o":"m 599 983 q 872 878 774 983 q 971 576 971 772 l 971 0 l 833 0 l 833 572 q 764 787 833 714 q 571 860 694 860 q 361 782 438 860 q 285 551 285 704 l 285 0 l 146 0 l 146 972 l 279 972 l 279 835 q 599 983 378 983 m 557 -272 q 507 -253 528 -272 q 486 -203 486 -233 q 507 -151 486 -172 q 557 -131 528 -131 q 607 -151 586 -131 q 628 -203 628 -172 q 607 -253 628 -233 q 557 -272 586 -272 z "},"Ŋ":{"ha":1108,"x_min":146,"x_max":971,"o":"m 599 983 q 872 878 774 983 q 971 576 971 772 l 971 47 q 894 -197 971 -115 q 669 -278 818 -278 q 528 -249 594 -278 q 417 -168 463 -221 l 485 -64 q 668 -157 558 -157 q 833 43 833 -157 l 833 572 q 764 787 833 714 q 571 860 694 860 q 361 782 438 860 q 285 551 285 704 l 285 0 l 146 0 l 146 972 l 279 972 l 279 835 q 599 983 378 983 z "},"ǋ":{"ha":1503,"x_min":146,"x_max":1399,"o":"m 599 983 q 872 878 774 983 q 971 576 971 772 l 971 0 l 833 0 l 833 572 q 764 787 833 714 q 571 860 694 860 q 361 782 438 860 q 285 551 285 704 l 285 0 l 146 0 l 146 972 l 279 972 l 279 835 q 599 983 378 983 m 1140 -278 q 1050 -267 1092 -278 q 981 -233 1008 -256 l 1024 -131 q 1132 -165 1065 -165 q 1213 -133 1185 -165 q 1242 -36 1242 -100 l 1242 736 l 1375 736 l 1375 -33 q 1314 -212 1375 -147 q 1140 -278 1253 -278 m 1308 878 q 1244 903 1269 878 q 1218 964 1218 928 q 1244 1026 1218 1000 q 1308 1051 1269 1051 q 1373 1027 1347 1051 q 1399 967 1399 1003 q 1373 903 1399 929 q 1308 878 1347 878 z "},"Ṉ":{"ha":1108,"x_min":146,"x_max":971,"o":"m 599 983 q 872 878 774 983 q 971 576 971 772 l 971 0 l 833 0 l 833 572 q 764 787 833 714 q 571 860 694 860 q 361 782 438 860 q 285 551 285 704 l 285 0 l 146 0 l 146 972 l 279 972 l 279 835 q 599 983 378 983 m 331 -157 l 783 -157 l 783 -242 l 331 -242 l 331 -157 z "},"Ñ":{"ha":1108,"x_min":146,"x_max":971,"o":"m 599 983 q 872 878 774 983 q 971 576 971 772 l 971 0 l 833 0 l 833 572 q 764 787 833 714 q 571 860 694 860 q 361 782 438 860 q 285 551 285 704 l 285 0 l 146 0 l 146 972 l 279 972 l 279 835 q 599 983 378 983 m 656 1056 q 598 1069 622 1056 q 538 1111 574 1083 q 501 1140 517 1131 q 471 1149 486 1149 q 421 1126 440 1149 q 400 1063 401 1103 l 325 1063 q 365 1186 328 1140 q 461 1232 401 1232 q 520 1217 494 1232 q 579 1175 546 1203 q 617 1147 603 1156 q 646 1138 631 1138 q 696 1160 676 1138 q 717 1221 715 1182 l 792 1221 q 752 1101 789 1146 q 656 1056 715 1056 z "},"O":{"ha":1167,"x_min":67,"x_max":1100,"o":"m 585 -11 q 319 53 438 -11 q 134 232 201 118 q 67 486 67 346 q 134 740 67 626 q 319 919 201 854 q 585 983 438 983 q 849 919 731 983 q 1033 741 967 854 q 1100 486 1100 628 q 1033 231 1100 344 q 849 53 967 118 q 585 -11 731 -11 m 585 113 q 777 161 692 113 q 912 295 863 210 q 961 486 961 381 q 912 677 961 592 q 777 811 863 763 q 585 860 692 860 q 391 811 478 860 q 255 677 304 763 q 206 486 206 592 q 255 295 206 381 q 391 161 304 210 q 585 113 478 113 z "},"Ó":{"ha":1167,"x_min":67,"x_max":1100,"o":"m 585 -11 q 319 53 438 -11 q 134 232 201 118 q 67 486 67 346 q 134 740 67 626 q 319 919 201 854 q 585 983 438 983 q 849 919 731 983 q 1033 741 967 854 q 1100 486 1100 628 q 1033 231 1100 344 q 849 53 967 118 q 585 -11 731 -11 m 585 113 q 777 161 692 113 q 912 295 863 210 q 961 486 961 381 q 912 677 961 592 q 777 811 863 763 q 585 860 692 860 q 391 811 478 860 q 255 677 304 763 q 206 486 206 592 q 255 295 206 381 q 391 161 304 210 q 585 113 478 113 m 669 1232 l 839 1232 l 606 1051 l 481 1051 l 669 1232 z "},"Ŏ":{"ha":1167,"x_min":67,"x_max":1100,"o":"m 585 -11 q 319 53 438 -11 q 134 232 201 118 q 67 486 67 346 q 134 740 67 626 q 319 919 201 854 q 585 983 438 983 q 849 919 731 983 q 1033 741 967 854 q 1100 486 1100 628 q 1033 231 1100 344 q 849 53 967 118 q 585 -11 731 -11 m 585 113 q 777 161 692 113 q 912 295 863 210 q 961 486 961 381 q 912 677 961 592 q 777 811 863 763 q 585 860 692 860 q 391 811 478 860 q 255 677 304 763 q 206 486 206 592 q 255 295 206 381 q 391 161 304 210 q 585 113 478 113 m 585 1043 q 426 1094 489 1043 q 360 1232 363 1146 l 450 1232 q 490 1151 451 1182 q 585 1121 528 1121 q 680 1151 642 1121 q 719 1232 718 1182 l 810 1232 q 744 1094 807 1146 q 585 1043 681 1043 z "},"Ô":{"ha":1167,"x_min":67,"x_max":1100,"o":"m 585 -11 q 319 53 438 -11 q 134 232 201 118 q 67 486 67 346 q 134 740 67 626 q 319 919 201 854 q 585 983 438 983 q 849 919 731 983 q 1033 741 967 854 q 1100 486 1100 628 q 1033 231 1100 344 q 849 53 967 118 q 585 -11 731 -11 m 585 113 q 777 161 692 113 q 912 295 863 210 q 961 486 961 381 q 912 677 961 592 q 777 811 863 763 q 585 860 692 860 q 391 811 478 860 q 255 677 304 763 q 206 486 206 592 q 255 295 206 381 q 391 161 304 210 q 585 113 478 113 m 713 1051 l 585 1158 l 457 1051 l 336 1051 l 521 1232 l 649 1232 l 833 1051 l 713 1051 z "},"Ố":{"ha":1167,"x_min":67,"x_max":1100,"o":"m 585 -11 q 319 53 438 -11 q 134 232 201 118 q 67 486 67 346 q 134 740 67 626 q 319 919 201 854 q 585 983 438 983 q 849 919 731 983 q 1033 741 967 854 q 1100 486 1100 628 q 1033 231 1100 344 q 849 53 967 118 q 585 -11 731 -11 m 585 113 q 777 161 692 113 q 912 295 863 210 q 961 486 961 381 q 912 677 961 592 q 777 811 863 763 q 585 860 692 860 q 391 811 478 860 q 255 677 304 763 q 206 486 206 592 q 255 295 206 381 q 391 161 304 210 q 585 113 478 113 m 711 1051 l 585 1129 l 458 1051 l 336 1051 l 522 1190 l 647 1190 l 833 1051 l 711 1051 m 886 1331 l 1038 1331 l 832 1174 l 722 1174 l 886 1331 z "},"Ộ":{"ha":1167,"x_min":67,"x_max":1100,"o":"m 585 -11 q 319 53 438 -11 q 134 232 201 118 q 67 486 67 346 q 134 740 67 626 q 319 919 201 854 q 585 983 438 983 q 849 919 731 983 q 1033 741 967 854 q 1100 486 1100 628 q 1033 231 1100 344 q 849 53 967 118 q 585 -11 731 -11 m 585 113 q 777 161 692 113 q 912 295 863 210 q 961 486 961 381 q 912 677 961 592 q 777 811 863 763 q 585 860 692 860 q 391 811 478 860 q 255 677 304 763 q 206 486 206 592 q 255 295 206 381 q 391 161 304 210 q 585 113 478 113 m 585 -272 q 535 -253 556 -272 q 514 -203 514 -233 q 535 -151 514 -172 q 585 -131 556 -131 q 635 -151 614 -131 q 656 -203 656 -172 q 635 -253 656 -233 q 585 -272 614 -272 m 713 1051 l 585 1158 l 457 1051 l 336 1051 l 521 1232 l 649 1232 l 833 1051 l 713 1051 z "},"Ồ":{"ha":1167,"x_min":67,"x_max":1100,"o":"m 585 -11 q 319 53 438 -11 q 134 232 201 118 q 67 486 67 346 q 134 740 67 626 q 319 919 201 854 q 585 983 438 983 q 849 919 731 983 q 1033 741 967 854 q 1100 486 1100 628 q 1033 231 1100 344 q 849 53 967 118 q 585 -11 731 -11 m 585 113 q 777 161 692 113 q 912 295 863 210 q 961 486 961 381 q 912 677 961 592 q 777 811 863 763 q 585 860 692 860 q 391 811 478 860 q 255 677 304 763 q 206 486 206 592 q 255 295 206 381 q 391 161 304 210 q 585 113 478 113 m 711 1051 l 585 1129 l 458 1051 l 336 1051 l 522 1190 l 647 1190 l 833 1051 l 711 1051 m 600 1331 l 751 1331 l 914 1174 l 806 1174 l 600 1331 z "},"Ổ":{"ha":1167,"x_min":67,"x_max":1100,"o":"m 585 -11 q 319 53 438 -11 q 134 232 201 118 q 67 486 67 346 q 134 740 67 626 q 319 919 201 854 q 585 983 438 983 q 849 919 731 983 q 1033 741 967 854 q 1100 486 1100 628 q 1033 231 1100 344 q 849 53 967 118 q 585 -11 731 -11 m 585 113 q 777 161 692 113 q 912 295 863 210 q 961 486 961 381 q 912 677 961 592 q 777 811 863 763 q 585 860 692 860 q 391 811 478 860 q 255 677 304 763 q 206 486 206 592 q 255 295 206 381 q 391 161 304 210 q 585 113 478 113 m 711 1051 l 585 1129 l 458 1051 l 336 1051 l 522 1190 l 647 1190 l 833 1051 l 711 1051 m 751 1189 q 793 1219 779 1201 q 807 1256 807 1238 q 792 1287 807 1275 q 754 1299 778 1299 q 694 1282 724 1299 l 669 1333 q 765 1360 711 1360 q 844 1333 815 1360 q 874 1263 874 1306 q 850 1195 874 1225 q 788 1149 826 1165 l 751 1189 z "},"Ỗ":{"ha":1167,"x_min":67,"x_max":1100,"o":"m 585 -11 q 319 53 438 -11 q 134 232 201 118 q 67 486 67 346 q 134 740 67 626 q 319 919 201 854 q 585 983 438 983 q 849 919 731 983 q 1033 741 967 854 q 1100 486 1100 628 q 1033 231 1100 344 q 849 53 967 118 q 585 -11 731 -11 m 585 113 q 777 161 692 113 q 912 295 863 210 q 961 486 961 381 q 912 677 961 592 q 777 811 863 763 q 585 860 692 860 q 391 811 478 860 q 255 677 304 763 q 206 486 206 592 q 255 295 206 381 q 391 161 304 210 q 585 113 478 113 m 711 1051 l 585 1129 l 458 1051 l 336 1051 l 522 1190 l 647 1190 l 833 1051 l 711 1051 m 682 1238 q 622 1249 647 1238 q 563 1282 596 1260 q 494 1313 519 1313 q 431 1243 433 1313 l 356 1243 q 392 1348 357 1310 q 489 1386 428 1386 q 547 1375 521 1386 q 606 1342 572 1364 q 644 1319 629 1326 q 676 1311 660 1311 q 723 1329 707 1311 q 740 1379 739 1347 l 814 1379 q 777 1276 813 1314 q 682 1238 742 1238 z "},"Ȍ":{"ha":1167,"x_min":67,"x_max":1100,"o":"m 585 -11 q 319 53 438 -11 q 134 232 201 118 q 67 486 67 346 q 134 740 67 626 q 319 919 201 854 q 585 983 438 983 q 849 919 731 983 q 1033 741 967 854 q 1100 486 1100 628 q 1033 231 1100 344 q 849 53 967 118 q 585 -11 731 -11 m 585 113 q 777 161 692 113 q 912 295 863 210 q 961 486 961 381 q 912 677 961 592 q 777 811 863 763 q 585 860 692 860 q 391 811 478 860 q 255 677 304 763 q 206 486 206 592 q 255 295 206 381 q 391 161 304 210 q 585 113 478 113 m 256 1232 l 396 1232 l 519 1051 l 407 1051 l 256 1232 m 496 1232 l 638 1232 l 763 1051 l 650 1051 l 496 1232 z "},"Ö":{"ha":1167,"x_min":67,"x_max":1100,"o":"m 585 -11 q 319 53 438 -11 q 134 232 201 118 q 67 486 67 346 q 134 740 67 626 q 319 919 201 854 q 585 983 438 983 q 849 919 731 983 q 1033 741 967 854 q 1100 486 1100 628 q 1033 231 1100 344 q 849 53 967 118 q 585 -11 731 -11 m 585 113 q 777 161 692 113 q 912 295 863 210 q 961 486 961 381 q 912 677 961 592 q 777 811 863 763 q 585 860 692 860 q 391 811 478 860 q 255 677 304 763 q 206 486 206 592 q 255 295 206 381 q 391 161 304 210 q 585 113 478 113 m 456 1075 q 406 1095 426 1075 q 385 1146 385 1115 q 406 1197 385 1176 q 456 1218 426 1218 q 506 1197 485 1218 q 526 1146 526 1176 q 506 1095 526 1115 q 456 1075 485 1075 m 714 1075 q 664 1095 685 1075 q 643 1146 643 1115 q 664 1197 643 1176 q 714 1218 685 1218 q 764 1197 743 1218 q 785 1146 785 1176 q 764 1095 785 1115 q 714 1075 743 1075 z "},"Ȫ":{"ha":1167,"x_min":67,"x_max":1100,"o":"m 585 -11 q 319 53 438 -11 q 134 232 201 118 q 67 486 67 346 q 134 740 67 626 q 319 919 201 854 q 585 983 438 983 q 849 919 731 983 q 1033 741 967 854 q 1100 486 1100 628 q 1033 231 1100 344 q 849 53 967 118 q 585 -11 731 -11 m 585 113 q 777 161 692 113 q 912 295 863 210 q 961 486 961 381 q 912 677 961 592 q 777 811 863 763 q 585 860 692 860 q 391 811 478 860 q 255 677 304 763 q 206 486 206 592 q 255 295 206 381 q 391 161 304 210 q 585 113 478 113 m 460 1075 q 410 1094 431 1075 q 390 1144 390 1114 q 410 1193 390 1174 q 460 1213 431 1213 q 508 1193 488 1213 q 528 1144 528 1174 q 508 1095 528 1115 q 460 1075 488 1075 m 711 1075 q 663 1095 683 1075 q 643 1144 643 1115 q 663 1193 643 1174 q 711 1213 683 1213 q 760 1193 740 1213 q 781 1144 781 1174 q 760 1095 781 1115 q 711 1075 740 1075 m 358 1358 l 811 1358 l 811 1279 l 358 1279 l 358 1358 z "},"Ȱ":{"ha":1167,"x_min":67,"x_max":1100,"o":"m 585 -11 q 319 53 438 -11 q 134 232 201 118 q 67 486 67 346 q 134 740 67 626 q 319 919 201 854 q 585 983 438 983 q 849 919 731 983 q 1033 741 967 854 q 1100 486 1100 628 q 1033 231 1100 344 q 849 53 967 118 q 585 -11 731 -11 m 585 113 q 777 161 692 113 q 912 295 863 210 q 961 486 961 381 q 912 677 961 592 q 777 811 863 763 q 585 860 692 860 q 391 811 478 860 q 255 677 304 763 q 206 486 206 592 q 255 295 206 381 q 391 161 304 210 q 585 113 478 113 m 585 1074 q 535 1094 556 1074 q 514 1146 514 1115 q 535 1197 514 1176 q 585 1217 556 1217 q 635 1197 614 1217 q 656 1146 656 1176 q 635 1094 656 1115 q 585 1074 614 1074 m 358 1363 l 811 1363 l 811 1283 l 358 1283 l 358 1363 z "},"Ọ":{"ha":1167,"x_min":67,"x_max":1100,"o":"m 585 -11 q 319 53 438 -11 q 134 232 201 118 q 67 486 67 346 q 134 740 67 626 q 319 919 201 854 q 585 983 438 983 q 849 919 731 983 q 1033 741 967 854 q 1100 486 1100 628 q 1033 231 1100 344 q 849 53 967 118 q 585 -11 731 -11 m 585 113 q 777 161 692 113 q 912 295 863 210 q 961 486 961 381 q 912 677 961 592 q 777 811 863 763 q 585 860 692 860 q 391 811 478 860 q 255 677 304 763 q 206 486 206 592 q 255 295 206 381 q 391 161 304 210 q 585 113 478 113 m 585 -272 q 535 -253 556 -272 q 514 -203 514 -233 q 535 -151 514 -172 q 585 -131 556 -131 q 635 -151 614 -131 q 656 -203 656 -172 q 635 -253 656 -233 q 585 -272 614 -272 z "},"Ò":{"ha":1167,"x_min":67,"x_max":1100,"o":"m 585 -11 q 319 53 438 -11 q 134 232 201 118 q 67 486 67 346 q 134 740 67 626 q 319 919 201 854 q 585 983 438 983 q 849 919 731 983 q 1033 741 967 854 q 1100 486 1100 628 q 1033 231 1100 344 q 849 53 967 118 q 585 -11 731 -11 m 585 113 q 777 161 692 113 q 912 295 863 210 q 961 486 961 381 q 912 677 961 592 q 777 811 863 763 q 585 860 692 860 q 391 811 478 860 q 255 677 304 763 q 206 486 206 592 q 255 295 206 381 q 391 161 304 210 q 585 113 478 113 m 331 1232 l 500 1232 l 689 1051 l 564 1051 l 331 1232 z "},"Ỏ":{"ha":1167,"x_min":67,"x_max":1100,"o":"m 585 -11 q 319 53 438 -11 q 134 232 201 118 q 67 486 67 346 q 134 740 67 626 q 319 919 201 854 q 585 983 438 983 q 849 919 731 983 q 1033 741 967 854 q 1100 486 1100 628 q 1033 231 1100 344 q 849 53 967 118 q 585 -11 731 -11 m 585 113 q 777 161 692 113 q 912 295 863 210 q 961 486 961 381 q 912 677 961 592 q 777 811 863 763 q 585 860 692 860 q 391 811 478 860 q 255 677 304 763 q 206 486 206 592 q 255 295 206 381 q 391 161 304 210 q 585 113 478 113 m 565 1093 q 624 1134 606 1111 q 643 1186 643 1157 q 623 1233 643 1214 q 571 1251 603 1251 q 488 1225 528 1251 l 457 1288 q 515 1317 482 1307 q 583 1326 549 1326 q 685 1291 646 1326 q 725 1197 725 1256 q 611 1039 725 1092 l 565 1093 z "},"Ơ":{"ha":1167,"x_min":67,"x_max":1100,"o":"m 906 881 q 1048 712 996 815 q 1100 486 1100 608 q 1033 231 1100 344 q 849 53 967 118 q 585 -11 731 -11 q 319 53 438 -11 q 134 232 201 118 q 67 486 67 346 q 134 741 67 628 q 321 919 201 854 q 589 983 440 983 q 744 972 653 983 q 856 964 822 964 q 953 990 919 964 q 988 1065 988 1015 q 960 1151 988 1108 l 1043 1185 q 1082 1060 1082 1128 q 1036 937 1082 983 q 906 881 990 890 m 585 113 q 776 161 690 113 q 912 295 863 210 q 961 486 961 381 q 912 677 961 592 q 776 811 863 763 q 585 860 690 860 q 391 811 478 860 q 255 677 304 763 q 206 486 206 592 q 255 295 206 381 q 391 161 304 210 q 585 113 478 113 z "},"Ớ":{"ha":1167,"x_min":67,"x_max":1100,"o":"m 906 881 q 1048 712 996 815 q 1100 486 1100 608 q 1033 231 1100 344 q 849 53 967 118 q 585 -11 731 -11 q 319 53 438 -11 q 134 232 201 118 q 67 486 67 346 q 134 741 67 628 q 321 919 201 854 q 589 983 440 983 q 744 972 653 983 q 856 964 822 964 q 953 990 919 964 q 988 1065 988 1015 q 960 1151 988 1108 l 1043 1185 q 1082 1060 1082 1128 q 1036 937 1082 983 q 906 881 990 890 m 585 113 q 776 161 690 113 q 912 295 863 210 q 961 486 961 381 q 912 677 961 592 q 776 811 863 763 q 585 860 690 860 q 391 811 478 860 q 255 677 304 763 q 206 486 206 592 q 255 295 206 381 q 391 161 304 210 q 585 113 478 113 m 669 1232 l 839 1232 l 606 1051 l 481 1051 l 669 1232 z "},"Ợ":{"ha":1167,"x_min":67,"x_max":1100,"o":"m 906 881 q 1048 712 996 815 q 1100 486 1100 608 q 1033 231 1100 344 q 849 53 967 118 q 585 -11 731 -11 q 319 53 438 -11 q 134 232 201 118 q 67 486 67 346 q 134 741 67 628 q 321 919 201 854 q 589 983 440 983 q 744 972 653 983 q 856 964 822 964 q 953 990 919 964 q 988 1065 988 1015 q 960 1151 988 1108 l 1043 1185 q 1082 1060 1082 1128 q 1036 937 1082 983 q 906 881 990 890 m 585 113 q 776 161 690 113 q 912 295 863 210 q 961 486 961 381 q 912 677 961 592 q 776 811 863 763 q 585 860 690 860 q 391 811 478 860 q 255 677 304 763 q 206 486 206 592 q 255 295 206 381 q 391 161 304 210 q 585 113 478 113 m 585 -272 q 535 -253 556 -272 q 514 -203 514 -233 q 535 -151 514 -172 q 585 -131 556 -131 q 635 -151 614 -131 q 656 -203 656 -172 q 635 -253 656 -233 q 585 -272 614 -272 z "},"Ờ":{"ha":1167,"x_min":67,"x_max":1100,"o":"m 906 881 q 1048 712 996 815 q 1100 486 1100 608 q 1033 231 1100 344 q 849 53 967 118 q 585 -11 731 -11 q 319 53 438 -11 q 134 232 201 118 q 67 486 67 346 q 134 741 67 628 q 321 919 201 854 q 589 983 440 983 q 744 972 653 983 q 856 964 822 964 q 953 990 919 964 q 988 1065 988 1015 q 960 1151 988 1108 l 1043 1185 q 1082 1060 1082 1128 q 1036 937 1082 983 q 906 881 990 890 m 585 113 q 776 161 690 113 q 912 295 863 210 q 961 486 961 381 q 912 677 961 592 q 776 811 863 763 q 585 860 690 860 q 391 811 478 860 q 255 677 304 763 q 206 486 206 592 q 255 295 206 381 q 391 161 304 210 q 585 113 478 113 m 331 1232 l 500 1232 l 689 1051 l 564 1051 l 331 1232 z "},"Ở":{"ha":1167,"x_min":67,"x_max":1100,"o":"m 906 881 q 1048 712 996 815 q 1100 486 1100 608 q 1033 231 1100 344 q 849 53 967 118 q 585 -11 731 -11 q 319 53 438 -11 q 134 232 201 118 q 67 486 67 346 q 134 741 67 628 q 321 919 201 854 q 589 983 440 983 q 744 972 653 983 q 856 964 822 964 q 953 990 919 964 q 988 1065 988 1015 q 960 1151 988 1108 l 1043 1185 q 1082 1060 1082 1128 q 1036 937 1082 983 q 906 881 990 890 m 585 113 q 776 161 690 113 q 912 295 863 210 q 961 486 961 381 q 912 677 961 592 q 776 811 863 763 q 585 860 690 860 q 391 811 478 860 q 255 677 304 763 q 206 486 206 592 q 255 295 206 381 q 391 161 304 210 q 585 113 478 113 m 565 1093 q 624 1134 606 1111 q 643 1186 643 1157 q 623 1233 643 1214 q 571 1251 603 1251 q 488 1225 528 1251 l 457 1288 q 515 1317 482 1307 q 583 1326 549 1326 q 685 1291 646 1326 q 725 1197 725 1256 q 611 1039 725 1092 l 565 1093 z "},"Ỡ":{"ha":1167,"x_min":67,"x_max":1100,"o":"m 906 881 q 1048 712 996 815 q 1100 486 1100 608 q 1033 231 1100 344 q 849 53 967 118 q 585 -11 731 -11 q 319 53 438 -11 q 134 232 201 118 q 67 486 67 346 q 134 741 67 628 q 321 919 201 854 q 589 983 440 983 q 744 972 653 983 q 856 964 822 964 q 953 990 919 964 q 988 1065 988 1015 q 960 1151 988 1108 l 1043 1185 q 1082 1060 1082 1128 q 1036 937 1082 983 q 906 881 990 890 m 585 113 q 776 161 690 113 q 912 295 863 210 q 961 486 961 381 q 912 677 961 592 q 776 811 863 763 q 585 860 690 860 q 391 811 478 860 q 255 677 304 763 q 206 486 206 592 q 255 295 206 381 q 391 161 304 210 q 585 113 478 113 m 682 1056 q 624 1069 649 1056 q 564 1111 600 1083 q 528 1140 543 1131 q 497 1149 513 1149 q 447 1126 467 1149 q 426 1063 428 1103 l 351 1063 q 391 1186 354 1140 q 488 1232 428 1232 q 547 1217 521 1232 q 606 1175 572 1203 q 643 1147 629 1156 q 672 1138 657 1138 q 722 1160 703 1138 q 743 1221 742 1182 l 818 1221 q 778 1101 815 1146 q 682 1056 742 1056 z "},"Ő":{"ha":1167,"x_min":67,"x_max":1100,"o":"m 585 -11 q 319 53 438 -11 q 134 232 201 118 q 67 486 67 346 q 134 740 67 626 q 319 919 201 854 q 585 983 438 983 q 849 919 731 983 q 1033 741 967 854 q 1100 486 1100 628 q 1033 231 1100 344 q 849 53 967 118 q 585 -11 731 -11 m 585 113 q 777 161 692 113 q 912 295 863 210 q 961 486 961 381 q 912 677 961 592 q 777 811 863 763 q 585 860 692 860 q 391 811 478 860 q 255 677 304 763 q 206 486 206 592 q 255 295 206 381 q 391 161 304 210 q 585 113 478 113 m 532 1232 l 674 1232 l 519 1051 l 407 1051 l 532 1232 m 774 1232 l 914 1232 l 763 1051 l 650 1051 l 774 1232 z "},"Ȏ":{"ha":1167,"x_min":67,"x_max":1100,"o":"m 585 -11 q 319 53 438 -11 q 134 232 201 118 q 67 486 67 346 q 134 740 67 626 q 319 919 201 854 q 585 983 438 983 q 849 919 731 983 q 1033 741 967 854 q 1100 486 1100 628 q 1033 231 1100 344 q 849 53 967 118 q 585 -11 731 -11 m 585 113 q 777 161 692 113 q 912 295 863 210 q 961 486 961 381 q 912 677 961 592 q 777 811 863 763 q 585 860 692 860 q 391 811 478 860 q 255 677 304 763 q 206 486 206 592 q 255 295 206 381 q 391 161 304 210 q 585 113 478 113 m 360 1051 q 426 1189 363 1138 q 585 1240 489 1240 q 744 1189 681 1240 q 810 1051 807 1138 l 719 1051 q 680 1133 718 1103 q 585 1163 642 1163 q 490 1133 528 1163 q 450 1051 451 1103 l 360 1051 z "},"Ō":{"ha":1167,"x_min":67,"x_max":1100,"o":"m 585 -11 q 319 53 438 -11 q 134 232 201 118 q 67 486 67 346 q 134 740 67 626 q 319 919 201 854 q 585 983 438 983 q 849 919 731 983 q 1033 741 967 854 q 1100 486 1100 628 q 1033 231 1100 344 q 849 53 967 118 q 585 -11 731 -11 m 585 113 q 777 161 692 113 q 912 295 863 210 q 961 486 961 381 q 912 677 961 592 q 777 811 863 763 q 585 860 692 860 q 391 811 478 860 q 255 677 304 763 q 206 486 206 592 q 255 295 206 381 q 391 161 304 210 q 585 113 478 113 m 358 1183 l 811 1183 l 811 1100 l 358 1100 l 358 1183 z "},"Ṓ":{"ha":1167,"x_min":67,"x_max":1100,"o":"m 585 -11 q 319 53 438 -11 q 134 232 201 118 q 67 486 67 346 q 134 740 67 626 q 319 919 201 854 q 585 983 438 983 q 849 919 731 983 q 1033 741 967 854 q 1100 486 1100 628 q 1033 231 1100 344 q 849 53 967 118 q 585 -11 731 -11 m 585 113 q 777 161 692 113 q 912 295 863 210 q 961 486 961 381 q 912 677 961 592 q 777 811 863 763 q 585 860 692 860 q 391 811 478 860 q 255 677 304 763 q 206 486 206 592 q 255 295 206 381 q 391 161 304 210 q 585 113 478 113 m 358 1161 l 811 1161 l 811 1082 l 358 1082 l 358 1161 m 653 1406 l 804 1406 l 599 1249 l 489 1249 l 653 1406 z "},"Ṑ":{"ha":1167,"x_min":67,"x_max":1100,"o":"m 585 -11 q 319 53 438 -11 q 134 232 201 118 q 67 486 67 346 q 134 740 67 626 q 319 919 201 854 q 585 983 438 983 q 849 919 731 983 q 1033 741 967 854 q 1100 486 1100 628 q 1033 231 1100 344 q 849 53 967 118 q 585 -11 731 -11 m 585 113 q 777 161 692 113 q 912 295 863 210 q 961 486 961 381 q 912 677 961 592 q 777 811 863 763 q 585 860 692 860 q 391 811 478 860 q 255 677 304 763 q 206 486 206 592 q 255 295 206 381 q 391 161 304 210 q 585 113 478 113 m 358 1161 l 811 1161 l 811 1082 l 358 1082 l 358 1161 m 367 1406 l 518 1406 l 681 1249 l 572 1249 l 367 1406 z "},"Ǫ":{"ha":1167,"x_min":67,"x_max":1100,"o":"m 585 983 q 849 919 731 983 q 1033 741 967 854 q 1100 486 1100 628 q 1051 266 1100 365 q 917 101 1001 167 q 728 8 833 35 q 579 -62 635 -17 q 524 -161 524 -107 q 547 -214 524 -194 q 610 -233 571 -233 q 694 -210 660 -233 l 721 -278 q 596 -311 668 -311 q 474 -273 518 -311 q 429 -171 429 -235 q 453 -86 429 -128 q 526 -8 476 -44 q 290 71 394 4 q 126 246 185 138 q 67 486 67 354 q 134 741 67 628 q 319 919 201 854 q 585 983 438 983 m 585 113 q 777 161 692 113 q 912 295 863 210 q 961 486 961 381 q 912 677 961 592 q 777 811 863 763 q 585 860 692 860 q 391 811 478 860 q 255 677 304 763 q 206 486 206 592 q 255 295 206 381 q 391 161 304 210 q 585 113 478 113 z "},"Ø":{"ha":1167,"x_min":67,"x_max":1100,"o":"m 585 -11 q 319 53 438 -11 q 134 232 201 118 q 67 486 67 346 q 134 740 67 626 q 319 919 201 854 q 585 983 438 983 q 849 919 731 983 q 1033 741 967 854 q 1100 486 1100 628 q 1033 231 1100 344 q 849 53 967 118 q 585 -11 731 -11 m 585 113 q 777 161 692 113 q 912 295 863 210 q 961 486 961 381 q 912 677 961 592 q 777 811 863 763 q 585 860 692 860 q 391 811 478 860 q 255 677 304 763 q 206 486 206 592 q 255 295 206 381 q 391 161 304 210 q 585 113 478 113 m 949 1069 l 1057 1069 l 221 -97 l 113 -97 l 949 1069 z "},"Ǿ":{"ha":1167,"x_min":67,"x_max":1100,"o":"m 585 -11 q 319 53 438 -11 q 134 232 201 118 q 67 486 67 346 q 134 740 67 626 q 319 919 201 854 q 585 983 438 983 q 849 919 731 983 q 1033 741 967 854 q 1100 486 1100 628 q 1033 231 1100 344 q 849 53 967 118 q 585 -11 731 -11 m 585 113 q 777 161 692 113 q 912 295 863 210 q 961 486 961 381 q 912 677 961 592 q 777 811 863 763 q 585 860 692 860 q 391 811 478 860 q 255 677 304 763 q 206 486 206 592 q 255 295 206 381 q 391 161 304 210 q 585 113 478 113 m 949 1069 l 1057 1069 l 221 -97 l 113 -97 l 949 1069 m 669 1232 l 839 1232 l 606 1051 l 481 1051 l 669 1232 z "},"Õ":{"ha":1167,"x_min":67,"x_max":1100,"o":"m 585 -11 q 319 53 438 -11 q 134 232 201 118 q 67 486 67 346 q 134 740 67 626 q 319 919 201 854 q 585 983 438 983 q 849 919 731 983 q 1033 741 967 854 q 1100 486 1100 628 q 1033 231 1100 344 q 849 53 967 118 q 585 -11 731 -11 m 585 113 q 777 161 692 113 q 912 295 863 210 q 961 486 961 381 q 912 677 961 592 q 777 811 863 763 q 585 860 692 860 q 391 811 478 860 q 255 677 304 763 q 206 486 206 592 q 255 295 206 381 q 391 161 304 210 q 585 113 478 113 m 682 1056 q 624 1069 649 1056 q 564 1111 600 1083 q 528 1140 543 1131 q 497 1149 513 1149 q 447 1126 467 1149 q 426 1063 428 1103 l 351 1063 q 391 1186 354 1140 q 488 1232 428 1232 q 547 1217 521 1232 q 606 1175 572 1203 q 643 1147 629 1156 q 672 1138 657 1138 q 722 1160 703 1138 q 743 1221 742 1182 l 818 1221 q 778 1101 815 1146 q 682 1056 742 1056 z "},"Ṍ":{"ha":1167,"x_min":67,"x_max":1100,"o":"m 585 -11 q 319 53 438 -11 q 134 232 201 118 q 67 486 67 346 q 134 740 67 626 q 319 919 201 854 q 585 983 438 983 q 849 919 731 983 q 1033 741 967 854 q 1100 486 1100 628 q 1033 231 1100 344 q 849 53 967 118 q 585 -11 731 -11 m 585 113 q 777 161 692 113 q 912 295 863 210 q 961 486 961 381 q 912 677 961 592 q 777 811 863 763 q 585 860 692 860 q 391 811 478 860 q 255 677 304 763 q 206 486 206 592 q 255 295 206 381 q 391 161 304 210 q 585 113 478 113 m 682 1058 q 622 1069 647 1058 q 563 1103 596 1081 q 494 1133 519 1133 q 431 1064 433 1133 l 356 1064 q 392 1169 357 1131 q 489 1207 428 1207 q 547 1196 521 1207 q 606 1163 572 1185 q 644 1140 629 1147 q 676 1132 660 1132 q 723 1150 707 1132 q 740 1200 739 1168 l 814 1200 q 777 1097 813 1135 q 682 1058 742 1058 m 653 1406 l 804 1406 l 599 1249 l 489 1249 l 653 1406 z "},"Ṏ":{"ha":1167,"x_min":67,"x_max":1100,"o":"m 585 -11 q 319 53 438 -11 q 134 232 201 118 q 67 486 67 346 q 134 740 67 626 q 319 919 201 854 q 585 983 438 983 q 849 919 731 983 q 1033 741 967 854 q 1100 486 1100 628 q 1033 231 1100 344 q 849 53 967 118 q 585 -11 731 -11 m 585 113 q 777 161 692 113 q 912 295 863 210 q 961 486 961 381 q 912 677 961 592 q 777 811 863 763 q 585 860 692 860 q 391 811 478 860 q 255 677 304 763 q 206 486 206 592 q 255 295 206 381 q 391 161 304 210 q 585 113 478 113 m 682 1058 q 622 1069 647 1058 q 563 1103 596 1081 q 494 1133 519 1133 q 431 1064 433 1133 l 356 1064 q 392 1169 357 1131 q 489 1207 428 1207 q 547 1196 521 1207 q 606 1163 572 1185 q 644 1140 629 1147 q 676 1132 660 1132 q 723 1150 707 1132 q 740 1200 739 1168 l 814 1200 q 777 1097 813 1135 q 682 1058 742 1058 m 460 1272 q 410 1292 431 1272 q 390 1342 390 1311 q 410 1390 390 1371 q 460 1410 431 1410 q 508 1390 488 1410 q 528 1342 528 1371 q 508 1292 528 1313 q 460 1272 488 1272 m 711 1272 q 663 1292 683 1272 q 643 1342 643 1313 q 663 1390 643 1371 q 711 1410 683 1410 q 760 1390 740 1410 q 781 1342 781 1371 q 760 1292 781 1313 q 711 1272 740 1272 z "},"Ȭ":{"ha":1167,"x_min":67,"x_max":1100,"o":"m 585 -11 q 319 53 438 -11 q 134 232 201 118 q 67 486 67 346 q 134 740 67 626 q 319 919 201 854 q 585 983 438 983 q 849 919 731 983 q 1033 741 967 854 q 1100 486 1100 628 q 1033 231 1100 344 q 849 53 967 118 q 585 -11 731 -11 m 585 113 q 777 161 692 113 q 912 295 863 210 q 961 486 961 381 q 912 677 961 592 q 777 811 863 763 q 585 860 692 860 q 391 811 478 860 q 255 677 304 763 q 206 486 206 592 q 255 295 206 381 q 391 161 304 210 q 585 113 478 113 m 682 1058 q 622 1069 647 1058 q 563 1103 596 1081 q 494 1133 519 1133 q 431 1064 433 1133 l 356 1064 q 392 1169 357 1131 q 489 1207 428 1207 q 547 1196 521 1207 q 606 1163 572 1185 q 644 1140 629 1147 q 676 1132 660 1132 q 723 1150 707 1132 q 740 1200 739 1168 l 814 1200 q 777 1097 813 1135 q 682 1058 742 1058 m 358 1358 l 811 1358 l 811 1279 l 358 1279 l 358 1358 z "},"Œ":{"ha":1564,"x_min":67,"x_max":1485,"o":"m 1485 121 l 1485 0 l 592 0 q 318 61 438 0 q 133 233 199 122 q 67 485 67 343 q 133 739 67 628 q 318 911 199 850 q 592 972 438 972 l 1465 972 l 1465 851 l 917 851 l 917 553 l 1406 553 l 1406 435 l 917 435 l 917 121 l 1485 121 m 779 121 l 779 851 l 599 851 q 392 806 481 851 q 254 676 303 760 q 206 485 206 593 q 254 295 206 378 q 392 167 303 213 q 599 121 481 121 l 779 121 z "},"P":{"ha":1003,"x_min":146,"x_max":931,"o":"m 525 972 q 822 882 714 972 q 931 633 931 792 q 822 385 931 475 q 525 294 714 294 l 285 294 l 285 0 l 146 0 l 146 972 l 525 972 m 521 415 q 722 472 653 415 q 792 633 792 528 q 722 795 792 739 q 521 851 653 851 l 285 851 l 285 415 l 521 415 z "},"Þ":{"ha":1003,"x_min":146,"x_max":931,"o":"m 525 853 q 822 762 714 853 q 931 513 931 671 q 822 264 931 354 q 525 174 714 174 l 285 174 l 285 0 l 146 0 l 146 972 l 285 972 l 285 853 l 525 853 m 521 293 q 722 350 653 293 q 792 513 792 407 q 722 675 792 618 q 521 732 653 732 l 285 732 l 285 293 l 521 293 z "},"Q":{"ha":1167,"x_min":67,"x_max":1100,"o":"m 1100 486 q 1043 249 1100 356 q 884 74 986 142 q 653 -7 782 7 l 653 -187 l 514 -187 l 514 -7 q 282 76 383 8 q 124 250 181 143 q 67 486 67 357 q 134 740 67 626 q 319 919 201 854 q 585 983 438 983 q 849 919 731 983 q 1033 741 967 854 q 1100 486 1100 628 m 647 117 q 810 181 739 131 q 921 312 881 232 q 961 486 961 392 q 912 677 961 592 q 776 811 863 763 q 585 860 690 860 q 391 811 478 860 q 255 677 304 763 q 206 486 206 592 q 245 313 206 392 q 356 183 285 235 q 518 118 426 132 l 518 347 l 647 347 l 647 117 z "},"R":{"ha":1010,"x_min":146,"x_max":947,"o":"m 796 0 l 586 299 q 525 296 547 296 l 285 296 l 285 0 l 146 0 l 146 972 l 525 972 q 822 882 714 972 q 931 633 931 792 q 875 442 931 521 q 717 326 819 363 l 947 0 l 796 0 m 521 414 q 722 471 653 414 q 792 633 792 528 q 722 795 792 739 q 521 851 653 851 l 285 851 l 285 414 l 521 414 z "},"Ŕ":{"ha":1010,"x_min":146,"x_max":947,"o":"m 796 0 l 586 299 q 525 296 547 296 l 285 296 l 285 0 l 146 0 l 146 972 l 525 972 q 822 882 714 972 q 931 633 931 792 q 875 442 931 521 q 717 326 819 363 l 947 0 l 796 0 m 521 414 q 722 471 653 414 q 792 633 792 528 q 722 795 792 739 q 521 851 653 851 l 285 851 l 285 414 l 521 414 m 600 1232 l 769 1232 l 536 1051 l 411 1051 l 600 1232 z "},"Ř":{"ha":1010,"x_min":146,"x_max":947,"o":"m 796 0 l 586 299 q 525 296 547 296 l 285 296 l 285 0 l 146 0 l 146 972 l 525 972 q 822 882 714 972 q 931 633 931 792 q 875 442 931 521 q 717 326 819 363 l 947 0 l 796 0 m 521 414 q 722 471 653 414 q 792 633 792 528 q 722 795 792 739 q 521 851 653 851 l 285 851 l 285 414 l 521 414 m 764 1232 l 579 1051 l 451 1051 l 267 1232 l 388 1232 l 515 1126 l 643 1232 l 764 1232 z "},"Ŗ":{"ha":1010,"x_min":146,"x_max":947,"o":"m 796 0 l 586 299 q 525 296 547 296 l 285 296 l 285 0 l 146 0 l 146 972 l 525 972 q 822 882 714 972 q 931 633 931 792 q 875 442 931 521 q 717 326 819 363 l 947 0 l 796 0 m 521 414 q 722 471 653 414 q 792 633 792 528 q 722 795 792 739 q 521 851 653 851 l 285 851 l 285 414 l 521 414 m 515 -131 q 567 -149 547 -131 q 586 -194 586 -167 q 568 -265 586 -228 l 526 -365 l 457 -365 l 489 -254 q 456 -232 468 -247 q 444 -194 444 -217 q 464 -149 444 -167 q 515 -131 483 -131 z "},"Ȑ":{"ha":1010,"x_min":146,"x_max":947,"o":"m 796 0 l 586 299 q 525 296 547 296 l 285 296 l 285 0 l 146 0 l 146 972 l 525 972 q 822 882 714 972 q 931 633 931 792 q 875 442 931 521 q 717 326 819 363 l 947 0 l 796 0 m 521 414 q 722 471 653 414 q 792 633 792 528 q 722 795 792 739 q 521 851 653 851 l 285 851 l 285 414 l 521 414 m 186 1232 l 326 1232 l 450 1051 l 338 1051 l 186 1232 m 426 1232 l 568 1232 l 693 1051 l 581 1051 l 426 1232 z "},"Ṛ":{"ha":1010,"x_min":146,"x_max":947,"o":"m 796 0 l 586 299 q 525 296 547 296 l 285 296 l 285 0 l 146 0 l 146 972 l 525 972 q 822 882 714 972 q 931 633 931 792 q 875 442 931 521 q 717 326 819 363 l 947 0 l 796 0 m 521 414 q 722 471 653 414 q 792 633 792 528 q 722 795 792 739 q 521 851 653 851 l 285 851 l 285 414 l 521 414 m 515 -272 q 465 -253 486 -272 q 444 -203 444 -233 q 465 -151 444 -172 q 515 -131 486 -131 q 565 -151 544 -131 q 586 -203 586 -172 q 565 -253 586 -233 q 515 -272 544 -272 z "},"Ȓ":{"ha":1010,"x_min":146,"x_max":947,"o":"m 796 0 l 586 299 q 525 296 547 296 l 285 296 l 285 0 l 146 0 l 146 972 l 525 972 q 822 882 714 972 q 931 633 931 792 q 875 442 931 521 q 717 326 819 363 l 947 0 l 796 0 m 521 414 q 722 471 653 414 q 792 633 792 528 q 722 795 792 739 q 521 851 653 851 l 285 851 l 285 414 l 521 414 m 290 1051 q 356 1189 293 1138 q 515 1240 419 1240 q 674 1189 611 1240 q 740 1051 738 1138 l 650 1051 q 610 1133 649 1103 q 515 1163 572 1163 q 420 1133 458 1163 q 381 1051 382 1103 l 290 1051 z "},"Ṟ":{"ha":1010,"x_min":146,"x_max":947,"o":"m 796 0 l 586 299 q 525 296 547 296 l 285 296 l 285 0 l 146 0 l 146 972 l 525 972 q 822 882 714 972 q 931 633 931 792 q 875 442 931 521 q 717 326 819 363 l 947 0 l 796 0 m 521 414 q 722 471 653 414 q 792 633 792 528 q 722 795 792 739 q 521 851 653 851 l 285 851 l 285 414 l 521 414 m 289 -157 l 742 -157 l 742 -242 l 289 -242 l 289 -157 z "},"S":{"ha":863,"x_min":57,"x_max":806,"o":"m 429 -11 q 217 23 319 -11 q 57 111 115 57 l 108 219 q 251 138 164 169 q 429 107 338 107 q 610 148 550 107 q 669 257 669 189 q 637 338 669 307 q 556 386 604 369 q 421 424 508 403 q 244 476 311 450 q 128 558 176 503 q 81 706 81 613 q 122 846 81 783 q 246 946 163 908 q 453 983 329 983 q 622 961 539 983 q 765 897 706 939 l 719 786 q 589 845 658 825 q 453 865 519 865 q 276 822 335 865 q 217 711 217 779 q 250 630 217 661 q 333 581 283 599 q 467 544 382 564 q 643 492 576 518 q 758 411 710 465 q 806 265 806 357 q 764 126 806 189 q 638 26 722 63 q 429 -11 553 -11 z "},"Ś":{"ha":863,"x_min":57,"x_max":806,"o":"m 429 -11 q 217 23 319 -11 q 57 111 115 57 l 108 219 q 251 138 164 169 q 429 107 338 107 q 610 148 550 107 q 669 257 669 189 q 637 338 669 307 q 556 386 604 369 q 421 424 508 403 q 244 476 311 450 q 128 558 176 503 q 81 706 81 613 q 122 846 81 783 q 246 946 163 908 q 453 983 329 983 q 622 961 539 983 q 765 897 706 939 l 719 786 q 589 845 658 825 q 453 865 519 865 q 276 822 335 865 q 217 711 217 779 q 250 630 217 661 q 333 581 283 599 q 467 544 382 564 q 643 492 576 518 q 758 411 710 465 q 806 265 806 357 q 764 126 806 189 q 638 26 722 63 q 429 -11 553 -11 m 532 1232 l 701 1232 l 468 1051 l 343 1051 l 532 1232 z "},"Ṥ":{"ha":863,"x_min":57,"x_max":806,"o":"m 429 -11 q 217 23 319 -11 q 57 111 115 57 l 108 219 q 251 138 164 169 q 429 107 338 107 q 610 148 550 107 q 669 257 669 189 q 637 338 669 307 q 556 386 604 369 q 421 424 508 403 q 244 476 311 450 q 128 558 176 503 q 81 706 81 613 q 122 846 81 783 q 246 946 163 908 q 453 983 329 983 q 622 961 539 983 q 765 897 706 939 l 719 786 q 589 845 658 825 q 453 865 519 865 q 276 822 335 865 q 217 711 217 779 q 250 630 217 661 q 333 581 283 599 q 467 544 382 564 q 643 492 576 518 q 758 411 710 465 q 806 265 806 357 q 764 126 806 189 q 638 26 722 63 q 429 -11 553 -11 m 515 1208 l 667 1208 l 461 1051 l 351 1051 l 515 1208 m 447 1271 q 397 1292 418 1271 q 376 1343 376 1313 q 397 1394 376 1374 q 447 1414 418 1414 q 497 1394 476 1414 q 518 1343 518 1374 q 497 1292 518 1313 q 447 1271 476 1271 z "},"Ꞌ":{"ha":358,"x_min":111,"x_max":247,"o":"m 111 972 l 247 972 l 231 413 l 111 413 l 111 972 z "},"Š":{"ha":863,"x_min":57,"x_max":806,"o":"m 429 -11 q 217 23 319 -11 q 57 111 115 57 l 108 219 q 251 138 164 169 q 429 107 338 107 q 610 148 550 107 q 669 257 669 189 q 637 338 669 307 q 556 386 604 369 q 421 424 508 403 q 244 476 311 450 q 128 558 176 503 q 81 706 81 613 q 122 846 81 783 q 246 946 163 908 q 453 983 329 983 q 622 961 539 983 q 765 897 706 939 l 719 786 q 589 845 658 825 q 453 865 519 865 q 276 822 335 865 q 217 711 217 779 q 250 630 217 661 q 333 581 283 599 q 467 544 382 564 q 643 492 576 518 q 758 411 710 465 q 806 265 806 357 q 764 126 806 189 q 638 26 722 63 q 429 -11 553 -11 m 696 1232 l 511 1051 l 383 1051 l 199 1232 l 319 1232 l 447 1126 l 575 1232 l 696 1232 z "},"Ṧ":{"ha":863,"x_min":57,"x_max":806,"o":"m 429 -11 q 217 23 319 -11 q 57 111 115 57 l 108 219 q 251 138 164 169 q 429 107 338 107 q 610 148 550 107 q 669 257 669 189 q 637 338 669 307 q 556 386 604 369 q 421 424 508 403 q 244 476 311 450 q 128 558 176 503 q 81 706 81 613 q 122 846 81 783 q 246 946 163 908 q 453 983 329 983 q 622 961 539 983 q 765 897 706 939 l 719 786 q 589 845 658 825 q 453 865 519 865 q 276 822 335 865 q 217 711 217 779 q 250 630 217 661 q 333 581 283 599 q 467 544 382 564 q 643 492 576 518 q 758 411 710 465 q 806 265 806 357 q 764 126 806 189 q 638 26 722 63 q 429 -11 553 -11 m 696 1190 l 510 1051 l 385 1051 l 199 1190 l 321 1190 l 447 1113 l 574 1190 l 696 1190 m 447 1239 q 397 1260 418 1239 q 376 1311 376 1281 q 397 1362 376 1342 q 447 1382 418 1382 q 497 1362 476 1382 q 518 1311 518 1342 q 497 1260 518 1281 q 447 1239 476 1239 z "},"Ş":{"ha":863,"x_min":57,"x_max":806,"o":"m 429 -11 q 217 23 319 -11 q 57 111 115 57 l 108 219 q 251 138 164 169 q 429 107 338 107 q 610 148 550 107 q 669 257 669 189 q 637 338 669 307 q 556 386 604 369 q 421 424 508 403 q 244 476 311 450 q 128 558 176 503 q 81 706 81 613 q 122 846 81 783 q 246 946 163 908 q 453 983 329 983 q 622 961 539 983 q 765 897 706 939 l 719 786 q 589 845 658 825 q 453 865 519 865 q 276 822 335 865 q 217 711 217 779 q 250 630 217 661 q 333 581 283 599 q 467 544 382 564 q 643 492 576 518 q 758 411 710 465 q 806 265 806 357 q 764 126 806 189 q 638 26 722 63 q 429 -11 553 -11 m 413 -311 q 289 -281 340 -311 l 318 -212 q 413 -236 360 -236 q 490 -181 490 -236 q 471 -141 490 -156 q 411 -126 451 -126 l 374 -126 l 408 10 l 485 10 l 464 -69 q 553 -106 522 -75 q 585 -185 585 -137 q 538 -277 585 -243 q 413 -311 490 -311 z "},"Ŝ":{"ha":863,"x_min":57,"x_max":806,"o":"m 429 -11 q 217 23 319 -11 q 57 111 115 57 l 108 219 q 251 138 164 169 q 429 107 338 107 q 610 148 550 107 q 669 257 669 189 q 637 338 669 307 q 556 386 604 369 q 421 424 508 403 q 244 476 311 450 q 128 558 176 503 q 81 706 81 613 q 122 846 81 783 q 246 946 163 908 q 453 983 329 983 q 622 961 539 983 q 765 897 706 939 l 719 786 q 589 845 658 825 q 453 865 519 865 q 276 822 335 865 q 217 711 217 779 q 250 630 217 661 q 333 581 283 599 q 467 544 382 564 q 643 492 576 518 q 758 411 710 465 q 806 265 806 357 q 764 126 806 189 q 638 26 722 63 q 429 -11 553 -11 m 575 1051 l 447 1158 l 319 1051 l 199 1051 l 383 1232 l 511 1232 l 696 1051 l 575 1051 z "},"Ș":{"ha":863,"x_min":57,"x_max":806,"o":"m 429 -11 q 217 23 319 -11 q 57 111 115 57 l 108 219 q 251 138 164 169 q 429 107 338 107 q 610 148 550 107 q 669 257 669 189 q 637 338 669 307 q 556 386 604 369 q 421 424 508 403 q 244 476 311 450 q 128 558 176 503 q 81 706 81 613 q 122 846 81 783 q 246 946 163 908 q 453 983 329 983 q 622 961 539 983 q 765 897 706 939 l 719 786 q 589 845 658 825 q 453 865 519 865 q 276 822 335 865 q 217 711 217 779 q 250 630 217 661 q 333 581 283 599 q 467 544 382 564 q 643 492 576 518 q 758 411 710 465 q 806 265 806 357 q 764 126 806 189 q 638 26 722 63 q 429 -11 553 -11 m 447 -131 q 499 -149 479 -131 q 518 -194 518 -167 q 500 -265 518 -228 l 458 -365 l 389 -365 l 421 -254 q 388 -232 400 -247 q 376 -194 376 -217 q 396 -149 376 -167 q 447 -131 415 -131 z "},"Ṡ":{"ha":863,"x_min":57,"x_max":806,"o":"m 429 -11 q 217 23 319 -11 q 57 111 115 57 l 108 219 q 251 138 164 169 q 429 107 338 107 q 610 148 550 107 q 669 257 669 189 q 637 338 669 307 q 556 386 604 369 q 421 424 508 403 q 244 476 311 450 q 128 558 176 503 q 81 706 81 613 q 122 846 81 783 q 246 946 163 908 q 453 983 329 983 q 622 961 539 983 q 765 897 706 939 l 719 786 q 589 845 658 825 q 453 865 519 865 q 276 822 335 865 q 217 711 217 779 q 250 630 217 661 q 333 581 283 599 q 467 544 382 564 q 643 492 576 518 q 758 411 710 465 q 806 265 806 357 q 764 126 806 189 q 638 26 722 63 q 429 -11 553 -11 m 447 1076 q 389 1100 413 1076 q 365 1158 365 1124 q 389 1217 365 1193 q 447 1240 413 1240 q 506 1217 482 1240 q 529 1158 529 1193 q 506 1100 529 1124 q 447 1076 482 1076 z "},"Ṣ":{"ha":863,"x_min":57,"x_max":806,"o":"m 429 -11 q 217 23 319 -11 q 57 111 115 57 l 108 219 q 251 138 164 169 q 429 107 338 107 q 610 148 550 107 q 669 257 669 189 q 637 338 669 307 q 556 386 604 369 q 421 424 508 403 q 244 476 311 450 q 128 558 176 503 q 81 706 81 613 q 122 846 81 783 q 246 946 163 908 q 453 983 329 983 q 622 961 539 983 q 765 897 706 939 l 719 786 q 589 845 658 825 q 453 865 519 865 q 276 822 335 865 q 217 711 217 779 q 250 630 217 661 q 333 581 283 599 q 467 544 382 564 q 643 492 576 518 q 758 411 710 465 q 806 265 806 357 q 764 126 806 189 q 638 26 722 63 q 429 -11 553 -11 m 447 -272 q 397 -253 418 -272 q 376 -203 376 -233 q 397 -151 376 -172 q 447 -131 418 -131 q 497 -151 476 -131 q 518 -203 518 -172 q 497 -253 518 -233 q 447 -272 476 -272 z "},"Ṩ":{"ha":863,"x_min":57,"x_max":806,"o":"m 429 -11 q 217 23 319 -11 q 57 111 115 57 l 108 219 q 251 138 164 169 q 429 107 338 107 q 610 148 550 107 q 669 257 669 189 q 637 338 669 307 q 556 386 604 369 q 421 424 508 403 q 244 476 311 450 q 128 558 176 503 q 81 706 81 613 q 122 846 81 783 q 246 946 163 908 q 453 983 329 983 q 622 961 539 983 q 765 897 706 939 l 719 786 q 589 845 658 825 q 453 865 519 865 q 276 822 335 865 q 217 711 217 779 q 250 630 217 661 q 333 581 283 599 q 467 544 382 564 q 643 492 576 518 q 758 411 710 465 q 806 265 806 357 q 764 126 806 189 q 638 26 722 63 q 429 -11 553 -11 m 447 -272 q 397 -253 418 -272 q 376 -203 376 -233 q 397 -151 376 -172 q 447 -131 418 -131 q 497 -151 476 -131 q 518 -203 518 -172 q 497 -253 518 -233 q 447 -272 476 -272 m 447 1076 q 389 1100 413 1076 q 365 1158 365 1124 q 389 1217 365 1193 q 447 1240 413 1240 q 506 1217 482 1240 q 529 1158 529 1193 q 506 1100 529 1124 q 447 1076 482 1076 z "},"ẞ":{"ha":1060,"x_min":138,"x_max":989,"o":"m 690 571 q 906 487 824 563 q 989 281 989 411 q 897 66 989 143 q 656 -11 804 -11 q 453 24 536 -11 l 475 140 q 638 107 544 107 q 793 152 738 107 q 849 285 849 197 q 792 418 849 372 q 635 464 735 464 q 521 449 569 464 l 494 515 l 772 828 q 572 869 685 869 q 353 789 429 869 q 276 558 276 708 l 276 0 l 138 0 l 138 563 q 252 874 138 761 q 569 988 367 988 q 750 963 664 988 q 897 892 836 939 l 897 801 l 690 571 z "},"Ə":{"ha":1135,"x_min":96,"x_max":1068,"o":"m 560 983 q 820 919 704 983 q 1002 741 936 854 q 1068 488 1068 628 q 1003 232 1068 346 q 824 53 938 118 q 568 -11 710 -11 q 276 76 401 -11 q 96 318 150 164 l 897 643 q 763 801 854 742 q 558 860 672 860 q 390 831 469 860 q 253 746 311 803 l 169 842 q 340 946 239 908 q 560 983 442 983 m 929 492 q 928 531 929 518 l 272 263 q 392 149 315 189 q 568 108 468 108 q 756 156 674 108 q 883 287 838 203 q 929 479 929 371 l 929 492 z "},"T":{"ha":831,"x_min":-6,"x_max":836,"o":"m 788 763 q 485 858 646 843 l 485 0 l 347 0 l 347 858 q 43 763 185 843 l -6 872 q 414 983 181 983 q 836 872 650 983 l 788 763 z "},"Ŧ":{"ha":831,"x_min":-6,"x_max":836,"o":"m 788 763 q 485 858 646 843 l 485 0 l 347 0 l 347 858 q 43 763 185 843 l -6 872 q 414 983 181 983 q 836 872 650 983 l 788 763 m 136 514 l 692 514 l 692 404 l 136 404 l 136 514 z "},"Ť":{"ha":831,"x_min":-6,"x_max":836,"o":"m 788 763 q 485 858 646 843 l 485 0 l 347 0 l 347 858 q 43 763 185 843 l -6 872 q 414 983 181 983 q 836 872 650 983 l 788 763 m 667 1232 l 482 1051 l 354 1051 l 169 1232 l 290 1232 l 418 1126 l 546 1232 l 667 1232 z "},"Ţ":{"ha":831,"x_min":-6,"x_max":836,"o":"m 788 763 q 485 858 646 843 l 485 0 l 347 0 l 347 858 q 43 763 185 843 l -6 872 q 414 983 181 983 q 836 872 650 983 l 788 763 m 381 -311 q 257 -281 308 -311 l 286 -212 q 381 -236 328 -236 q 458 -181 458 -236 q 439 -141 458 -156 q 379 -126 419 -126 l 342 -126 l 376 10 l 453 10 l 432 -69 q 522 -106 490 -75 q 553 -185 553 -137 q 506 -277 553 -243 q 381 -311 458 -311 z "},"Ț":{"ha":831,"x_min":-6,"x_max":836,"o":"m 788 763 q 485 858 646 843 l 485 0 l 347 0 l 347 858 q 43 763 185 843 l -6 872 q 414 983 181 983 q 836 872 650 983 l 788 763 m 415 -131 q 467 -149 447 -131 q 486 -194 486 -167 q 468 -265 486 -228 l 426 -365 l 357 -365 l 389 -254 q 356 -232 368 -247 q 344 -194 344 -217 q 364 -149 344 -167 q 415 -131 383 -131 z "},"Ṭ":{"ha":831,"x_min":-6,"x_max":836,"o":"m 788 763 q 485 858 646 843 l 485 0 l 347 0 l 347 858 q 43 763 185 843 l -6 872 q 414 983 181 983 q 836 872 650 983 l 788 763 m 415 -272 q 365 -253 386 -272 q 344 -203 344 -233 q 365 -151 344 -172 q 415 -131 386 -131 q 465 -151 444 -131 q 486 -203 486 -172 q 465 -253 486 -233 q 415 -272 444 -272 z "},"Ṯ":{"ha":831,"x_min":-6,"x_max":836,"o":"m 788 763 q 485 858 646 843 l 485 0 l 347 0 l 347 858 q 43 763 185 843 l -6 872 q 414 983 181 983 q 836 872 650 983 l 788 763 m 189 -157 l 642 -157 l 642 -242 l 189 -242 l 189 -157 z "},"U":{"ha":1103,"x_min":138,"x_max":957,"o":"m 957 972 l 957 0 l 824 0 l 824 138 q 507 -11 725 -11 q 235 94 333 -11 q 138 396 138 200 l 138 972 l 276 972 l 276 400 q 346 186 276 260 q 536 113 415 113 q 743 190 667 113 q 819 421 819 268 l 819 972 l 957 972 z "},"Ú":{"ha":1103,"x_min":138,"x_max":957,"o":"m 957 972 l 957 0 l 824 0 l 824 138 q 507 -11 725 -11 q 235 94 333 -11 q 138 396 138 200 l 138 972 l 276 972 l 276 400 q 346 186 276 260 q 536 113 415 113 q 743 190 667 113 q 819 421 819 268 l 819 972 l 957 972 m 629 1232 l 799 1232 l 565 1051 l 440 1051 l 629 1232 z "},"Ŭ":{"ha":1103,"x_min":138,"x_max":957,"o":"m 957 972 l 957 0 l 824 0 l 824 138 q 507 -11 725 -11 q 235 94 333 -11 q 138 396 138 200 l 138 972 l 276 972 l 276 400 q 346 186 276 260 q 536 113 415 113 q 743 190 667 113 q 819 421 819 268 l 819 972 l 957 972 m 544 1043 q 385 1094 449 1043 q 319 1232 322 1146 l 410 1232 q 449 1151 411 1182 q 544 1121 488 1121 q 640 1151 601 1121 q 679 1232 678 1182 l 769 1232 q 703 1094 767 1146 q 544 1043 640 1043 z "},"Ǔ":{"ha":1103,"x_min":138,"x_max":957,"o":"m 957 972 l 957 0 l 824 0 l 824 138 q 507 -11 725 -11 q 235 94 333 -11 q 138 396 138 200 l 138 972 l 276 972 l 276 400 q 346 186 276 260 q 536 113 415 113 q 743 190 667 113 q 819 421 819 268 l 819 972 l 957 972 m 793 1232 l 608 1051 l 481 1051 l 296 1232 l 417 1232 l 544 1126 l 672 1232 l 793 1232 z "},"Û":{"ha":1103,"x_min":138,"x_max":957,"o":"m 957 972 l 957 0 l 824 0 l 824 138 q 507 -11 725 -11 q 235 94 333 -11 q 138 396 138 200 l 138 972 l 276 972 l 276 400 q 346 186 276 260 q 536 113 415 113 q 743 190 667 113 q 819 421 819 268 l 819 972 l 957 972 m 672 1051 l 544 1158 l 417 1051 l 296 1051 l 481 1232 l 608 1232 l 793 1051 l 672 1051 z "},"Ȕ":{"ha":1103,"x_min":138,"x_max":957,"o":"m 957 972 l 957 0 l 824 0 l 824 138 q 507 -11 725 -11 q 235 94 333 -11 q 138 396 138 200 l 138 972 l 276 972 l 276 400 q 346 186 276 260 q 536 113 415 113 q 743 190 667 113 q 819 421 819 268 l 819 972 l 957 972 m 215 1232 l 356 1232 l 479 1051 l 367 1051 l 215 1232 m 456 1232 l 597 1232 l 722 1051 l 610 1051 l 456 1232 z "},"Ü":{"ha":1103,"x_min":138,"x_max":957,"o":"m 957 972 l 957 0 l 824 0 l 824 138 q 507 -11 725 -11 q 235 94 333 -11 q 138 396 138 200 l 138 972 l 276 972 l 276 400 q 346 186 276 260 q 536 113 415 113 q 743 190 667 113 q 819 421 819 268 l 819 972 l 957 972 m 415 1075 q 365 1095 386 1075 q 344 1146 344 1115 q 365 1197 344 1176 q 415 1218 386 1218 q 465 1197 444 1218 q 486 1146 486 1176 q 465 1095 486 1115 q 415 1075 444 1075 m 674 1075 q 624 1095 644 1075 q 603 1146 603 1115 q 624 1197 603 1176 q 674 1218 644 1218 q 724 1197 703 1218 q 744 1146 744 1176 q 724 1095 744 1115 q 674 1075 703 1075 z "},"Ụ":{"ha":1103,"x_min":138,"x_max":957,"o":"m 957 972 l 957 0 l 824 0 l 824 138 q 507 -11 725 -11 q 235 94 333 -11 q 138 396 138 200 l 138 972 l 276 972 l 276 400 q 346 186 276 260 q 536 113 415 113 q 743 190 667 113 q 819 421 819 268 l 819 972 l 957 972 m 544 -272 q 494 -253 515 -272 q 474 -203 474 -233 q 494 -151 474 -172 q 544 -131 515 -131 q 594 -151 574 -131 q 615 -203 615 -172 q 594 -253 615 -233 q 544 -272 574 -272 z "},"Ù":{"ha":1103,"x_min":138,"x_max":957,"o":"m 957 972 l 957 0 l 824 0 l 824 138 q 507 -11 725 -11 q 235 94 333 -11 q 138 396 138 200 l 138 972 l 276 972 l 276 400 q 346 186 276 260 q 536 113 415 113 q 743 190 667 113 q 819 421 819 268 l 819 972 l 957 972 m 290 1232 l 460 1232 l 649 1051 l 524 1051 l 290 1232 z "},"Ủ":{"ha":1103,"x_min":138,"x_max":957,"o":"m 957 972 l 957 0 l 824 0 l 824 138 q 507 -11 725 -11 q 235 94 333 -11 q 138 396 138 200 l 138 972 l 276 972 l 276 400 q 346 186 276 260 q 536 113 415 113 q 743 190 667 113 q 819 421 819 268 l 819 972 l 957 972 m 525 1093 q 584 1134 565 1111 q 603 1186 603 1157 q 583 1233 603 1214 q 531 1251 563 1251 q 447 1225 488 1251 l 417 1288 q 475 1317 442 1307 q 543 1326 508 1326 q 645 1291 606 1326 q 685 1197 685 1256 q 571 1039 685 1092 l 525 1093 z "},"Ư":{"ha":1103,"x_min":138,"x_max":1093,"o":"m 957 972 l 957 0 l 824 0 l 824 138 q 507 -11 725 -11 q 235 94 333 -11 q 138 396 138 200 l 138 972 l 276 972 l 276 400 q 346 186 276 260 q 536 113 415 113 q 743 190 667 113 q 819 421 819 268 l 819 972 l 957 972 m 883 972 l 908 972 q 975 997 953 972 q 997 1063 997 1022 q 969 1150 997 1113 l 1054 1182 q 1093 1058 1093 1129 q 1044 922 1093 972 q 908 871 994 871 l 883 871 l 883 972 z "},"Ứ":{"ha":1103,"x_min":138,"x_max":1093,"o":"m 957 972 l 957 0 l 824 0 l 824 138 q 507 -11 725 -11 q 235 94 333 -11 q 138 396 138 200 l 138 972 l 276 972 l 276 400 q 346 186 276 260 q 536 113 415 113 q 743 190 667 113 q 819 421 819 268 l 819 972 l 957 972 m 883 972 l 908 972 q 975 997 953 972 q 997 1063 997 1022 q 969 1150 997 1113 l 1054 1182 q 1093 1058 1093 1129 q 1044 922 1093 972 q 908 871 994 871 l 883 871 l 883 972 m 629 1232 l 799 1232 l 565 1051 l 440 1051 l 629 1232 z "},"Ự":{"ha":1103,"x_min":138,"x_max":1093,"o":"m 957 972 l 957 0 l 824 0 l 824 138 q 507 -11 725 -11 q 235 94 333 -11 q 138 396 138 200 l 138 972 l 276 972 l 276 400 q 346 186 276 260 q 536 113 415 113 q 743 190 667 113 q 819 421 819 268 l 819 972 l 957 972 m 883 972 l 908 972 q 975 997 953 972 q 997 1063 997 1022 q 969 1150 997 1113 l 1054 1182 q 1093 1058 1093 1129 q 1044 922 1093 972 q 908 871 994 871 l 883 871 l 883 972 m 544 -272 q 494 -253 515 -272 q 474 -203 474 -233 q 494 -151 474 -172 q 544 -131 515 -131 q 594 -151 574 -131 q 615 -203 615 -172 q 594 -253 615 -233 q 544 -272 574 -272 z "},"Ừ":{"ha":1103,"x_min":138,"x_max":1093,"o":"m 957 972 l 957 0 l 824 0 l 824 138 q 507 -11 725 -11 q 235 94 333 -11 q 138 396 138 200 l 138 972 l 276 972 l 276 400 q 346 186 276 260 q 536 113 415 113 q 743 190 667 113 q 819 421 819 268 l 819 972 l 957 972 m 883 972 l 908 972 q 975 997 953 972 q 997 1063 997 1022 q 969 1150 997 1113 l 1054 1182 q 1093 1058 1093 1129 q 1044 922 1093 972 q 908 871 994 871 l 883 871 l 883 972 m 290 1232 l 460 1232 l 649 1051 l 524 1051 l 290 1232 z "},"Ử":{"ha":1103,"x_min":138,"x_max":1093,"o":"m 957 972 l 957 0 l 824 0 l 824 138 q 507 -11 725 -11 q 235 94 333 -11 q 138 396 138 200 l 138 972 l 276 972 l 276 400 q 346 186 276 260 q 536 113 415 113 q 743 190 667 113 q 819 421 819 268 l 819 972 l 957 972 m 883 972 l 908 972 q 975 997 953 972 q 997 1063 997 1022 q 969 1150 997 1113 l 1054 1182 q 1093 1058 1093 1129 q 1044 922 1093 972 q 908 871 994 871 l 883 871 l 883 972 m 525 1093 q 584 1134 565 1111 q 603 1186 603 1157 q 583 1233 603 1214 q 531 1251 563 1251 q 447 1225 488 1251 l 417 1288 q 475 1317 442 1307 q 543 1326 508 1326 q 645 1291 606 1326 q 685 1197 685 1256 q 571 1039 685 1092 l 525 1093 z "},"Ữ":{"ha":1103,"x_min":138,"x_max":1093,"o":"m 957 972 l 957 0 l 824 0 l 824 138 q 507 -11 725 -11 q 235 94 333 -11 q 138 396 138 200 l 138 972 l 276 972 l 276 400 q 346 186 276 260 q 536 113 415 113 q 743 190 667 113 q 819 421 819 268 l 819 972 l 957 972 m 883 972 l 908 972 q 975 997 953 972 q 997 1063 997 1022 q 969 1150 997 1113 l 1054 1182 q 1093 1058 1093 1129 q 1044 922 1093 972 q 908 871 994 871 l 883 871 l 883 972 m 642 1056 q 584 1069 608 1056 q 524 1111 560 1083 q 488 1140 503 1131 q 457 1149 472 1149 q 407 1126 426 1149 q 386 1063 388 1103 l 311 1063 q 351 1186 314 1140 q 447 1232 388 1232 q 506 1217 481 1232 q 565 1175 532 1203 q 603 1147 589 1156 q 632 1138 617 1138 q 682 1160 663 1138 q 703 1221 701 1182 l 778 1221 q 738 1101 775 1146 q 642 1056 701 1056 z "},"Ű":{"ha":1103,"x_min":138,"x_max":957,"o":"m 957 972 l 957 0 l 824 0 l 824 138 q 507 -11 725 -11 q 235 94 333 -11 q 138 396 138 200 l 138 972 l 276 972 l 276 400 q 346 186 276 260 q 536 113 415 113 q 743 190 667 113 q 819 421 819 268 l 819 972 l 957 972 m 492 1232 l 633 1232 l 479 1051 l 367 1051 l 492 1232 m 733 1232 l 874 1232 l 722 1051 l 610 1051 l 733 1232 z "},"Ȗ":{"ha":1103,"x_min":138,"x_max":957,"o":"m 957 972 l 957 0 l 824 0 l 824 138 q 507 -11 725 -11 q 235 94 333 -11 q 138 396 138 200 l 138 972 l 276 972 l 276 400 q 346 186 276 260 q 536 113 415 113 q 743 190 667 113 q 819 421 819 268 l 819 972 l 957 972 m 319 1051 q 385 1189 322 1138 q 544 1240 449 1240 q 703 1189 640 1240 q 769 1051 767 1138 l 679 1051 q 640 1133 678 1103 q 544 1163 601 1163 q 449 1133 488 1163 q 410 1051 411 1103 l 319 1051 z "},"Ū":{"ha":1103,"x_min":138,"x_max":957,"o":"m 957 972 l 957 0 l 824 0 l 824 138 q 507 -11 725 -11 q 235 94 333 -11 q 138 396 138 200 l 138 972 l 276 972 l 276 400 q 346 186 276 260 q 536 113 415 113 q 743 190 667 113 q 819 421 819 268 l 819 972 l 957 972 m 318 1183 l 771 1183 l 771 1100 l 318 1100 l 318 1183 z "},"Ṻ":{"ha":1103,"x_min":138,"x_max":957,"o":"m 957 972 l 957 0 l 824 0 l 824 138 q 507 -11 725 -11 q 235 94 333 -11 q 138 396 138 200 l 138 972 l 276 972 l 276 400 q 346 186 276 260 q 536 113 415 113 q 743 190 667 113 q 819 421 819 268 l 819 972 l 957 972 m 318 1163 l 771 1163 l 771 1083 l 318 1083 l 318 1163 m 419 1274 q 370 1293 390 1274 q 350 1343 350 1313 q 370 1392 350 1372 q 419 1411 390 1411 q 467 1392 447 1411 q 488 1343 488 1372 q 467 1294 488 1314 q 419 1274 447 1274 m 671 1274 q 623 1294 643 1274 q 603 1343 603 1314 q 623 1392 603 1372 q 671 1411 643 1411 q 720 1392 700 1411 q 740 1343 740 1372 q 720 1294 740 1314 q 671 1274 700 1274 z "},"Ų":{"ha":1103,"x_min":138,"x_max":988,"o":"m 957 972 l 957 0 l 824 0 l 824 138 q 507 -11 725 -11 q 235 94 333 -11 q 138 396 138 200 l 138 972 l 276 972 l 276 400 q 346 186 276 260 q 536 113 415 113 q 743 190 667 113 q 819 421 819 268 l 819 972 l 957 972 m 863 -311 q 740 -273 785 -311 q 696 -171 696 -235 q 743 -53 696 -110 q 894 44 790 3 l 957 0 q 830 -78 868 -39 q 792 -161 792 -118 q 815 -214 792 -194 q 876 -233 839 -233 q 963 -210 928 -233 l 988 -278 q 863 -311 935 -311 z "},"Ů":{"ha":1103,"x_min":138,"x_max":957,"o":"m 957 972 l 957 0 l 824 0 l 824 138 q 507 -11 725 -11 q 235 94 333 -11 q 138 396 138 200 l 138 972 l 276 972 l 276 400 q 346 186 276 260 q 536 113 415 113 q 743 190 667 113 q 819 421 819 268 l 819 972 l 957 972 m 543 1061 q 435 1105 479 1061 q 390 1211 390 1149 q 435 1319 390 1274 q 543 1364 479 1364 q 653 1319 608 1364 q 697 1211 697 1274 q 653 1105 697 1149 q 543 1061 608 1061 m 543 1119 q 609 1146 583 1119 q 635 1211 635 1172 q 608 1278 635 1251 q 543 1304 582 1304 q 478 1278 504 1304 q 453 1211 453 1251 q 478 1146 453 1172 q 543 1119 504 1119 z "},"Ũ":{"ha":1103,"x_min":138,"x_max":957,"o":"m 957 972 l 957 0 l 824 0 l 824 138 q 507 -11 725 -11 q 235 94 333 -11 q 138 396 138 200 l 138 972 l 276 972 l 276 400 q 346 186 276 260 q 536 113 415 113 q 743 190 667 113 q 819 421 819 268 l 819 972 l 957 972 m 642 1056 q 584 1069 608 1056 q 524 1111 560 1083 q 488 1140 503 1131 q 457 1149 472 1149 q 407 1126 426 1149 q 386 1063 388 1103 l 311 1063 q 351 1186 314 1140 q 447 1232 388 1232 q 506 1217 481 1232 q 565 1175 532 1203 q 603 1147 589 1156 q 632 1138 617 1138 q 682 1160 663 1138 q 703 1221 701 1182 l 778 1221 q 738 1101 775 1146 q 642 1056 701 1056 z "},"Ṹ":{"ha":1103,"x_min":138,"x_max":957,"o":"m 957 972 l 957 0 l 824 0 l 824 138 q 507 -11 725 -11 q 235 94 333 -11 q 138 396 138 200 l 138 972 l 276 972 l 276 400 q 346 186 276 260 q 536 113 415 113 q 743 190 667 113 q 819 421 819 268 l 819 972 l 957 972 m 642 1058 q 581 1069 607 1058 q 522 1103 556 1081 q 454 1133 479 1133 q 390 1064 393 1133 l 315 1064 q 352 1169 317 1131 q 449 1207 388 1207 q 506 1196 481 1207 q 565 1163 532 1185 q 604 1140 589 1147 q 636 1132 619 1132 q 683 1150 667 1132 q 700 1200 699 1168 l 774 1200 q 737 1097 772 1135 q 642 1058 701 1058 m 613 1406 l 764 1406 l 558 1249 l 449 1249 l 613 1406 z "},"V":{"ha":989,"x_min":-1,"x_max":990,"o":"m 990 972 l 564 0 l 426 0 l -1 972 l 149 972 l 499 174 l 851 972 l 990 972 z "},"W":{"ha":1653,"x_min":138,"x_max":1515,"o":"m 1515 972 l 1515 388 q 1417 90 1515 190 q 1138 -11 1319 -11 q 949 27 1031 -11 q 825 132 868 65 q 701 27 781 65 q 514 -11 622 -11 q 235 90 332 -11 q 138 388 138 190 l 138 972 l 276 972 l 276 392 q 514 113 276 113 q 693 181 629 113 q 757 392 757 249 l 757 972 l 896 972 l 896 392 q 959 181 896 249 q 1138 113 1022 113 q 1376 392 1376 113 l 1376 972 l 1515 972 z "},"Ẃ":{"ha":1653,"x_min":138,"x_max":1515,"o":"m 1515 972 l 1515 388 q 1417 90 1515 190 q 1138 -11 1319 -11 q 949 27 1031 -11 q 825 132 868 65 q 701 27 781 65 q 514 -11 622 -11 q 235 90 332 -11 q 138 388 138 190 l 138 972 l 276 972 l 276 392 q 514 113 276 113 q 693 181 629 113 q 757 392 757 249 l 757 972 l 896 972 l 896 392 q 959 181 896 249 q 1138 113 1022 113 q 1376 392 1376 113 l 1376 972 l 1515 972 m 910 1232 l 1079 1232 l 846 1051 l 721 1051 l 910 1232 z "},"Ŵ":{"ha":1653,"x_min":138,"x_max":1515,"o":"m 1515 972 l 1515 388 q 1417 90 1515 190 q 1138 -11 1319 -11 q 949 27 1031 -11 q 825 132 868 65 q 701 27 781 65 q 514 -11 622 -11 q 235 90 332 -11 q 138 388 138 190 l 138 972 l 276 972 l 276 392 q 514 113 276 113 q 693 181 629 113 q 757 392 757 249 l 757 972 l 896 972 l 896 392 q 959 181 896 249 q 1138 113 1022 113 q 1376 392 1376 113 l 1376 972 l 1515 972 m 953 1051 l 825 1158 l 697 1051 l 576 1051 l 761 1232 l 889 1232 l 1074 1051 l 953 1051 z "},"Ẅ":{"ha":1653,"x_min":138,"x_max":1515,"o":"m 1515 972 l 1515 388 q 1417 90 1515 190 q 1138 -11 1319 -11 q 949 27 1031 -11 q 825 132 868 65 q 701 27 781 65 q 514 -11 622 -11 q 235 90 332 -11 q 138 388 138 190 l 138 972 l 276 972 l 276 392 q 514 113 276 113 q 693 181 629 113 q 757 392 757 249 l 757 972 l 896 972 l 896 392 q 959 181 896 249 q 1138 113 1022 113 q 1376 392 1376 113 l 1376 972 l 1515 972 m 696 1075 q 646 1095 667 1075 q 625 1146 625 1115 q 646 1197 625 1176 q 696 1218 667 1218 q 746 1197 725 1218 q 767 1146 767 1176 q 746 1095 767 1115 q 696 1075 725 1075 m 954 1075 q 904 1095 925 1075 q 883 1146 883 1115 q 904 1197 883 1176 q 954 1218 925 1218 q 1004 1197 983 1218 q 1025 1146 1025 1176 q 1004 1095 1025 1115 q 954 1075 983 1075 z "},"Ẁ":{"ha":1653,"x_min":138,"x_max":1515,"o":"m 1515 972 l 1515 388 q 1417 90 1515 190 q 1138 -11 1319 -11 q 949 27 1031 -11 q 825 132 868 65 q 701 27 781 65 q 514 -11 622 -11 q 235 90 332 -11 q 138 388 138 190 l 138 972 l 276 972 l 276 392 q 514 113 276 113 q 693 181 629 113 q 757 392 757 249 l 757 972 l 896 972 l 896 392 q 959 181 896 249 q 1138 113 1022 113 q 1376 392 1376 113 l 1376 972 l 1515 972 m 571 1232 l 740 1232 l 929 1051 l 804 1051 l 571 1232 z "},"X":{"ha":935,"x_min":18,"x_max":917,"o":"m 757 0 l 465 401 l 178 0 l 18 0 l 383 499 l 40 972 l 199 972 l 471 599 l 740 972 l 892 972 l 549 503 l 917 0 l 757 0 z "},"Y":{"ha":1093,"x_min":131,"x_max":956,"o":"m 956 972 l 956 289 q 843 -35 956 78 q 532 -147 731 -147 q 315 -110 413 -147 q 150 -6 217 -74 l 210 103 q 532 -22 338 -22 q 818 283 818 -22 l 818 382 q 517 240 721 240 q 232 346 333 240 q 131 647 131 451 l 131 972 l 269 972 l 269 653 q 339 438 269 511 q 532 364 408 364 q 742 442 665 364 q 818 674 818 519 l 818 972 l 956 972 z "},"Ý":{"ha":1093,"x_min":131,"x_max":956,"o":"m 956 972 l 956 289 q 843 -35 956 78 q 532 -147 731 -147 q 315 -110 413 -147 q 150 -6 217 -74 l 210 103 q 532 -22 338 -22 q 818 283 818 -22 l 818 382 q 517 240 721 240 q 232 346 333 240 q 131 647 131 451 l 131 972 l 269 972 l 269 653 q 339 438 269 511 q 532 364 408 364 q 742 442 665 364 q 818 674 818 519 l 818 972 l 956 972 m 628 1232 l 797 1232 l 564 1051 l 439 1051 l 628 1232 z "},"Ŷ":{"ha":1093,"x_min":131,"x_max":956,"o":"m 956 972 l 956 289 q 843 -35 956 78 q 532 -147 731 -147 q 315 -110 413 -147 q 150 -6 217 -74 l 210 103 q 532 -22 338 -22 q 818 283 818 -22 l 818 382 q 517 240 721 240 q 232 346 333 240 q 131 647 131 451 l 131 972 l 269 972 l 269 653 q 339 438 269 511 q 532 364 408 364 q 742 442 665 364 q 818 674 818 519 l 818 972 l 956 972 m 671 1051 l 543 1158 l 415 1051 l 294 1051 l 479 1232 l 607 1232 l 792 1051 l 671 1051 z "},"Ÿ":{"ha":1093,"x_min":131,"x_max":956,"o":"m 956 972 l 956 289 q 843 -35 956 78 q 532 -147 731 -147 q 315 -110 413 -147 q 150 -6 217 -74 l 210 103 q 532 -22 338 -22 q 818 283 818 -22 l 818 382 q 517 240 721 240 q 232 346 333 240 q 131 647 131 451 l 131 972 l 269 972 l 269 653 q 339 438 269 511 q 532 364 408 364 q 742 442 665 364 q 818 674 818 519 l 818 972 l 956 972 m 414 1075 q 364 1095 385 1075 q 343 1146 343 1115 q 364 1197 343 1176 q 414 1218 385 1218 q 464 1197 443 1218 q 485 1146 485 1176 q 464 1095 485 1115 q 414 1075 443 1075 m 672 1075 q 622 1095 643 1075 q 601 1146 601 1115 q 622 1197 601 1176 q 672 1218 643 1218 q 722 1197 701 1218 q 743 1146 743 1176 q 722 1095 743 1115 q 672 1075 701 1075 z "},"Ẏ":{"ha":1093,"x_min":131,"x_max":956,"o":"m 956 972 l 956 289 q 843 -35 956 78 q 532 -147 731 -147 q 315 -110 413 -147 q 150 -6 217 -74 l 210 103 q 532 -22 338 -22 q 818 283 818 -22 l 818 382 q 517 240 721 240 q 232 346 333 240 q 131 647 131 451 l 131 972 l 269 972 l 269 653 q 339 438 269 511 q 532 364 408 364 q 742 442 665 364 q 818 674 818 519 l 818 972 l 956 972 m 543 1076 q 485 1100 508 1076 q 461 1158 461 1124 q 485 1217 461 1193 q 543 1240 508 1240 q 601 1217 578 1240 q 625 1158 625 1193 q 601 1100 625 1124 q 543 1076 578 1076 z "},"Ỵ":{"ha":1093,"x_min":131,"x_max":992,"o":"m 956 972 l 956 289 q 843 -35 956 78 q 532 -147 731 -147 q 315 -110 413 -147 q 150 -6 217 -74 l 210 103 q 532 -22 338 -22 q 818 283 818 -22 l 818 382 q 517 240 721 240 q 232 346 333 240 q 131 647 131 451 l 131 972 l 269 972 l 269 653 q 339 438 269 511 q 532 364 408 364 q 742 442 665 364 q 818 674 818 519 l 818 972 l 956 972 m 921 -272 q 871 -253 892 -272 q 850 -203 850 -233 q 871 -151 850 -172 q 921 -131 892 -131 q 971 -151 950 -131 q 992 -203 992 -172 q 971 -253 992 -233 q 921 -272 950 -272 z "},"Ỳ":{"ha":1093,"x_min":131,"x_max":956,"o":"m 956 972 l 956 289 q 843 -35 956 78 q 532 -147 731 -147 q 315 -110 413 -147 q 150 -6 217 -74 l 210 103 q 532 -22 338 -22 q 818 283 818 -22 l 818 382 q 517 240 721 240 q 232 346 333 240 q 131 647 131 451 l 131 972 l 269 972 l 269 653 q 339 438 269 511 q 532 364 408 364 q 742 442 665 364 q 818 674 818 519 l 818 972 l 956 972 m 289 1232 l 458 1232 l 647 1051 l 522 1051 l 289 1232 z "},"Ỷ":{"ha":1093,"x_min":131,"x_max":956,"o":"m 956 972 l 956 289 q 843 -35 956 78 q 532 -147 731 -147 q 315 -110 413 -147 q 150 -6 217 -74 l 210 103 q 532 -22 338 -22 q 818 283 818 -22 l 818 382 q 517 240 721 240 q 232 346 333 240 q 131 647 131 451 l 131 972 l 269 972 l 269 653 q 339 438 269 511 q 532 364 408 364 q 742 442 665 364 q 818 674 818 519 l 818 972 l 956 972 m 524 1093 q 583 1134 564 1111 q 601 1186 601 1157 q 581 1233 601 1214 q 529 1251 561 1251 q 446 1225 486 1251 l 415 1288 q 474 1317 440 1307 q 542 1326 507 1326 q 644 1291 604 1326 q 683 1197 683 1256 q 569 1039 683 1092 l 524 1093 z "},"Ȳ":{"ha":1093,"x_min":131,"x_max":956,"o":"m 956 972 l 956 289 q 843 -35 956 78 q 532 -147 731 -147 q 315 -110 413 -147 q 150 -6 217 -74 l 210 103 q 532 -22 338 -22 q 818 283 818 -22 l 818 382 q 517 240 721 240 q 232 346 333 240 q 131 647 131 451 l 131 972 l 269 972 l 269 653 q 339 438 269 511 q 532 364 408 364 q 742 442 665 364 q 818 674 818 519 l 818 972 l 956 972 m 317 1183 l 769 1183 l 769 1100 l 317 1100 l 317 1183 z "},"Ỹ":{"ha":1093,"x_min":131,"x_max":956,"o":"m 956 972 l 956 289 q 843 -35 956 78 q 532 -147 731 -147 q 315 -110 413 -147 q 150 -6 217 -74 l 210 103 q 532 -22 338 -22 q 818 283 818 -22 l 818 382 q 517 240 721 240 q 232 346 333 240 q 131 647 131 451 l 131 972 l 269 972 l 269 653 q 339 438 269 511 q 532 364 408 364 q 742 442 665 364 q 818 674 818 519 l 818 972 l 956 972 m 640 1056 q 583 1069 607 1056 q 522 1111 558 1083 q 486 1140 501 1131 q 456 1149 471 1149 q 406 1126 425 1149 q 385 1063 386 1103 l 310 1063 q 349 1186 313 1140 q 446 1232 386 1232 q 505 1217 479 1232 q 564 1175 531 1203 q 601 1147 588 1156 q 631 1138 615 1138 q 681 1160 661 1138 q 701 1221 700 1182 l 776 1221 q 737 1101 774 1146 q 640 1056 700 1056 z "},"Z":{"ha":926,"x_min":67,"x_max":879,"o":"m 879 121 l 879 0 l 67 0 l 67 86 l 346 438 l 150 438 l 150 553 l 438 553 l 674 851 l 72 851 l 72 972 l 858 972 l 858 888 l 592 550 l 772 550 l 772 435 l 500 435 l 253 121 l 879 121 z "},"Ź":{"ha":926,"x_min":67,"x_max":879,"o":"m 879 121 l 879 0 l 67 0 l 67 86 l 346 438 l 150 438 l 150 553 l 438 553 l 674 851 l 72 851 l 72 972 l 858 972 l 858 888 l 592 550 l 772 550 l 772 435 l 500 435 l 253 121 l 879 121 m 554 1232 l 724 1232 l 490 1051 l 365 1051 l 554 1232 z "},"Ž":{"ha":926,"x_min":67,"x_max":879,"o":"m 879 121 l 879 0 l 67 0 l 67 86 l 346 438 l 150 438 l 150 553 l 438 553 l 674 851 l 72 851 l 72 972 l 858 972 l 858 888 l 592 550 l 772 550 l 772 435 l 500 435 l 253 121 l 879 121 m 718 1232 l 533 1051 l 406 1051 l 221 1232 l 342 1232 l 469 1126 l 597 1232 l 718 1232 z "},"Ż":{"ha":926,"x_min":67,"x_max":879,"o":"m 879 121 l 879 0 l 67 0 l 67 86 l 346 438 l 150 438 l 150 553 l 438 553 l 674 851 l 72 851 l 72 972 l 858 972 l 858 888 l 592 550 l 772 550 l 772 435 l 500 435 l 253 121 l 879 121 m 469 1076 q 411 1100 435 1076 q 388 1158 388 1124 q 411 1217 388 1193 q 469 1240 435 1240 q 528 1217 504 1240 q 551 1158 551 1193 q 528 1100 551 1124 q 469 1076 504 1076 z "},"Ẓ":{"ha":926,"x_min":67,"x_max":879,"o":"m 879 121 l 879 0 l 67 0 l 67 86 l 346 438 l 150 438 l 150 553 l 438 553 l 674 851 l 72 851 l 72 972 l 858 972 l 858 888 l 592 550 l 772 550 l 772 435 l 500 435 l 253 121 l 879 121 m 476 -272 q 426 -253 447 -272 q 406 -203 406 -233 q 426 -151 406 -172 q 476 -131 447 -131 q 526 -151 506 -131 q 547 -203 547 -172 q 526 -253 547 -233 q 476 -272 506 -272 z "},"a":{"ha":947,"x_min":58,"x_max":821,"o":"m 821 736 l 821 0 l 693 0 l 693 117 q 581 24 649 56 q 431 -8 513 -8 q 239 39 324 -8 q 106 172 154 86 q 58 368 58 257 q 106 564 58 479 q 239 696 154 649 q 431 743 324 743 q 576 713 510 743 q 688 625 643 683 l 688 736 l 821 736 m 442 108 q 568 141 511 108 q 657 233 625 174 q 689 368 689 292 q 657 503 689 444 q 568 594 625 563 q 442 626 511 626 q 315 594 371 626 q 226 503 258 563 q 193 368 193 444 q 226 233 193 292 q 315 141 258 174 q 442 108 371 108 z "},"á":{"ha":947,"x_min":58,"x_max":821,"o":"m 821 736 l 821 0 l 693 0 l 693 117 q 581 24 649 56 q 431 -8 513 -8 q 239 39 324 -8 q 106 172 154 86 q 58 368 58 257 q 106 564 58 479 q 239 696 154 649 q 431 743 324 743 q 576 713 510 743 q 688 625 643 683 l 688 736 l 821 736 m 442 108 q 568 141 511 108 q 657 233 625 174 q 689 368 689 292 q 657 503 689 444 q 568 594 625 563 q 442 626 511 626 q 315 594 371 626 q 226 503 258 563 q 193 368 193 444 q 226 233 193 292 q 315 141 258 174 q 442 108 371 108 m 550 1024 l 719 1024 l 486 843 l 361 843 l 550 1024 z "},"ă":{"ha":947,"x_min":58,"x_max":821,"o":"m 821 736 l 821 0 l 693 0 l 693 117 q 581 24 649 56 q 431 -8 513 -8 q 239 39 324 -8 q 106 172 154 86 q 58 368 58 257 q 106 564 58 479 q 239 696 154 649 q 431 743 324 743 q 576 713 510 743 q 688 625 643 683 l 688 736 l 821 736 m 442 108 q 568 141 511 108 q 657 233 625 174 q 689 368 689 292 q 657 503 689 444 q 568 594 625 563 q 442 626 511 626 q 315 594 371 626 q 226 503 258 563 q 193 368 193 444 q 226 233 193 292 q 315 141 258 174 q 442 108 371 108 m 465 835 q 306 886 369 835 q 240 1024 243 938 l 331 1024 q 370 943 332 974 q 465 913 408 913 q 560 943 522 913 q 600 1024 599 974 l 690 1024 q 624 886 688 938 q 465 835 561 835 z "},"ắ":{"ha":947,"x_min":58,"x_max":821,"o":"m 821 736 l 821 0 l 693 0 l 693 117 q 581 24 649 56 q 431 -8 513 -8 q 239 39 324 -8 q 106 172 154 86 q 58 368 58 257 q 106 564 58 479 q 239 696 154 649 q 431 743 324 743 q 576 713 510 743 q 688 625 643 683 l 688 736 l 821 736 m 442 108 q 568 141 511 108 q 657 233 625 174 q 689 368 689 292 q 657 503 689 444 q 568 594 625 563 q 442 626 511 626 q 315 594 371 626 q 226 503 258 563 q 193 368 193 444 q 226 233 193 292 q 315 141 258 174 q 442 108 371 108 m 465 835 q 310 874 372 835 q 240 982 249 914 l 329 982 q 372 928 335 949 q 465 908 410 908 q 558 928 521 908 q 601 982 596 949 l 690 982 q 620 874 682 914 q 465 835 558 835 m 533 1171 l 685 1171 l 479 1014 l 369 1014 l 533 1171 z "},"ặ":{"ha":947,"x_min":58,"x_max":821,"o":"m 821 736 l 821 0 l 693 0 l 693 117 q 581 24 649 56 q 431 -8 513 -8 q 239 39 324 -8 q 106 172 154 86 q 58 368 58 257 q 106 564 58 479 q 239 696 154 649 q 431 743 324 743 q 576 713 510 743 q 688 625 643 683 l 688 736 l 821 736 m 442 108 q 568 141 511 108 q 657 233 625 174 q 689 368 689 292 q 657 503 689 444 q 568 594 625 563 q 442 626 511 626 q 315 594 371 626 q 226 503 258 563 q 193 368 193 444 q 226 233 193 292 q 315 141 258 174 q 442 108 371 108 m 465 -272 q 415 -253 436 -272 q 394 -203 394 -233 q 415 -151 394 -172 q 465 -131 436 -131 q 515 -151 494 -131 q 536 -203 536 -172 q 515 -253 536 -233 q 465 -272 494 -272 m 465 835 q 306 886 369 835 q 240 1024 243 938 l 331 1024 q 370 943 332 974 q 465 913 408 913 q 560 943 522 913 q 600 1024 599 974 l 690 1024 q 624 886 688 938 q 465 835 561 835 z "},"ằ":{"ha":947,"x_min":58,"x_max":821,"o":"m 821 736 l 821 0 l 693 0 l 693 117 q 581 24 649 56 q 431 -8 513 -8 q 239 39 324 -8 q 106 172 154 86 q 58 368 58 257 q 106 564 58 479 q 239 696 154 649 q 431 743 324 743 q 576 713 510 743 q 688 625 643 683 l 688 736 l 821 736 m 442 108 q 568 141 511 108 q 657 233 625 174 q 689 368 689 292 q 657 503 689 444 q 568 594 625 563 q 442 626 511 626 q 315 594 371 626 q 226 503 258 563 q 193 368 193 444 q 226 233 193 292 q 315 141 258 174 q 442 108 371 108 m 465 835 q 310 874 372 835 q 240 982 249 914 l 329 982 q 372 928 335 949 q 465 908 410 908 q 558 928 521 908 q 601 982 596 949 l 690 982 q 620 874 682 914 q 465 835 558 835 m 247 1171 l 399 1171 l 561 1014 l 453 1014 l 247 1171 z "},"ẳ":{"ha":947,"x_min":58,"x_max":821,"o":"m 821 736 l 821 0 l 693 0 l 693 117 q 581 24 649 56 q 431 -8 513 -8 q 239 39 324 -8 q 106 172 154 86 q 58 368 58 257 q 106 564 58 479 q 239 696 154 649 q 431 743 324 743 q 576 713 510 743 q 688 625 643 683 l 688 736 l 821 736 m 442 108 q 568 141 511 108 q 657 233 625 174 q 689 368 689 292 q 657 503 689 444 q 568 594 625 563 q 442 626 511 626 q 315 594 371 626 q 226 503 258 563 q 193 368 193 444 q 226 233 193 292 q 315 141 258 174 q 442 108 371 108 m 465 835 q 310 874 372 835 q 240 982 249 914 l 329 982 q 372 928 335 949 q 465 908 410 908 q 558 928 521 908 q 601 982 596 949 l 690 982 q 620 874 682 914 q 465 835 558 835 m 451 1017 q 493 1047 479 1029 q 507 1083 507 1065 q 492 1115 507 1103 q 454 1126 478 1126 q 394 1110 424 1126 l 369 1161 q 465 1188 411 1188 q 544 1160 515 1188 q 574 1090 574 1133 q 550 1023 574 1053 q 488 976 526 993 l 451 1017 z "},"ẵ":{"ha":947,"x_min":58,"x_max":821,"o":"m 821 736 l 821 0 l 693 0 l 693 117 q 581 24 649 56 q 431 -8 513 -8 q 239 39 324 -8 q 106 172 154 86 q 58 368 58 257 q 106 564 58 479 q 239 696 154 649 q 431 743 324 743 q 576 713 510 743 q 688 625 643 683 l 688 736 l 821 736 m 442 108 q 568 141 511 108 q 657 233 625 174 q 689 368 689 292 q 657 503 689 444 q 568 594 625 563 q 442 626 511 626 q 315 594 371 626 q 226 503 258 563 q 193 368 193 444 q 226 233 193 292 q 315 141 258 174 q 442 108 371 108 m 465 835 q 310 874 372 835 q 240 982 249 914 l 329 982 q 372 928 335 949 q 465 908 410 908 q 558 928 521 908 q 601 982 596 949 l 690 982 q 620 874 682 914 q 465 835 558 835 m 563 1021 q 502 1032 528 1021 q 443 1065 476 1043 q 375 1096 400 1096 q 311 1026 314 1096 l 236 1026 q 273 1131 238 1093 q 369 1169 308 1169 q 427 1158 401 1169 q 486 1125 453 1147 q 525 1102 510 1110 q 557 1094 540 1094 q 603 1113 588 1094 q 621 1163 619 1131 l 694 1163 q 658 1059 693 1097 q 563 1021 622 1021 z "},"ǎ":{"ha":947,"x_min":58,"x_max":821,"o":"m 821 736 l 821 0 l 693 0 l 693 117 q 581 24 649 56 q 431 -8 513 -8 q 239 39 324 -8 q 106 172 154 86 q 58 368 58 257 q 106 564 58 479 q 239 696 154 649 q 431 743 324 743 q 576 713 510 743 q 688 625 643 683 l 688 736 l 821 736 m 442 108 q 568 141 511 108 q 657 233 625 174 q 689 368 689 292 q 657 503 689 444 q 568 594 625 563 q 442 626 511 626 q 315 594 371 626 q 226 503 258 563 q 193 368 193 444 q 226 233 193 292 q 315 141 258 174 q 442 108 371 108 m 714 1024 l 529 843 l 401 843 l 217 1024 l 338 1024 l 465 918 l 593 1024 l 714 1024 z "},"â":{"ha":947,"x_min":58,"x_max":821,"o":"m 821 736 l 821 0 l 693 0 l 693 117 q 581 24 649 56 q 431 -8 513 -8 q 239 39 324 -8 q 106 172 154 86 q 58 368 58 257 q 106 564 58 479 q 239 696 154 649 q 431 743 324 743 q 576 713 510 743 q 688 625 643 683 l 688 736 l 821 736 m 442 108 q 568 141 511 108 q 657 233 625 174 q 689 368 689 292 q 657 503 689 444 q 568 594 625 563 q 442 626 511 626 q 315 594 371 626 q 226 503 258 563 q 193 368 193 444 q 226 233 193 292 q 315 141 258 174 q 442 108 371 108 m 593 843 l 465 950 l 338 843 l 217 843 l 401 1024 l 529 1024 l 714 843 l 593 843 z "},"ấ":{"ha":947,"x_min":58,"x_max":918,"o":"m 821 736 l 821 0 l 693 0 l 693 117 q 581 24 649 56 q 431 -8 513 -8 q 239 39 324 -8 q 106 172 154 86 q 58 368 58 257 q 106 564 58 479 q 239 696 154 649 q 431 743 324 743 q 576 713 510 743 q 688 625 643 683 l 688 736 l 821 736 m 442 108 q 568 141 511 108 q 657 233 625 174 q 689 368 689 292 q 657 503 689 444 q 568 594 625 563 q 442 626 511 626 q 315 594 371 626 q 226 503 258 563 q 193 368 193 444 q 226 233 193 292 q 315 141 258 174 q 442 108 371 108 m 592 843 l 465 921 l 339 843 l 217 843 l 403 982 l 528 982 l 714 843 l 592 843 m 767 1122 l 918 1122 l 713 965 l 603 965 l 767 1122 z "},"ậ":{"ha":947,"x_min":58,"x_max":821,"o":"m 821 736 l 821 0 l 693 0 l 693 117 q 581 24 649 56 q 431 -8 513 -8 q 239 39 324 -8 q 106 172 154 86 q 58 368 58 257 q 106 564 58 479 q 239 696 154 649 q 431 743 324 743 q 576 713 510 743 q 688 625 643 683 l 688 736 l 821 736 m 442 108 q 568 141 511 108 q 657 233 625 174 q 689 368 689 292 q 657 503 689 444 q 568 594 625 563 q 442 626 511 626 q 315 594 371 626 q 226 503 258 563 q 193 368 193 444 q 226 233 193 292 q 315 141 258 174 q 442 108 371 108 m 465 -272 q 415 -253 436 -272 q 394 -203 394 -233 q 415 -151 394 -172 q 465 -131 436 -131 q 515 -151 494 -131 q 536 -203 536 -172 q 515 -253 536 -233 q 465 -272 494 -272 m 593 843 l 465 950 l 338 843 l 217 843 l 401 1024 l 529 1024 l 714 843 l 593 843 z "},"ầ":{"ha":947,"x_min":58,"x_max":821,"o":"m 821 736 l 821 0 l 693 0 l 693 117 q 581 24 649 56 q 431 -8 513 -8 q 239 39 324 -8 q 106 172 154 86 q 58 368 58 257 q 106 564 58 479 q 239 696 154 649 q 431 743 324 743 q 576 713 510 743 q 688 625 643 683 l 688 736 l 821 736 m 442 108 q 568 141 511 108 q 657 233 625 174 q 689 368 689 292 q 657 503 689 444 q 568 594 625 563 q 442 626 511 626 q 315 594 371 626 q 226 503 258 563 q 193 368 193 444 q 226 233 193 292 q 315 141 258 174 q 442 108 371 108 m 592 843 l 465 921 l 339 843 l 217 843 l 403 982 l 528 982 l 714 843 l 592 843 m 481 1122 l 632 1122 l 794 965 l 686 965 l 481 1122 z "},"ẩ":{"ha":947,"x_min":58,"x_max":821,"o":"m 821 736 l 821 0 l 693 0 l 693 117 q 581 24 649 56 q 431 -8 513 -8 q 239 39 324 -8 q 106 172 154 86 q 58 368 58 257 q 106 564 58 479 q 239 696 154 649 q 431 743 324 743 q 576 713 510 743 q 688 625 643 683 l 688 736 l 821 736 m 442 108 q 568 141 511 108 q 657 233 625 174 q 689 368 689 292 q 657 503 689 444 q 568 594 625 563 q 442 626 511 626 q 315 594 371 626 q 226 503 258 563 q 193 368 193 444 q 226 233 193 292 q 315 141 258 174 q 442 108 371 108 m 592 843 l 465 921 l 339 843 l 217 843 l 403 982 l 528 982 l 714 843 l 592 843 m 632 981 q 674 1011 660 993 q 688 1047 688 1029 q 673 1078 688 1067 q 635 1090 658 1090 q 575 1074 604 1090 l 550 1125 q 646 1151 592 1151 q 725 1124 696 1151 q 754 1054 754 1097 q 731 987 754 1017 q 668 940 707 957 l 632 981 z "},"ẫ":{"ha":947,"x_min":58,"x_max":821,"o":"m 821 736 l 821 0 l 693 0 l 693 117 q 581 24 649 56 q 431 -8 513 -8 q 239 39 324 -8 q 106 172 154 86 q 58 368 58 257 q 106 564 58 479 q 239 696 154 649 q 431 743 324 743 q 576 713 510 743 q 688 625 643 683 l 688 736 l 821 736 m 442 108 q 568 141 511 108 q 657 233 625 174 q 689 368 689 292 q 657 503 689 444 q 568 594 625 563 q 442 626 511 626 q 315 594 371 626 q 226 503 258 563 q 193 368 193 444 q 226 233 193 292 q 315 141 258 174 q 442 108 371 108 m 592 843 l 465 921 l 339 843 l 217 843 l 403 982 l 528 982 l 714 843 l 592 843 m 563 1029 q 502 1040 528 1029 q 443 1074 476 1051 q 375 1104 400 1104 q 311 1035 314 1104 l 236 1035 q 273 1140 238 1101 q 369 1178 308 1178 q 427 1167 401 1178 q 486 1133 453 1156 q 525 1110 510 1118 q 557 1103 540 1103 q 603 1121 588 1103 q 621 1171 619 1139 l 694 1171 q 658 1067 693 1106 q 563 1029 622 1029 z "},"ȁ":{"ha":947,"x_min":58,"x_max":821,"o":"m 821 736 l 821 0 l 693 0 l 693 117 q 581 24 649 56 q 431 -8 513 -8 q 239 39 324 -8 q 106 172 154 86 q 58 368 58 257 q 106 564 58 479 q 239 696 154 649 q 431 743 324 743 q 576 713 510 743 q 688 625 643 683 l 688 736 l 821 736 m 442 108 q 568 141 511 108 q 657 233 625 174 q 689 368 689 292 q 657 503 689 444 q 568 594 625 563 q 442 626 511 626 q 315 594 371 626 q 226 503 258 563 q 193 368 193 444 q 226 233 193 292 q 315 141 258 174 q 442 108 371 108 m 136 1024 l 276 1024 l 400 843 l 288 843 l 136 1024 m 376 1024 l 518 1024 l 643 843 l 531 843 l 376 1024 z "},"ä":{"ha":947,"x_min":58,"x_max":821,"o":"m 821 736 l 821 0 l 693 0 l 693 117 q 581 24 649 56 q 431 -8 513 -8 q 239 39 324 -8 q 106 172 154 86 q 58 368 58 257 q 106 564 58 479 q 239 696 154 649 q 431 743 324 743 q 576 713 510 743 q 688 625 643 683 l 688 736 l 821 736 m 442 108 q 568 141 511 108 q 657 233 625 174 q 689 368 689 292 q 657 503 689 444 q 568 594 625 563 q 442 626 511 626 q 315 594 371 626 q 226 503 258 563 q 193 368 193 444 q 226 233 193 292 q 315 141 258 174 q 442 108 371 108 m 336 867 q 286 887 307 867 q 265 938 265 907 q 286 989 265 968 q 336 1010 307 1010 q 386 989 365 1010 q 407 938 407 968 q 386 887 407 907 q 336 867 365 867 m 594 867 q 544 887 565 867 q 524 938 524 907 q 544 989 524 968 q 594 1010 565 1010 q 644 989 624 1010 q 665 938 665 968 q 644 887 665 907 q 594 867 624 867 z "},"ạ":{"ha":947,"x_min":58,"x_max":821,"o":"m 821 736 l 821 0 l 693 0 l 693 117 q 581 24 649 56 q 431 -8 513 -8 q 239 39 324 -8 q 106 172 154 86 q 58 368 58 257 q 106 564 58 479 q 239 696 154 649 q 431 743 324 743 q 576 713 510 743 q 688 625 643 683 l 688 736 l 821 736 m 442 108 q 568 141 511 108 q 657 233 625 174 q 689 368 689 292 q 657 503 689 444 q 568 594 625 563 q 442 626 511 626 q 315 594 371 626 q 226 503 258 563 q 193 368 193 444 q 226 233 193 292 q 315 141 258 174 q 442 108 371 108 m 465 -272 q 415 -253 436 -272 q 394 -203 394 -233 q 415 -151 394 -172 q 465 -131 436 -131 q 515 -151 494 -131 q 536 -203 536 -172 q 515 -253 536 -233 q 465 -272 494 -272 z "},"à":{"ha":947,"x_min":58,"x_max":821,"o":"m 821 736 l 821 0 l 693 0 l 693 117 q 581 24 649 56 q 431 -8 513 -8 q 239 39 324 -8 q 106 172 154 86 q 58 368 58 257 q 106 564 58 479 q 239 696 154 649 q 431 743 324 743 q 576 713 510 743 q 688 625 643 683 l 688 736 l 821 736 m 442 108 q 568 141 511 108 q 657 233 625 174 q 689 368 689 292 q 657 503 689 444 q 568 594 625 563 q 442 626 511 626 q 315 594 371 626 q 226 503 258 563 q 193 368 193 444 q 226 233 193 292 q 315 141 258 174 q 442 108 371 108 m 211 1024 l 381 1024 l 569 843 l 444 843 l 211 1024 z "},"ả":{"ha":947,"x_min":58,"x_max":821,"o":"m 821 736 l 821 0 l 693 0 l 693 117 q 581 24 649 56 q 431 -8 513 -8 q 239 39 324 -8 q 106 172 154 86 q 58 368 58 257 q 106 564 58 479 q 239 696 154 649 q 431 743 324 743 q 576 713 510 743 q 688 625 643 683 l 688 736 l 821 736 m 442 108 q 568 141 511 108 q 657 233 625 174 q 689 368 689 292 q 657 503 689 444 q 568 594 625 563 q 442 626 511 626 q 315 594 371 626 q 226 503 258 563 q 193 368 193 444 q 226 233 193 292 q 315 141 258 174 q 442 108 371 108 m 446 885 q 505 926 486 903 q 524 978 524 949 q 503 1024 524 1006 q 451 1043 483 1043 q 368 1017 408 1043 l 338 1079 q 396 1108 363 1099 q 464 1118 429 1118 q 566 1083 526 1118 q 606 989 606 1047 q 492 831 606 883 l 446 885 z "},"ȃ":{"ha":947,"x_min":58,"x_max":821,"o":"m 821 736 l 821 0 l 693 0 l 693 117 q 581 24 649 56 q 431 -8 513 -8 q 239 39 324 -8 q 106 172 154 86 q 58 368 58 257 q 106 564 58 479 q 239 696 154 649 q 431 743 324 743 q 576 713 510 743 q 688 625 643 683 l 688 736 l 821 736 m 442 108 q 568 141 511 108 q 657 233 625 174 q 689 368 689 292 q 657 503 689 444 q 568 594 625 563 q 442 626 511 626 q 315 594 371 626 q 226 503 258 563 q 193 368 193 444 q 226 233 193 292 q 315 141 258 174 q 442 108 371 108 m 240 843 q 306 981 243 929 q 465 1032 369 1032 q 624 981 561 1032 q 690 843 688 929 l 600 843 q 560 924 599 894 q 465 954 522 954 q 370 924 408 954 q 331 843 332 894 l 240 843 z "},"ā":{"ha":947,"x_min":58,"x_max":821,"o":"m 821 736 l 821 0 l 693 0 l 693 117 q 581 24 649 56 q 431 -8 513 -8 q 239 39 324 -8 q 106 172 154 86 q 58 368 58 257 q 106 564 58 479 q 239 696 154 649 q 431 743 324 743 q 576 713 510 743 q 688 625 643 683 l 688 736 l 821 736 m 442 108 q 568 141 511 108 q 657 233 625 174 q 689 368 689 292 q 657 503 689 444 q 568 594 625 563 q 442 626 511 626 q 315 594 371 626 q 226 503 258 563 q 193 368 193 444 q 226 233 193 292 q 315 141 258 174 q 442 108 371 108 m 239 975 l 692 975 l 692 892 l 239 892 l 239 975 z "},"ą":{"ha":947,"x_min":58,"x_max":851,"o":"m 821 736 l 821 0 l 693 0 l 693 117 q 581 24 649 56 q 431 -8 513 -8 q 239 39 324 -8 q 106 172 154 86 q 58 368 58 257 q 106 564 58 479 q 239 696 154 649 q 431 743 324 743 q 576 713 510 743 q 688 625 643 683 l 688 736 l 821 736 m 442 108 q 568 141 511 108 q 657 233 625 174 q 689 368 689 292 q 657 503 689 444 q 568 594 625 563 q 442 626 511 626 q 315 594 371 626 q 226 503 258 563 q 193 368 193 444 q 226 233 193 292 q 315 141 258 174 q 442 108 371 108 m 726 -311 q 604 -273 649 -311 q 560 -171 560 -235 q 607 -53 560 -110 q 758 44 654 3 l 821 0 q 694 -78 732 -39 q 656 -161 656 -118 q 679 -214 656 -194 q 740 -233 703 -233 q 826 -210 792 -233 l 851 -278 q 726 -311 799 -311 z "},"å":{"ha":947,"x_min":58,"x_max":821,"o":"m 821 736 l 821 0 l 693 0 l 693 117 q 581 24 649 56 q 431 -8 513 -8 q 239 39 324 -8 q 106 172 154 86 q 58 368 58 257 q 106 564 58 479 q 239 696 154 649 q 431 743 324 743 q 576 713 510 743 q 688 625 643 683 l 688 736 l 821 736 m 442 108 q 568 141 511 108 q 657 233 625 174 q 689 368 689 292 q 657 503 689 444 q 568 594 625 563 q 442 626 511 626 q 315 594 371 626 q 226 503 258 563 q 193 368 193 444 q 226 233 193 292 q 315 141 258 174 q 442 108 371 108 m 464 825 q 356 869 400 825 q 311 975 311 913 q 356 1083 311 1038 q 464 1128 400 1128 q 574 1083 529 1128 q 618 975 618 1038 q 574 869 618 913 q 464 825 529 825 m 464 883 q 530 910 504 883 q 556 975 556 936 q 529 1042 556 1015 q 464 1068 503 1068 q 399 1042 425 1068 q 374 975 374 1015 q 399 910 374 936 q 464 883 425 883 z "},"ǻ":{"ha":947,"x_min":58,"x_max":821,"o":"m 821 736 l 821 0 l 693 0 l 693 117 q 581 24 649 56 q 431 -8 513 -8 q 239 39 324 -8 q 106 172 154 86 q 58 368 58 257 q 106 564 58 479 q 239 696 154 649 q 431 743 324 743 q 576 713 510 743 q 688 625 643 683 l 688 736 l 821 736 m 442 108 q 568 141 511 108 q 657 233 625 174 q 689 368 689 292 q 657 503 689 444 q 568 594 625 563 q 442 626 511 626 q 315 594 371 626 q 226 503 258 563 q 193 368 193 444 q 226 233 193 292 q 315 141 258 174 q 442 108 371 108 m 592 1063 q 618 975 618 1024 q 574 869 618 913 q 464 825 529 825 q 356 869 400 825 q 311 975 311 913 q 356 1083 311 1038 q 464 1128 400 1128 q 539 1108 504 1128 l 656 1226 l 725 1169 l 592 1063 m 464 883 q 530 910 504 883 q 556 975 556 936 q 529 1042 556 1015 q 464 1068 503 1068 q 399 1042 425 1068 q 374 975 374 1015 q 399 910 374 936 q 464 883 425 883 z "},"ã":{"ha":947,"x_min":58,"x_max":821,"o":"m 821 736 l 821 0 l 693 0 l 693 117 q 581 24 649 56 q 431 -8 513 -8 q 239 39 324 -8 q 106 172 154 86 q 58 368 58 257 q 106 564 58 479 q 239 696 154 649 q 431 743 324 743 q 576 713 510 743 q 688 625 643 683 l 688 736 l 821 736 m 442 108 q 568 141 511 108 q 657 233 625 174 q 689 368 689 292 q 657 503 689 444 q 568 594 625 563 q 442 626 511 626 q 315 594 371 626 q 226 503 258 563 q 193 368 193 444 q 226 233 193 292 q 315 141 258 174 q 442 108 371 108 m 563 847 q 505 861 529 847 q 444 903 481 875 q 408 931 424 922 q 378 940 393 940 q 328 917 347 940 q 307 854 308 894 l 232 854 q 272 978 235 932 q 368 1024 308 1024 q 427 1009 401 1024 q 486 967 453 994 q 524 938 510 947 q 553 929 538 929 q 603 951 583 929 q 624 1013 622 974 l 699 1013 q 659 892 696 938 q 563 847 622 847 z "},"æ":{"ha":1374,"x_min":69,"x_max":1315,"o":"m 983 108 q 1193 197 1108 108 l 1267 111 q 1144 22 1217 53 q 981 -8 1071 -8 q 792 30 878 -8 q 651 144 706 68 q 531 28 610 64 q 356 -8 451 -8 q 146 53 222 -8 q 69 214 69 114 q 140 364 69 306 q 365 422 211 422 l 576 422 l 576 450 q 527 582 576 536 q 381 628 478 628 q 251 606 314 628 q 146 549 189 585 l 90 649 q 226 719 147 694 q 393 743 306 743 q 667 613 597 743 q 792 708 717 674 q 956 743 867 743 q 1136 698 1056 743 q 1265 570 1217 653 q 1315 379 1313 488 l 728 265 q 824 151 756 193 q 983 108 892 108 m 954 631 q 828 599 883 631 q 741 510 772 567 q 710 383 710 454 l 710 361 l 1181 451 q 1101 581 1163 532 q 954 631 1040 631 m 367 94 q 520 144 464 94 q 576 279 576 194 l 576 326 l 371 326 q 201 217 201 326 q 245 126 201 158 q 367 94 289 94 z "},"ǽ":{"ha":1374,"x_min":69,"x_max":1315,"o":"m 983 108 q 1193 197 1108 108 l 1267 111 q 1144 22 1217 53 q 981 -8 1071 -8 q 792 30 878 -8 q 651 144 706 68 q 531 28 610 64 q 356 -8 451 -8 q 146 53 222 -8 q 69 214 69 114 q 140 364 69 306 q 365 422 211 422 l 576 422 l 576 450 q 527 582 576 536 q 381 628 478 628 q 251 606 314 628 q 146 549 189 585 l 90 649 q 226 719 147 694 q 393 743 306 743 q 667 613 597 743 q 792 708 717 674 q 956 743 867 743 q 1136 698 1056 743 q 1265 570 1217 653 q 1315 379 1313 488 l 728 265 q 824 151 756 193 q 983 108 892 108 m 954 631 q 828 599 883 631 q 741 510 772 567 q 710 383 710 454 l 710 361 l 1181 451 q 1101 581 1163 532 q 954 631 1040 631 m 367 94 q 520 144 464 94 q 576 279 576 194 l 576 326 l 371 326 q 201 217 201 326 q 245 126 201 158 q 367 94 289 94 m 758 1024 l 928 1024 l 694 843 l 569 843 l 758 1024 z "},"b":{"ha":947,"x_min":126,"x_max":889,"o":"m 517 743 q 708 696 624 743 q 841 564 793 649 q 889 368 889 479 q 841 172 889 257 q 708 39 793 86 q 517 -8 624 -8 q 367 24 435 -8 q 254 117 299 56 l 254 0 l 126 0 l 126 1031 l 260 1031 l 260 625 q 371 713 304 683 q 517 743 438 743 m 506 108 q 633 141 576 108 q 722 233 689 174 q 754 368 754 292 q 722 503 754 444 q 633 594 689 563 q 506 626 576 626 q 379 594 436 626 q 290 503 322 563 q 258 368 258 444 q 290 233 258 292 q 379 141 322 174 q 506 108 436 108 z "},"c":{"ha":793,"x_min":58,"x_max":747,"o":"m 447 -8 q 247 40 335 -8 q 108 174 158 89 q 58 368 58 260 q 108 562 58 476 q 247 695 158 647 q 447 743 335 743 q 626 703 547 743 q 747 586 704 663 l 646 521 q 560 600 611 574 q 446 626 508 626 q 316 594 374 626 q 226 503 258 563 q 193 368 193 444 q 226 231 193 290 q 316 140 258 172 q 446 108 374 108 q 560 135 508 108 q 646 214 611 161 l 747 150 q 626 33 704 74 q 447 -8 547 -8 z "},"ć":{"ha":793,"x_min":58,"x_max":747,"o":"m 447 -8 q 247 40 335 -8 q 108 174 158 89 q 58 368 58 260 q 108 562 58 476 q 247 695 158 647 q 447 743 335 743 q 626 703 547 743 q 747 586 704 663 l 646 521 q 560 600 611 574 q 446 626 508 626 q 316 594 374 626 q 226 503 258 563 q 193 368 193 444 q 226 231 193 290 q 316 140 258 172 q 446 108 374 108 q 560 135 508 108 q 646 214 611 161 l 747 150 q 626 33 704 74 q 447 -8 547 -8 m 506 1024 l 675 1024 l 442 843 l 317 843 l 506 1024 z "},"č":{"ha":793,"x_min":58,"x_max":747,"o":"m 447 -8 q 247 40 335 -8 q 108 174 158 89 q 58 368 58 260 q 108 562 58 476 q 247 695 158 647 q 447 743 335 743 q 626 703 547 743 q 747 586 704 663 l 646 521 q 560 600 611 574 q 446 626 508 626 q 316 594 374 626 q 226 503 258 563 q 193 368 193 444 q 226 231 193 290 q 316 140 258 172 q 446 108 374 108 q 560 135 508 108 q 646 214 611 161 l 747 150 q 626 33 704 74 q 447 -8 547 -8 m 669 1024 l 485 843 l 357 843 l 172 1024 l 293 1024 l 421 918 l 549 1024 l 669 1024 z "},"ç":{"ha":793,"x_min":58,"x_max":747,"o":"m 447 -8 q 247 40 335 -8 q 108 174 158 89 q 58 368 58 260 q 108 562 58 476 q 247 695 158 647 q 447 743 335 743 q 626 703 547 743 q 747 586 704 663 l 646 521 q 560 600 611 574 q 446 626 508 626 q 316 594 374 626 q 226 503 258 563 q 193 368 193 444 q 226 231 193 290 q 316 140 258 172 q 446 108 374 108 q 560 135 508 108 q 646 214 611 161 l 747 150 q 626 33 704 74 q 447 -8 547 -8 m 382 -311 q 258 -281 310 -311 l 288 -212 q 382 -236 329 -236 q 460 -181 460 -236 q 440 -141 460 -156 q 381 -126 421 -126 l 343 -126 l 378 10 l 454 10 l 433 -69 q 523 -106 492 -75 q 554 -185 554 -137 q 507 -277 554 -243 q 382 -311 460 -311 z "},"ḉ":{"ha":793,"x_min":58,"x_max":747,"o":"m 447 -8 q 247 40 335 -8 q 108 174 158 89 q 58 368 58 260 q 108 562 58 476 q 247 695 158 647 q 447 743 335 743 q 626 703 547 743 q 747 586 704 663 l 646 521 q 560 600 611 574 q 446 626 508 626 q 316 594 374 626 q 226 503 258 563 q 193 368 193 444 q 226 231 193 290 q 316 140 258 172 q 446 108 374 108 q 560 135 508 108 q 646 214 611 161 l 747 150 q 626 33 704 74 q 447 -8 547 -8 m 382 -311 q 258 -281 310 -311 l 288 -212 q 382 -236 329 -236 q 460 -181 460 -236 q 440 -141 460 -156 q 381 -126 421 -126 l 343 -126 l 378 10 l 454 10 l 433 -69 q 523 -106 492 -75 q 554 -185 554 -137 q 507 -277 554 -243 q 382 -311 460 -311 m 506 1024 l 675 1024 l 442 843 l 317 843 l 506 1024 z "},"ĉ":{"ha":793,"x_min":58,"x_max":747,"o":"m 447 -8 q 247 40 335 -8 q 108 174 158 89 q 58 368 58 260 q 108 562 58 476 q 247 695 158 647 q 447 743 335 743 q 626 703 547 743 q 747 586 704 663 l 646 521 q 560 600 611 574 q 446 626 508 626 q 316 594 374 626 q 226 503 258 563 q 193 368 193 444 q 226 231 193 290 q 316 140 258 172 q 446 108 374 108 q 560 135 508 108 q 646 214 611 161 l 747 150 q 626 33 704 74 q 447 -8 547 -8 m 549 843 l 421 950 l 293 843 l 172 843 l 357 1024 l 485 1024 l 669 843 l 549 843 z "},"ċ":{"ha":793,"x_min":58,"x_max":747,"o":"m 447 -8 q 247 40 335 -8 q 108 174 158 89 q 58 368 58 260 q 108 562 58 476 q 247 695 158 647 q 447 743 335 743 q 626 703 547 743 q 747 586 704 663 l 646 521 q 560 600 611 574 q 446 626 508 626 q 316 594 374 626 q 226 503 258 563 q 193 368 193 444 q 226 231 193 290 q 316 140 258 172 q 446 108 374 108 q 560 135 508 108 q 646 214 611 161 l 747 150 q 626 33 704 74 q 447 -8 547 -8 m 421 868 q 363 892 386 868 q 339 950 339 915 q 363 1008 339 985 q 421 1032 386 1032 q 479 1008 456 1032 q 503 950 503 985 q 479 892 503 915 q 421 868 456 868 z "},"d":{"ha":947,"x_min":58,"x_max":821,"o":"m 821 1031 l 821 0 l 693 0 l 693 117 q 581 24 649 56 q 431 -8 513 -8 q 239 39 324 -8 q 106 172 154 86 q 58 368 58 257 q 106 564 58 479 q 239 696 154 649 q 431 743 324 743 q 576 713 510 743 q 688 625 643 683 l 688 1031 l 821 1031 m 442 108 q 568 141 511 108 q 657 233 625 174 q 689 368 689 292 q 657 503 689 444 q 568 594 625 563 q 442 626 511 626 q 315 594 371 626 q 226 503 258 563 q 193 368 193 444 q 226 233 193 292 q 315 141 258 174 q 442 108 371 108 z "},"ð":{"ha":889,"x_min":58,"x_max":831,"o":"m 707 865 q 831 479 831 726 q 781 219 831 329 q 637 49 732 108 q 408 -11 542 -11 q 230 27 310 -11 q 104 136 150 65 q 58 300 58 207 q 104 463 58 393 q 231 572 150 533 q 413 610 311 610 q 580 572 507 610 q 694 461 653 533 q 696 508 696 478 q 585 815 696 715 l 214 667 l 178 754 l 479 876 q 349 896 418 896 q 147 864 240 896 l 125 978 q 349 1008 226 1008 q 625 935 511 1008 l 749 985 l 785 896 l 707 865 m 418 101 q 545 129 490 101 q 628 202 600 157 q 657 300 657 247 q 627 401 657 356 q 545 472 597 446 q 426 497 493 497 q 256 443 318 497 q 193 300 193 389 q 256 156 193 211 q 418 101 318 101 z "},"ď":{"ha":947,"x_min":58,"x_max":1054,"o":"m 821 1031 l 821 0 l 693 0 l 693 117 q 581 24 649 56 q 431 -8 513 -8 q 239 39 324 -8 q 106 172 154 86 q 58 368 58 257 q 106 564 58 479 q 239 696 154 649 q 431 743 324 743 q 576 713 510 743 q 688 625 643 683 l 688 1031 l 821 1031 m 442 108 q 568 141 511 108 q 657 233 625 174 q 689 368 689 292 q 657 503 689 444 q 568 594 625 563 q 442 626 511 626 q 315 594 371 626 q 226 503 258 563 q 193 368 193 444 q 226 233 193 292 q 315 141 258 174 q 442 108 371 108 m 944 1076 l 1054 1076 l 1038 808 l 944 808 l 944 1076 z "},"đ":{"ha":947,"x_min":58,"x_max":947,"o":"m 821 1031 l 821 0 l 693 0 l 693 117 q 581 24 649 56 q 431 -8 513 -8 q 239 39 324 -8 q 106 172 154 86 q 58 368 58 257 q 106 564 58 479 q 239 696 154 649 q 431 743 324 743 q 576 713 510 743 q 688 625 643 683 l 688 1031 l 821 1031 m 442 108 q 568 141 511 108 q 657 233 625 174 q 689 368 689 292 q 657 503 689 444 q 568 594 625 563 q 442 626 511 626 q 315 594 371 626 q 226 503 258 563 q 193 368 193 444 q 226 233 193 292 q 315 141 258 174 q 442 108 371 108 m 397 928 l 947 928 l 947 833 l 397 833 l 397 928 z "},"ḍ":{"ha":947,"x_min":58,"x_max":821,"o":"m 821 1031 l 821 0 l 693 0 l 693 117 q 581 24 649 56 q 431 -8 513 -8 q 239 39 324 -8 q 106 172 154 86 q 58 368 58 257 q 106 564 58 479 q 239 696 154 649 q 431 743 324 743 q 576 713 510 743 q 688 625 643 683 l 688 1031 l 821 1031 m 442 108 q 568 141 511 108 q 657 233 625 174 q 689 368 689 292 q 657 503 689 444 q 568 594 625 563 q 442 626 511 626 q 315 594 371 626 q 226 503 258 563 q 193 368 193 444 q 226 233 193 292 q 315 141 258 174 q 442 108 371 108 m 482 -272 q 432 -253 453 -272 q 411 -203 411 -233 q 432 -151 411 -172 q 482 -131 453 -131 q 532 -151 511 -131 q 553 -203 553 -172 q 532 -253 553 -233 q 482 -272 511 -272 z "},"ḏ":{"ha":947,"x_min":58,"x_max":821,"o":"m 821 1031 l 821 0 l 693 0 l 693 117 q 581 24 649 56 q 431 -8 513 -8 q 239 39 324 -8 q 106 172 154 86 q 58 368 58 257 q 106 564 58 479 q 239 696 154 649 q 431 743 324 743 q 576 713 510 743 q 688 625 643 683 l 688 1031 l 821 1031 m 442 108 q 568 141 511 108 q 657 233 625 174 q 689 368 689 292 q 657 503 689 444 q 568 594 625 563 q 442 626 511 626 q 315 594 371 626 q 226 503 258 563 q 193 368 193 444 q 226 233 193 292 q 315 141 258 174 q 442 108 371 108 m 256 -157 l 708 -157 l 708 -242 l 256 -242 l 256 -157 z "},"ǆ":{"ha":1685,"x_min":58,"x_max":1626,"o":"m 821 1031 l 821 0 l 693 0 l 693 117 q 581 24 649 56 q 431 -8 513 -8 q 239 39 324 -8 q 106 172 154 86 q 58 368 58 257 q 106 564 58 479 q 239 696 154 649 q 431 743 324 743 q 576 713 510 743 q 688 625 643 683 l 688 1031 l 821 1031 m 442 108 q 568 141 511 108 q 657 233 625 174 q 689 368 689 292 q 657 503 689 444 q 568 594 625 563 q 442 626 511 626 q 315 594 371 626 q 226 503 258 563 q 193 368 193 444 q 226 233 193 292 q 315 141 258 174 q 442 108 371 108 m 1626 110 l 1626 0 l 1010 0 l 1010 86 l 1197 319 l 1064 319 l 1064 425 l 1283 425 l 1444 626 l 1018 626 l 1018 736 l 1615 736 l 1615 649 l 1433 424 l 1571 424 l 1571 318 l 1349 318 l 1181 110 l 1626 110 m 1563 1024 l 1378 843 l 1250 843 l 1065 1024 l 1186 1024 l 1314 918 l 1442 1024 l 1563 1024 z "},"e":{"ha":850,"x_min":58,"x_max":790,"o":"m 458 108 q 671 197 590 108 l 743 111 q 620 22 694 53 q 454 -8 546 -8 q 247 40 338 -8 q 108 174 157 88 q 58 368 58 260 q 106 561 58 475 q 238 695 154 647 q 428 743 322 743 q 610 698 528 743 q 740 571 692 653 q 790 382 789 489 l 206 268 q 299 150 233 192 q 458 108 365 108 m 428 631 q 303 599 358 631 q 218 509 249 567 q 188 375 188 451 l 188 361 l 658 450 q 578 581 640 531 q 428 631 515 631 z "},"é":{"ha":850,"x_min":58,"x_max":790,"o":"m 458 108 q 671 197 590 108 l 743 111 q 620 22 694 53 q 454 -8 546 -8 q 247 40 338 -8 q 108 174 157 88 q 58 368 58 260 q 106 561 58 475 q 238 695 154 647 q 428 743 322 743 q 610 698 528 743 q 740 571 692 653 q 790 382 789 489 l 206 268 q 299 150 233 192 q 458 108 365 108 m 428 631 q 303 599 358 631 q 218 509 249 567 q 188 375 188 451 l 188 361 l 658 450 q 578 581 640 531 q 428 631 515 631 m 507 1024 l 676 1024 l 443 843 l 318 843 l 507 1024 z "},"ĕ":{"ha":850,"x_min":58,"x_max":790,"o":"m 458 108 q 671 197 590 108 l 743 111 q 620 22 694 53 q 454 -8 546 -8 q 247 40 338 -8 q 108 174 157 88 q 58 368 58 260 q 106 561 58 475 q 238 695 154 647 q 428 743 322 743 q 610 698 528 743 q 740 571 692 653 q 790 382 789 489 l 206 268 q 299 150 233 192 q 458 108 365 108 m 428 631 q 303 599 358 631 q 218 509 249 567 q 188 375 188 451 l 188 361 l 658 450 q 578 581 640 531 q 428 631 515 631 m 422 835 q 263 886 326 835 q 197 1024 200 938 l 288 1024 q 327 943 289 974 q 422 913 365 913 q 517 943 479 913 q 557 1024 556 974 l 647 1024 q 581 886 644 938 q 422 835 518 835 z "},"ě":{"ha":850,"x_min":58,"x_max":790,"o":"m 458 108 q 671 197 590 108 l 743 111 q 620 22 694 53 q 454 -8 546 -8 q 247 40 338 -8 q 108 174 157 88 q 58 368 58 260 q 106 561 58 475 q 238 695 154 647 q 428 743 322 743 q 610 698 528 743 q 740 571 692 653 q 790 382 789 489 l 206 268 q 299 150 233 192 q 458 108 365 108 m 428 631 q 303 599 358 631 q 218 509 249 567 q 188 375 188 451 l 188 361 l 658 450 q 578 581 640 531 q 428 631 515 631 m 671 1024 l 486 843 l 358 843 l 174 1024 l 294 1024 l 422 918 l 550 1024 l 671 1024 z "},"ḝ":{"ha":850,"x_min":58,"x_max":790,"o":"m 458 108 q 671 197 590 108 l 743 111 q 620 22 694 53 q 454 -8 546 -8 q 247 40 338 -8 q 108 174 157 88 q 58 368 58 260 q 106 561 58 475 q 238 695 154 647 q 428 743 322 743 q 610 698 528 743 q 740 571 692 653 q 790 382 789 489 l 206 268 q 299 150 233 192 q 458 108 365 108 m 428 631 q 303 599 358 631 q 218 509 249 567 q 188 375 188 451 l 188 361 l 658 450 q 578 581 640 531 q 428 631 515 631 m 388 -311 q 264 -281 315 -311 l 293 -212 q 388 -236 335 -236 q 465 -181 465 -236 q 446 -141 465 -156 q 386 -126 426 -126 l 349 -126 l 383 10 l 460 10 l 439 -69 q 528 -106 497 -75 q 560 -185 560 -137 q 513 -277 560 -243 q 388 -311 465 -311 m 422 835 q 263 886 326 835 q 197 1024 200 938 l 288 1024 q 327 943 289 974 q 422 913 365 913 q 517 943 479 913 q 557 1024 556 974 l 647 1024 q 581 886 644 938 q 422 835 518 835 z "},"ê":{"ha":850,"x_min":58,"x_max":790,"o":"m 458 108 q 671 197 590 108 l 743 111 q 620 22 694 53 q 454 -8 546 -8 q 247 40 338 -8 q 108 174 157 88 q 58 368 58 260 q 106 561 58 475 q 238 695 154 647 q 428 743 322 743 q 610 698 528 743 q 740 571 692 653 q 790 382 789 489 l 206 268 q 299 150 233 192 q 458 108 365 108 m 428 631 q 303 599 358 631 q 218 509 249 567 q 188 375 188 451 l 188 361 l 658 450 q 578 581 640 531 q 428 631 515 631 m 550 843 l 422 950 l 294 843 l 174 843 l 358 1024 l 486 1024 l 671 843 l 550 843 z "},"ế":{"ha":850,"x_min":58,"x_max":875,"o":"m 458 108 q 671 197 590 108 l 743 111 q 620 22 694 53 q 454 -8 546 -8 q 247 40 338 -8 q 108 174 157 88 q 58 368 58 260 q 106 561 58 475 q 238 695 154 647 q 428 743 322 743 q 610 698 528 743 q 740 571 692 653 q 790 382 789 489 l 206 268 q 299 150 233 192 q 458 108 365 108 m 428 631 q 303 599 358 631 q 218 509 249 567 q 188 375 188 451 l 188 361 l 658 450 q 578 581 640 531 q 428 631 515 631 m 549 843 l 422 921 l 296 843 l 174 843 l 360 982 l 485 982 l 671 843 l 549 843 m 724 1122 l 875 1122 l 669 965 l 560 965 l 724 1122 z "},"ệ":{"ha":850,"x_min":58,"x_max":790,"o":"m 458 108 q 671 197 590 108 l 743 111 q 620 22 694 53 q 454 -8 546 -8 q 247 40 338 -8 q 108 174 157 88 q 58 368 58 260 q 106 561 58 475 q 238 695 154 647 q 428 743 322 743 q 610 698 528 743 q 740 571 692 653 q 790 382 789 489 l 206 268 q 299 150 233 192 q 458 108 365 108 m 428 631 q 303 599 358 631 q 218 509 249 567 q 188 375 188 451 l 188 361 l 658 450 q 578 581 640 531 q 428 631 515 631 m 422 -272 q 372 -253 393 -272 q 351 -203 351 -233 q 372 -151 351 -172 q 422 -131 393 -131 q 472 -151 451 -131 q 493 -203 493 -172 q 472 -253 493 -233 q 422 -272 451 -272 m 550 843 l 422 950 l 294 843 l 174 843 l 358 1024 l 486 1024 l 671 843 l 550 843 z "},"ề":{"ha":850,"x_min":58,"x_max":790,"o":"m 458 108 q 671 197 590 108 l 743 111 q 620 22 694 53 q 454 -8 546 -8 q 247 40 338 -8 q 108 174 157 88 q 58 368 58 260 q 106 561 58 475 q 238 695 154 647 q 428 743 322 743 q 610 698 528 743 q 740 571 692 653 q 790 382 789 489 l 206 268 q 299 150 233 192 q 458 108 365 108 m 428 631 q 303 599 358 631 q 218 509 249 567 q 188 375 188 451 l 188 361 l 658 450 q 578 581 640 531 q 428 631 515 631 m 549 843 l 422 921 l 296 843 l 174 843 l 360 982 l 485 982 l 671 843 l 549 843 m 438 1122 l 589 1122 l 751 965 l 643 965 l 438 1122 z "},"ể":{"ha":850,"x_min":58,"x_max":790,"o":"m 458 108 q 671 197 590 108 l 743 111 q 620 22 694 53 q 454 -8 546 -8 q 247 40 338 -8 q 108 174 157 88 q 58 368 58 260 q 106 561 58 475 q 238 695 154 647 q 428 743 322 743 q 610 698 528 743 q 740 571 692 653 q 790 382 789 489 l 206 268 q 299 150 233 192 q 458 108 365 108 m 428 631 q 303 599 358 631 q 218 509 249 567 q 188 375 188 451 l 188 361 l 658 450 q 578 581 640 531 q 428 631 515 631 m 549 843 l 422 921 l 296 843 l 174 843 l 360 982 l 485 982 l 671 843 l 549 843 m 589 981 q 631 1011 617 993 q 644 1047 644 1029 q 630 1078 644 1067 q 592 1090 615 1090 q 532 1074 561 1090 l 507 1125 q 603 1151 549 1151 q 682 1124 653 1151 q 711 1054 711 1097 q 688 987 711 1017 q 625 940 664 957 l 589 981 z "},"ễ":{"ha":850,"x_min":58,"x_max":790,"o":"m 458 108 q 671 197 590 108 l 743 111 q 620 22 694 53 q 454 -8 546 -8 q 247 40 338 -8 q 108 174 157 88 q 58 368 58 260 q 106 561 58 475 q 238 695 154 647 q 428 743 322 743 q 610 698 528 743 q 740 571 692 653 q 790 382 789 489 l 206 268 q 299 150 233 192 q 458 108 365 108 m 428 631 q 303 599 358 631 q 218 509 249 567 q 188 375 188 451 l 188 361 l 658 450 q 578 581 640 531 q 428 631 515 631 m 549 843 l 422 921 l 296 843 l 174 843 l 360 982 l 485 982 l 671 843 l 549 843 m 519 1029 q 459 1040 485 1029 q 400 1074 433 1051 q 332 1104 357 1104 q 268 1035 271 1104 l 193 1035 q 230 1140 194 1101 q 326 1178 265 1178 q 384 1167 358 1178 q 443 1133 410 1156 q 482 1110 467 1118 q 514 1103 497 1103 q 560 1121 544 1103 q 578 1171 576 1139 l 651 1171 q 615 1067 650 1106 q 519 1029 579 1029 z "},"ȅ":{"ha":850,"x_min":58,"x_max":790,"o":"m 458 108 q 671 197 590 108 l 743 111 q 620 22 694 53 q 454 -8 546 -8 q 247 40 338 -8 q 108 174 157 88 q 58 368 58 260 q 106 561 58 475 q 238 695 154 647 q 428 743 322 743 q 610 698 528 743 q 740 571 692 653 q 790 382 789 489 l 206 268 q 299 150 233 192 q 458 108 365 108 m 428 631 q 303 599 358 631 q 218 509 249 567 q 188 375 188 451 l 188 361 l 658 450 q 578 581 640 531 q 428 631 515 631 m 93 1024 l 233 1024 l 357 843 l 244 843 l 93 1024 m 333 1024 l 475 1024 l 600 843 l 488 843 l 333 1024 z "},"ë":{"ha":850,"x_min":58,"x_max":790,"o":"m 458 108 q 671 197 590 108 l 743 111 q 620 22 694 53 q 454 -8 546 -8 q 247 40 338 -8 q 108 174 157 88 q 58 368 58 260 q 106 561 58 475 q 238 695 154 647 q 428 743 322 743 q 610 698 528 743 q 740 571 692 653 q 790 382 789 489 l 206 268 q 299 150 233 192 q 458 108 365 108 m 428 631 q 303 599 358 631 q 218 509 249 567 q 188 375 188 451 l 188 361 l 658 450 q 578 581 640 531 q 428 631 515 631 m 293 867 q 243 887 264 867 q 222 938 222 907 q 243 989 222 968 q 293 1010 264 1010 q 343 989 322 1010 q 364 938 364 968 q 343 887 364 907 q 293 867 322 867 m 551 867 q 501 887 522 867 q 481 938 481 907 q 501 989 481 968 q 551 1010 522 1010 q 601 989 581 1010 q 622 938 622 968 q 601 887 622 907 q 551 867 581 867 z "},"ė":{"ha":850,"x_min":58,"x_max":790,"o":"m 458 108 q 671 197 590 108 l 743 111 q 620 22 694 53 q 454 -8 546 -8 q 247 40 338 -8 q 108 174 157 88 q 58 368 58 260 q 106 561 58 475 q 238 695 154 647 q 428 743 322 743 q 610 698 528 743 q 740 571 692 653 q 790 382 789 489 l 206 268 q 299 150 233 192 q 458 108 365 108 m 428 631 q 303 599 358 631 q 218 509 249 567 q 188 375 188 451 l 188 361 l 658 450 q 578 581 640 531 q 428 631 515 631 m 422 868 q 364 892 388 868 q 340 950 340 915 q 364 1008 340 985 q 422 1032 388 1032 q 481 1008 457 1032 q 504 950 504 985 q 481 892 504 915 q 422 868 457 868 z "},"ẹ":{"ha":850,"x_min":58,"x_max":790,"o":"m 458 108 q 671 197 590 108 l 743 111 q 620 22 694 53 q 454 -8 546 -8 q 247 40 338 -8 q 108 174 157 88 q 58 368 58 260 q 106 561 58 475 q 238 695 154 647 q 428 743 322 743 q 610 698 528 743 q 740 571 692 653 q 790 382 789 489 l 206 268 q 299 150 233 192 q 458 108 365 108 m 428 631 q 303 599 358 631 q 218 509 249 567 q 188 375 188 451 l 188 361 l 658 450 q 578 581 640 531 q 428 631 515 631 m 422 -272 q 372 -253 393 -272 q 351 -203 351 -233 q 372 -151 351 -172 q 422 -131 393 -131 q 472 -151 451 -131 q 493 -203 493 -172 q 472 -253 493 -233 q 422 -272 451 -272 z "},"è":{"ha":850,"x_min":58,"x_max":790,"o":"m 458 108 q 671 197 590 108 l 743 111 q 620 22 694 53 q 454 -8 546 -8 q 247 40 338 -8 q 108 174 157 88 q 58 368 58 260 q 106 561 58 475 q 238 695 154 647 q 428 743 322 743 q 610 698 528 743 q 740 571 692 653 q 790 382 789 489 l 206 268 q 299 150 233 192 q 458 108 365 108 m 428 631 q 303 599 358 631 q 218 509 249 567 q 188 375 188 451 l 188 361 l 658 450 q 578 581 640 531 q 428 631 515 631 m 168 1024 l 338 1024 l 526 843 l 401 843 l 168 1024 z "},"ẻ":{"ha":850,"x_min":58,"x_max":790,"o":"m 458 108 q 671 197 590 108 l 743 111 q 620 22 694 53 q 454 -8 546 -8 q 247 40 338 -8 q 108 174 157 88 q 58 368 58 260 q 106 561 58 475 q 238 695 154 647 q 428 743 322 743 q 610 698 528 743 q 740 571 692 653 q 790 382 789 489 l 206 268 q 299 150 233 192 q 458 108 365 108 m 428 631 q 303 599 358 631 q 218 509 249 567 q 188 375 188 451 l 188 361 l 658 450 q 578 581 640 531 q 428 631 515 631 m 403 885 q 462 926 443 903 q 481 978 481 949 q 460 1024 481 1006 q 408 1043 440 1043 q 325 1017 365 1043 l 294 1079 q 353 1108 319 1099 q 421 1118 386 1118 q 523 1083 483 1118 q 563 989 563 1047 q 449 831 563 883 l 403 885 z "},"ȇ":{"ha":850,"x_min":58,"x_max":790,"o":"m 458 108 q 671 197 590 108 l 743 111 q 620 22 694 53 q 454 -8 546 -8 q 247 40 338 -8 q 108 174 157 88 q 58 368 58 260 q 106 561 58 475 q 238 695 154 647 q 428 743 322 743 q 610 698 528 743 q 740 571 692 653 q 790 382 789 489 l 206 268 q 299 150 233 192 q 458 108 365 108 m 428 631 q 303 599 358 631 q 218 509 249 567 q 188 375 188 451 l 188 361 l 658 450 q 578 581 640 531 q 428 631 515 631 m 197 843 q 263 981 200 929 q 422 1032 326 1032 q 581 981 518 1032 q 647 843 644 929 l 557 843 q 517 924 556 894 q 422 954 479 954 q 327 924 365 954 q 288 843 289 894 l 197 843 z "},"ē":{"ha":850,"x_min":58,"x_max":790,"o":"m 458 108 q 671 197 590 108 l 743 111 q 620 22 694 53 q 454 -8 546 -8 q 247 40 338 -8 q 108 174 157 88 q 58 368 58 260 q 106 561 58 475 q 238 695 154 647 q 428 743 322 743 q 610 698 528 743 q 740 571 692 653 q 790 382 789 489 l 206 268 q 299 150 233 192 q 458 108 365 108 m 428 631 q 303 599 358 631 q 218 509 249 567 q 188 375 188 451 l 188 361 l 658 450 q 578 581 640 531 q 428 631 515 631 m 196 975 l 649 975 l 649 892 l 196 892 l 196 975 z "},"ḗ":{"ha":850,"x_min":58,"x_max":790,"o":"m 458 108 q 671 197 590 108 l 743 111 q 620 22 694 53 q 454 -8 546 -8 q 247 40 338 -8 q 108 174 157 88 q 58 368 58 260 q 106 561 58 475 q 238 695 154 647 q 428 743 322 743 q 610 698 528 743 q 740 571 692 653 q 790 382 789 489 l 206 268 q 299 150 233 192 q 458 108 365 108 m 428 631 q 303 599 358 631 q 218 509 249 567 q 188 375 188 451 l 188 361 l 658 450 q 578 581 640 531 q 428 631 515 631 m 196 953 l 649 953 l 649 874 l 196 874 l 196 953 m 490 1197 l 642 1197 l 436 1040 l 326 1040 l 490 1197 z "},"ḕ":{"ha":850,"x_min":58,"x_max":790,"o":"m 458 108 q 671 197 590 108 l 743 111 q 620 22 694 53 q 454 -8 546 -8 q 247 40 338 -8 q 108 174 157 88 q 58 368 58 260 q 106 561 58 475 q 238 695 154 647 q 428 743 322 743 q 610 698 528 743 q 740 571 692 653 q 790 382 789 489 l 206 268 q 299 150 233 192 q 458 108 365 108 m 428 631 q 303 599 358 631 q 218 509 249 567 q 188 375 188 451 l 188 361 l 658 450 q 578 581 640 531 q 428 631 515 631 m 196 953 l 649 953 l 649 874 l 196 874 l 196 953 m 204 1197 l 356 1197 l 518 1040 l 410 1040 l 204 1197 z "},"ę":{"ha":850,"x_min":58,"x_max":790,"o":"m 690 61 q 567 -62 601 -11 q 533 -157 533 -112 q 557 -214 533 -194 q 619 -233 581 -233 q 665 -227 642 -233 q 704 -210 688 -221 l 729 -278 q 604 -311 676 -311 q 483 -272 528 -311 q 439 -165 439 -232 q 507 -6 439 -79 q 454 -8 471 -8 q 247 40 338 -8 q 108 174 157 88 q 58 368 58 260 q 106 561 58 475 q 238 695 154 647 q 428 743 322 743 q 610 698 528 743 q 740 571 692 653 q 790 382 789 489 l 206 268 q 299 150 233 192 q 458 108 365 108 q 671 197 590 108 l 743 111 q 690 61 729 94 m 428 631 q 303 599 358 631 q 218 509 249 567 q 188 375 188 451 l 188 361 l 658 450 q 578 581 640 531 q 428 631 515 631 z "},"ẽ":{"ha":850,"x_min":58,"x_max":790,"o":"m 458 108 q 671 197 590 108 l 743 111 q 620 22 694 53 q 454 -8 546 -8 q 247 40 338 -8 q 108 174 157 88 q 58 368 58 260 q 106 561 58 475 q 238 695 154 647 q 428 743 322 743 q 610 698 528 743 q 740 571 692 653 q 790 382 789 489 l 206 268 q 299 150 233 192 q 458 108 365 108 m 428 631 q 303 599 358 631 q 218 509 249 567 q 188 375 188 451 l 188 361 l 658 450 q 578 581 640 531 q 428 631 515 631 m 519 847 q 462 861 486 847 q 401 903 438 875 q 365 931 381 922 q 335 940 350 940 q 285 917 304 940 q 264 854 265 894 l 189 854 q 228 978 192 932 q 325 1024 265 1024 q 384 1009 358 1024 q 443 967 410 994 q 481 938 467 947 q 510 929 494 929 q 560 951 540 929 q 581 1013 579 974 l 656 1013 q 616 892 653 938 q 519 847 579 847 z "},"ə":{"ha":850,"x_min":60,"x_max":792,"o":"m 392 628 q 179 539 260 628 l 107 625 q 230 714 156 683 q 396 744 304 744 q 603 697 513 744 q 742 563 693 649 q 792 368 792 476 q 744 175 792 261 q 612 41 696 89 q 422 -7 528 -7 q 240 38 322 -7 q 110 165 158 83 q 60 354 61 247 l 644 468 q 551 586 617 544 q 392 628 485 628 m 422 106 q 547 138 492 106 q 632 227 601 169 q 663 361 663 285 l 663 375 l 192 286 q 272 156 210 206 q 422 106 335 106 z "},"ʒ":{"ha":732,"x_min":-28,"x_max":686,"o":"m 383 313 q 609 225 532 301 q 686 26 686 149 q 645 -129 686 -60 q 522 -239 604 -199 q 322 -279 440 -279 q 123 -246 217 -279 q -28 -157 29 -212 l 24 -46 q 151 -126 72 -96 q 317 -156 229 -156 q 488 -108 428 -156 q 549 26 549 -60 q 490 158 549 111 q 311 206 431 206 l 232 206 l 232 300 l 485 618 l 7 618 l 7 736 l 644 736 l 644 640 l 383 313 z "},"ǯ":{"ha":732,"x_min":-28,"x_max":686,"o":"m 383 313 q 609 225 532 301 q 686 26 686 149 q 645 -129 686 -60 q 522 -239 604 -199 q 322 -279 440 -279 q 123 -246 217 -279 q -28 -157 29 -212 l 24 -46 q 151 -126 72 -96 q 317 -156 229 -156 q 488 -108 428 -156 q 549 26 549 -60 q 490 158 549 111 q 311 206 431 206 l 232 206 l 232 300 l 485 618 l 7 618 l 7 736 l 644 736 l 644 640 l 383 313 m 563 1024 l 378 843 l 250 843 l 65 1024 l 186 1024 l 314 918 l 442 1024 l 563 1024 z "},"f":{"ha":471,"x_min":126,"x_max":519,"o":"m 376 929 q 257 800 257 929 l 257 736 l 472 736 l 472 626 l 260 626 l 260 0 l 126 0 l 126 801 q 190 975 126 911 q 369 1039 254 1039 q 453 1028 414 1039 q 519 996 492 1017 l 479 894 q 376 929 433 929 z "},"g":{"ha":958,"x_min":58,"x_max":831,"o":"m 831 736 l 831 100 q 735 -185 831 -93 q 449 -278 639 -278 q 250 -249 344 -278 q 97 -168 156 -221 l 161 -65 q 288 -135 213 -110 q 444 -161 364 -161 q 635 -100 574 -161 q 697 86 697 -39 l 697 144 q 581 59 650 88 q 432 31 513 31 q 241 76 326 31 q 107 202 156 121 q 58 388 58 283 q 107 573 58 492 q 241 699 156 654 q 432 743 326 743 q 587 713 515 743 q 704 622 658 682 l 704 736 l 831 736 m 447 147 q 577 178 519 147 q 667 263 635 208 q 700 388 700 318 q 629 560 700 494 q 447 626 558 626 q 264 560 335 626 q 193 388 193 494 q 226 263 193 318 q 316 178 258 208 q 447 147 374 147 z "},"ğ":{"ha":958,"x_min":58,"x_max":831,"o":"m 831 736 l 831 100 q 735 -185 831 -93 q 449 -278 639 -278 q 250 -249 344 -278 q 97 -168 156 -221 l 161 -65 q 288 -135 213 -110 q 444 -161 364 -161 q 635 -100 574 -161 q 697 86 697 -39 l 697 144 q 581 59 650 88 q 432 31 513 31 q 241 76 326 31 q 107 202 156 121 q 58 388 58 283 q 107 573 58 492 q 241 699 156 654 q 432 743 326 743 q 587 713 515 743 q 704 622 658 682 l 704 736 l 831 736 m 447 147 q 577 178 519 147 q 667 263 635 208 q 700 388 700 318 q 629 560 700 494 q 447 626 558 626 q 264 560 335 626 q 193 388 193 494 q 226 263 193 318 q 316 178 258 208 q 447 147 374 147 m 457 835 q 298 886 361 835 q 232 1024 235 938 l 322 1024 q 362 943 324 974 q 457 913 400 913 q 552 943 514 913 q 592 1024 590 974 l 682 1024 q 616 886 679 938 q 457 835 553 835 z "},"ǧ":{"ha":958,"x_min":58,"x_max":831,"o":"m 831 736 l 831 100 q 735 -185 831 -93 q 449 -278 639 -278 q 250 -249 344 -278 q 97 -168 156 -221 l 161 -65 q 288 -135 213 -110 q 444 -161 364 -161 q 635 -100 574 -161 q 697 86 697 -39 l 697 144 q 581 59 650 88 q 432 31 513 31 q 241 76 326 31 q 107 202 156 121 q 58 388 58 283 q 107 573 58 492 q 241 699 156 654 q 432 743 326 743 q 587 713 515 743 q 704 622 658 682 l 704 736 l 831 736 m 447 147 q 577 178 519 147 q 667 263 635 208 q 700 388 700 318 q 629 560 700 494 q 447 626 558 626 q 264 560 335 626 q 193 388 193 494 q 226 263 193 318 q 316 178 258 208 q 447 147 374 147 m 706 1024 l 521 843 l 393 843 l 208 1024 l 329 1024 l 457 918 l 585 1024 l 706 1024 z "},"ĝ":{"ha":958,"x_min":58,"x_max":831,"o":"m 831 736 l 831 100 q 735 -185 831 -93 q 449 -278 639 -278 q 250 -249 344 -278 q 97 -168 156 -221 l 161 -65 q 288 -135 213 -110 q 444 -161 364 -161 q 635 -100 574 -161 q 697 86 697 -39 l 697 144 q 581 59 650 88 q 432 31 513 31 q 241 76 326 31 q 107 202 156 121 q 58 388 58 283 q 107 573 58 492 q 241 699 156 654 q 432 743 326 743 q 587 713 515 743 q 704 622 658 682 l 704 736 l 831 736 m 447 147 q 577 178 519 147 q 667 263 635 208 q 700 388 700 318 q 629 560 700 494 q 447 626 558 626 q 264 560 335 626 q 193 388 193 494 q 226 263 193 318 q 316 178 258 208 q 447 147 374 147 m 585 843 l 457 950 l 329 843 l 208 843 l 393 1024 l 521 1024 l 706 843 l 585 843 z "},"ģ":{"ha":958,"x_min":58,"x_max":831,"o":"m 831 736 l 831 100 q 735 -185 831 -93 q 449 -278 639 -278 q 250 -249 344 -278 q 97 -168 156 -221 l 161 -65 q 288 -135 213 -110 q 444 -161 364 -161 q 635 -100 574 -161 q 697 86 697 -39 l 697 144 q 581 59 650 88 q 432 31 513 31 q 241 76 326 31 q 107 202 156 121 q 58 388 58 283 q 107 573 58 492 q 241 699 156 654 q 432 743 326 743 q 587 713 515 743 q 704 622 658 682 l 704 736 l 831 736 m 447 147 q 577 178 519 147 q 667 263 635 208 q 700 388 700 318 q 629 560 700 494 q 447 626 558 626 q 264 560 335 626 q 193 388 193 494 q 226 263 193 318 q 316 178 258 208 q 447 147 374 147 m 488 957 q 522 935 510 950 q 535 899 535 921 q 514 852 535 869 q 457 835 493 835 q 400 853 421 835 q 379 899 379 871 q 400 968 379 926 l 451 1099 l 528 1099 l 488 957 z "},"ġ":{"ha":958,"x_min":58,"x_max":831,"o":"m 831 736 l 831 100 q 735 -185 831 -93 q 449 -278 639 -278 q 250 -249 344 -278 q 97 -168 156 -221 l 161 -65 q 288 -135 213 -110 q 444 -161 364 -161 q 635 -100 574 -161 q 697 86 697 -39 l 697 144 q 581 59 650 88 q 432 31 513 31 q 241 76 326 31 q 107 202 156 121 q 58 388 58 283 q 107 573 58 492 q 241 699 156 654 q 432 743 326 743 q 587 713 515 743 q 704 622 658 682 l 704 736 l 831 736 m 447 147 q 577 178 519 147 q 667 263 635 208 q 700 388 700 318 q 629 560 700 494 q 447 626 558 626 q 264 560 335 626 q 193 388 193 494 q 226 263 193 318 q 316 178 258 208 q 447 147 374 147 m 457 868 q 399 892 422 868 q 375 950 375 915 q 399 1008 375 985 q 457 1032 422 1032 q 515 1008 492 1032 q 539 950 539 985 q 515 892 539 915 q 457 868 492 868 z "},"ḡ":{"ha":958,"x_min":58,"x_max":831,"o":"m 831 736 l 831 100 q 735 -185 831 -93 q 449 -278 639 -278 q 250 -249 344 -278 q 97 -168 156 -221 l 161 -65 q 288 -135 213 -110 q 444 -161 364 -161 q 635 -100 574 -161 q 697 86 697 -39 l 697 144 q 581 59 650 88 q 432 31 513 31 q 241 76 326 31 q 107 202 156 121 q 58 388 58 283 q 107 573 58 492 q 241 699 156 654 q 432 743 326 743 q 587 713 515 743 q 704 622 658 682 l 704 736 l 831 736 m 447 147 q 577 178 519 147 q 667 263 635 208 q 700 388 700 318 q 629 560 700 494 q 447 626 558 626 q 264 560 335 626 q 193 388 193 494 q 226 263 193 318 q 316 178 258 208 q 447 147 374 147 m 231 975 l 683 975 l 683 892 l 231 892 l 231 975 z "},"ǥ":{"ha":969,"x_min":58,"x_max":919,"o":"m 919 -81 l 801 -81 q 449 -278 726 -278 q 250 -249 344 -278 q 97 -168 156 -221 l 161 -65 q 288 -135 213 -110 q 444 -161 364 -161 q 653 -81 593 -161 l 394 -81 l 394 10 l 690 11 q 697 86 697 49 l 697 169 q 581 88 650 115 q 432 60 513 60 q 241 103 326 60 q 107 224 156 146 q 58 403 58 303 q 107 580 58 503 q 241 700 156 657 q 432 743 326 743 q 588 714 517 743 q 704 628 658 685 l 704 736 l 831 736 l 831 100 q 825 11 831 49 l 919 11 l 919 -81 m 447 172 q 629 236 558 172 q 700 403 700 300 q 667 522 700 469 q 578 603 635 574 q 447 632 521 632 q 316 603 374 632 q 226 522 258 574 q 193 403 193 469 q 264 236 193 300 q 447 172 335 172 z "},"h":{"ha":946,"x_min":126,"x_max":825,"o":"m 519 743 q 742 662 660 743 q 825 424 825 581 l 825 0 l 692 0 l 692 408 q 640 569 692 515 q 493 624 589 624 q 322 560 385 624 q 260 379 260 497 l 260 0 l 126 0 l 126 1031 l 260 1031 l 260 632 q 369 714 301 685 q 519 743 436 743 z "},"ħ":{"ha":946,"x_min":0,"x_max":825,"o":"m 519 743 q 742 662 660 743 q 825 424 825 581 l 825 0 l 692 0 l 692 408 q 640 569 692 515 q 493 624 589 624 q 322 560 385 624 q 260 379 260 497 l 260 0 l 126 0 l 126 1031 l 260 1031 l 260 632 q 369 714 301 685 q 519 743 436 743 m 0 928 l 550 928 l 550 833 l 0 833 l 0 928 z "},"ḫ":{"ha":946,"x_min":126,"x_max":825,"o":"m 519 743 q 742 662 660 743 q 825 424 825 581 l 825 0 l 692 0 l 692 408 q 640 569 692 515 q 493 624 589 624 q 322 560 385 624 q 260 379 260 497 l 260 0 l 126 0 l 126 1031 l 260 1031 l 260 632 q 369 714 301 685 q 519 743 436 743 m 476 -290 q 317 -242 381 -290 q 251 -112 254 -193 l 339 -112 q 378 -188 339 -160 q 476 -217 417 -217 q 575 -188 536 -217 q 614 -112 614 -160 l 701 -112 q 635 -242 699 -193 q 476 -290 572 -290 z "},"ȟ":{"ha":946,"x_min":-56,"x_max":825,"o":"m 519 743 q 742 662 660 743 q 825 424 825 581 l 825 0 l 692 0 l 692 408 q 640 569 692 515 q 493 624 589 624 q 322 560 385 624 q 260 379 260 497 l 260 0 l 126 0 l 126 1031 l 260 1031 l 260 632 q 369 714 301 685 q 519 743 436 743 m 442 1318 l 257 1138 l 129 1138 l -56 1318 l 65 1318 l 193 1213 l 321 1318 l 442 1318 z "},"ĥ":{"ha":946,"x_min":-56,"x_max":825,"o":"m 519 743 q 742 662 660 743 q 825 424 825 581 l 825 0 l 692 0 l 692 408 q 640 569 692 515 q 493 624 589 624 q 322 560 385 624 q 260 379 260 497 l 260 0 l 126 0 l 126 1031 l 260 1031 l 260 632 q 369 714 301 685 q 519 743 436 743 m 321 1110 l 193 1217 l 65 1110 l -56 1110 l 129 1290 l 257 1290 l 442 1110 l 321 1110 z "},"ḥ":{"ha":946,"x_min":126,"x_max":825,"o":"m 519 743 q 742 662 660 743 q 825 424 825 581 l 825 0 l 692 0 l 692 408 q 640 569 692 515 q 493 624 589 624 q 322 560 385 624 q 260 379 260 497 l 260 0 l 126 0 l 126 1031 l 260 1031 l 260 632 q 369 714 301 685 q 519 743 436 743 m 476 -272 q 426 -253 447 -272 q 406 -203 406 -233 q 426 -151 406 -172 q 476 -131 447 -131 q 526 -151 506 -131 q 547 -203 547 -172 q 526 -253 547 -233 q 476 -272 506 -272 z "},"i":{"ha":388,"x_min":103,"x_max":283,"o":"m 126 736 l 260 736 l 260 0 l 126 0 l 126 736 m 193 878 q 128 903 154 878 q 103 964 103 928 q 128 1026 103 1000 q 193 1051 154 1051 q 258 1027 232 1051 q 283 967 283 1003 q 258 903 283 929 q 193 878 232 878 z "},"ı":{"ha":388,"x_min":126,"x_max":260,"o":"m 126 736 l 260 736 l 260 0 l 126 0 l 126 736 z "},"í":{"ha":388,"x_min":89,"x_max":447,"o":"m 126 736 l 260 736 l 260 0 l 126 0 l 126 736 m 278 1024 l 447 1024 l 214 843 l 89 843 l 278 1024 z "},"ĭ":{"ha":388,"x_min":3,"x_max":383,"o":"m 126 736 l 260 736 l 260 0 l 126 0 l 126 736 m 193 835 q 56 886 110 835 q 3 1024 3 938 l 89 1024 q 117 942 89 972 q 193 913 146 913 q 269 942 240 913 q 297 1024 297 972 l 383 1024 q 330 886 383 938 q 193 835 276 835 z "},"î":{"ha":388,"x_min":-21,"x_max":407,"o":"m 126 736 l 260 736 l 260 0 l 126 0 l 126 736 m 293 843 l 193 946 l 93 843 l -21 843 l 131 1024 l 256 1024 l 407 843 l 293 843 z "},"ȉ":{"ha":388,"x_min":-136,"x_max":371,"o":"m 126 736 l 260 736 l 260 0 l 126 0 l 126 736 m -136 1024 l 4 1024 l 128 843 l 15 843 l -136 1024 m 104 1024 l 246 1024 l 371 843 l 258 843 l 104 1024 z "},"ï":{"ha":388,"x_min":25,"x_max":361,"o":"m 126 736 l 260 736 l 260 0 l 126 0 l 126 736 m 94 868 q 44 888 64 868 q 25 938 25 908 q 44 988 25 968 q 94 1008 64 1008 q 143 988 124 1008 q 163 938 163 968 q 143 888 163 907 q 94 868 124 868 m 292 868 q 243 888 263 868 q 224 938 224 908 q 243 988 224 968 q 292 1008 263 1008 q 342 988 322 1008 q 361 938 361 968 q 342 888 361 907 q 292 868 322 868 z "},"ḯ":{"ha":388,"x_min":-1,"x_max":413,"o":"m 126 736 l 260 736 l 260 0 l 126 0 l 126 736 m 68 867 q 19 886 39 867 q -1 936 -1 906 q 19 985 -1 965 q 68 1004 39 1004 q 116 985 96 1004 q 136 936 136 965 q 116 887 136 907 q 68 867 96 867 m 319 867 q 272 887 292 867 q 251 936 251 907 q 272 985 251 965 q 319 1004 292 1004 q 369 985 349 1004 q 389 936 389 965 q 369 887 389 907 q 319 867 349 867 m 261 1197 l 413 1197 l 207 1040 l 97 1040 l 261 1197 z "},"ị":{"ha":388,"x_min":103,"x_max":283,"o":"m 126 736 l 260 736 l 260 0 l 126 0 l 126 736 m 193 878 q 128 903 154 878 q 103 964 103 928 q 128 1026 103 1000 q 193 1051 154 1051 q 258 1027 232 1051 q 283 967 283 1003 q 258 903 283 929 q 193 878 232 878 m 193 -272 q 143 -253 164 -272 q 122 -203 122 -233 q 143 -151 122 -172 q 193 -131 164 -131 q 243 -151 222 -131 q 264 -203 264 -172 q 243 -253 264 -233 q 193 -272 222 -272 z "},"ì":{"ha":388,"x_min":-61,"x_max":297,"o":"m 126 736 l 260 736 l 260 0 l 126 0 l 126 736 m -61 1024 l 108 1024 l 297 843 l 172 843 l -61 1024 z "},"ỉ":{"ha":388,"x_min":65,"x_max":333,"o":"m 126 736 l 260 736 l 260 0 l 126 0 l 126 736 m 174 885 q 233 926 214 903 q 251 978 251 949 q 231 1024 251 1006 q 179 1043 211 1043 q 96 1017 136 1043 l 65 1079 q 124 1108 90 1099 q 192 1118 157 1118 q 294 1083 254 1118 q 333 989 333 1047 q 219 831 333 883 l 174 885 z "},"ȋ":{"ha":388,"x_min":3,"x_max":383,"o":"m 126 736 l 260 736 l 260 0 l 126 0 l 126 736 m 3 843 q 56 981 3 929 q 193 1032 110 1032 q 330 981 276 1032 q 383 843 383 929 l 297 843 q 269 924 297 894 q 193 954 242 954 q 117 924 144 954 q 89 843 89 894 l 3 843 z "},"ĳ":{"ha":782,"x_min":103,"x_max":678,"o":"m 126 736 l 260 736 l 260 0 l 126 0 l 126 736 m 193 878 q 128 903 154 878 q 103 964 103 928 q 128 1026 103 1000 q 193 1051 154 1051 q 258 1027 232 1051 q 283 967 283 1003 q 258 903 283 929 q 193 878 232 878 m 419 -278 q 329 -267 371 -278 q 260 -233 288 -256 l 303 -131 q 411 -165 344 -165 q 492 -133 464 -165 q 521 -36 521 -100 l 521 736 l 654 736 l 654 -33 q 593 -212 654 -147 q 419 -278 532 -278 m 588 878 q 523 903 549 878 q 497 964 497 928 q 523 1026 497 1000 q 588 1051 549 1051 q 652 1027 626 1051 q 678 967 678 1003 q 652 903 678 929 q 588 878 626 878 z "},"ī":{"ha":388,"x_min":8,"x_max":378,"o":"m 126 736 l 260 736 l 260 0 l 126 0 l 126 736 m 8 975 l 378 975 l 378 892 l 8 892 l 8 975 z "},"į":{"ha":388,"x_min":83,"x_max":310,"o":"m 126 736 l 260 736 l 260 0 l 126 0 l 126 736 m 193 878 q 128 903 154 878 q 103 964 103 928 q 128 1026 103 1000 q 193 1051 154 1051 q 258 1027 232 1051 q 283 967 283 1003 q 258 903 283 929 q 193 878 232 878 m 222 -311 q 122 -274 160 -311 q 83 -176 83 -237 q 211 43 83 -56 l 260 0 q 195 -84 213 -44 q 178 -161 178 -124 q 195 -214 178 -194 q 239 -233 213 -233 q 286 -217 263 -233 l 310 -283 q 222 -311 278 -311 z "},"ĩ":{"ha":388,"x_min":-6,"x_max":392,"o":"m 126 736 l 260 736 l 260 0 l 126 0 l 126 736 m 276 847 q 222 862 244 847 q 172 904 200 876 q 141 932 153 924 q 117 940 129 940 q 82 917 94 940 q 69 854 69 894 l -6 854 q 25 979 -6 935 q 110 1024 56 1024 q 164 1009 142 1024 q 214 967 186 994 q 244 940 232 949 q 269 931 257 931 q 304 953 292 931 q 317 1013 317 975 l 392 1013 q 361 891 392 935 q 276 847 331 847 z "},"j":{"ha":394,"x_min":-128,"x_max":290,"o":"m 32 -278 q -58 -267 -17 -278 q -128 -233 -100 -256 l -85 -131 q 24 -165 -43 -165 q 105 -133 76 -165 q 133 -36 133 -100 l 133 736 l 267 736 l 267 -33 q 206 -212 267 -147 q 32 -278 144 -278 m 200 878 q 135 903 161 878 q 110 964 110 928 q 135 1026 110 1000 q 200 1051 161 1051 q 265 1027 239 1051 q 290 967 290 1003 q 265 903 290 929 q 200 878 239 878 z "},"ȷ":{"ha":394,"x_min":-128,"x_max":267,"o":"m 32 -278 q -58 -267 -17 -278 q -128 -233 -100 -256 l -85 -131 q 24 -165 -43 -165 q 105 -133 76 -165 q 133 -36 133 -100 l 133 736 l 267 736 l 267 -33 q 206 -212 267 -147 q 32 -278 144 -278 z "},"ĵ":{"ha":394,"x_min":-128,"x_max":414,"o":"m 32 -278 q -58 -267 -17 -278 q -128 -233 -100 -256 l -85 -131 q 24 -165 -43 -165 q 105 -133 76 -165 q 133 -36 133 -100 l 133 736 l 267 736 l 267 -33 q 206 -212 267 -147 q 32 -278 144 -278 m 300 843 l 200 946 l 100 843 l -14 843 l 138 1024 l 263 1024 l 414 843 l 300 843 z "},"k":{"ha":856,"x_min":126,"x_max":853,"o":"m 413 343 l 260 201 l 260 0 l 126 0 l 126 1031 l 260 1031 l 260 369 l 661 736 l 822 736 l 513 432 l 853 0 l 689 0 l 413 343 z "},"ǩ":{"ha":856,"x_min":-56,"x_max":853,"o":"m 413 343 l 260 201 l 260 0 l 126 0 l 126 1031 l 260 1031 l 260 369 l 661 736 l 822 736 l 513 432 l 853 0 l 689 0 l 413 343 m 442 1318 l 257 1138 l 129 1138 l -56 1318 l 65 1318 l 193 1213 l 321 1318 l 442 1318 z "},"ķ":{"ha":856,"x_min":126,"x_max":853,"o":"m 413 343 l 260 201 l 260 0 l 126 0 l 126 1031 l 260 1031 l 260 369 l 661 736 l 822 736 l 513 432 l 853 0 l 689 0 l 413 343 m 435 -131 q 486 -149 467 -131 q 506 -194 506 -167 q 488 -265 506 -228 l 446 -365 l 376 -365 l 408 -254 q 376 -232 388 -247 q 364 -194 364 -217 q 383 -149 364 -167 q 435 -131 403 -131 z "},"ĸ":{"ha":842,"x_min":126,"x_max":853,"o":"m 413 343 l 260 201 l 260 0 l 126 0 l 126 736 l 260 736 l 260 369 l 661 736 l 822 736 l 513 432 l 853 0 l 689 0 l 413 343 z "},"l":{"ha":446,"x_min":126,"x_max":446,"o":"m 350 -8 q 185 51 243 -8 q 126 217 126 110 l 126 1031 l 260 1031 l 260 228 q 288 136 260 168 q 374 104 317 104 q 439 118 408 104 l 446 8 q 350 -8 400 -8 z "},"ĺ":{"ha":446,"x_min":89,"x_max":447,"o":"m 350 -8 q 185 51 243 -8 q 126 217 126 110 l 126 1031 l 260 1031 l 260 228 q 288 136 260 168 q 374 104 317 104 q 439 118 408 104 l 446 8 q 350 -8 400 -8 m 278 1318 l 447 1318 l 214 1138 l 89 1138 l 278 1318 z "},"ľ":{"ha":446,"x_min":126,"x_max":490,"o":"m 350 -8 q 185 51 243 -8 q 126 217 126 110 l 126 1031 l 260 1031 l 260 228 q 288 136 260 168 q 374 104 317 104 q 439 118 408 104 l 446 8 q 350 -8 400 -8 m 381 1076 l 490 1076 l 474 808 l 381 808 l 381 1076 z "},"ļ":{"ha":446,"x_min":126,"x_max":446,"o":"m 350 -8 q 185 51 243 -8 q 126 217 126 110 l 126 1031 l 260 1031 l 260 228 q 288 136 260 168 q 374 104 317 104 q 439 118 408 104 l 446 8 q 350 -8 400 -8 m 283 -131 q 335 -149 315 -131 q 354 -194 354 -167 q 336 -265 354 -228 l 294 -365 l 225 -365 l 257 -254 q 224 -232 236 -247 q 213 -194 213 -217 q 232 -149 213 -167 q 283 -131 251 -131 z "},"ŀ":{"ha":507,"x_min":126,"x_max":513,"o":"m 350 -8 q 185 51 243 -8 q 126 217 126 110 l 126 1031 l 260 1031 l 260 228 q 288 136 260 168 q 374 104 317 104 q 439 118 408 104 l 446 8 q 350 -8 400 -8 m 433 418 q 376 441 399 418 q 353 497 353 464 q 376 553 353 531 q 433 576 399 576 q 490 553 467 576 q 513 497 513 531 q 490 441 513 464 q 433 418 467 418 z "},"ḷ":{"ha":446,"x_min":126,"x_max":446,"o":"m 350 -8 q 185 51 243 -8 q 126 217 126 110 l 126 1031 l 260 1031 l 260 228 q 288 136 260 168 q 374 104 317 104 q 439 118 408 104 l 446 8 q 350 -8 400 -8 m 283 -272 q 233 -253 254 -272 q 213 -203 213 -233 q 233 -151 213 -172 q 283 -131 254 -131 q 333 -151 313 -131 q 354 -203 354 -172 q 333 -253 354 -233 q 283 -272 313 -272 z "},"ǉ":{"ha":785,"x_min":126,"x_max":708,"o":"m 350 -8 q 185 51 243 -8 q 126 217 126 110 l 126 1031 l 260 1031 l 260 228 q 288 136 260 168 q 374 104 317 104 q 439 118 408 104 l 446 8 q 350 -8 400 -8 m 450 -278 q 360 -267 401 -278 q 290 -233 318 -256 l 333 -131 q 442 -165 375 -165 q 523 -133 494 -165 q 551 -36 551 -100 l 551 736 l 685 736 l 685 -33 q 624 -212 685 -147 q 450 -278 563 -278 m 618 878 q 553 903 579 878 q 528 964 528 928 q 553 1026 528 1000 q 618 1051 579 1051 q 683 1027 657 1051 q 708 967 708 1003 q 683 903 708 929 q 618 878 657 878 z "},"ḻ":{"ha":446,"x_min":57,"x_max":510,"o":"m 350 -8 q 185 51 243 -8 q 126 217 126 110 l 126 1031 l 260 1031 l 260 228 q 288 136 260 168 q 374 104 317 104 q 439 118 408 104 l 446 8 q 350 -8 400 -8 m 57 -157 l 510 -157 l 510 -242 l 57 -242 l 57 -157 z "},"ł":{"ha":446,"x_min":-21,"x_max":446,"o":"m 350 -8 q 185 51 243 -8 q 126 217 126 110 l 126 1031 l 260 1031 l 260 228 q 288 136 260 168 q 374 104 317 104 q 439 118 408 104 l 446 8 q 350 -8 400 -8 m -21 397 l 347 678 l 407 597 l 39 318 l -21 397 z "},"m":{"ha":1468,"x_min":126,"x_max":1349,"o":"m 1047 743 q 1267 663 1186 743 q 1349 424 1349 582 l 1349 0 l 1215 0 l 1215 408 q 1166 569 1215 515 q 1025 624 1117 624 q 864 560 924 624 q 804 379 804 497 l 804 0 l 671 0 l 671 408 q 622 569 671 515 q 481 624 572 624 q 319 560 379 624 q 260 379 260 497 l 260 0 l 126 0 l 126 736 l 254 736 l 254 626 q 360 713 294 683 q 508 743 425 743 q 661 708 594 743 q 764 607 728 674 q 880 707 806 671 q 1047 743 954 743 z "},"ṃ":{"ha":1468,"x_min":126,"x_max":1349,"o":"m 1047 743 q 1267 663 1186 743 q 1349 424 1349 582 l 1349 0 l 1215 0 l 1215 408 q 1166 569 1215 515 q 1025 624 1117 624 q 864 560 924 624 q 804 379 804 497 l 804 0 l 671 0 l 671 408 q 622 569 671 515 q 481 624 572 624 q 319 560 379 624 q 260 379 260 497 l 260 0 l 126 0 l 126 736 l 254 736 l 254 626 q 360 713 294 683 q 508 743 425 743 q 661 708 594 743 q 764 607 728 674 q 880 707 806 671 q 1047 743 954 743 m 736 -272 q 686 -253 707 -272 q 665 -203 665 -233 q 686 -151 665 -172 q 736 -131 707 -131 q 786 -151 765 -131 q 807 -203 807 -172 q 786 -253 807 -233 q 736 -272 765 -272 z "},"n":{"ha":946,"x_min":126,"x_max":825,"o":"m 519 743 q 742 662 660 743 q 825 424 825 581 l 825 0 l 692 0 l 692 408 q 640 569 692 515 q 493 624 589 624 q 322 560 385 624 q 260 379 260 497 l 260 0 l 126 0 l 126 736 l 254 736 l 254 625 q 363 713 294 682 q 519 743 432 743 z "},"ń":{"ha":946,"x_min":126,"x_max":825,"o":"m 519 743 q 742 662 660 743 q 825 424 825 581 l 825 0 l 692 0 l 692 408 q 640 569 692 515 q 493 624 589 624 q 322 560 385 624 q 260 379 260 497 l 260 0 l 126 0 l 126 736 l 254 736 l 254 625 q 363 713 294 682 q 519 743 432 743 m 561 1024 l 731 1024 l 497 843 l 372 843 l 561 1024 z "},"ŉ":{"ha":1069,"x_min":74,"x_max":950,"o":"m 78 972 l 169 972 l 147 610 l 74 610 l 78 972 m 644 743 q 867 662 785 743 q 950 424 950 581 l 950 0 l 817 0 l 817 408 q 765 569 817 515 q 618 624 714 624 q 447 560 510 624 q 385 379 385 497 l 385 0 l 251 0 l 251 736 l 379 736 l 379 625 q 488 713 419 682 q 644 743 557 743 z "},"ň":{"ha":946,"x_min":126,"x_max":825,"o":"m 519 743 q 742 662 660 743 q 825 424 825 581 l 825 0 l 692 0 l 692 408 q 640 569 692 515 q 493 624 589 624 q 322 560 385 624 q 260 379 260 497 l 260 0 l 126 0 l 126 736 l 254 736 l 254 625 q 363 713 294 682 q 519 743 432 743 m 725 1024 l 540 843 l 413 843 l 228 1024 l 349 1024 l 476 918 l 604 1024 l 725 1024 z "},"ņ":{"ha":946,"x_min":126,"x_max":825,"o":"m 519 743 q 742 662 660 743 q 825 424 825 581 l 825 0 l 692 0 l 692 408 q 640 569 692 515 q 493 624 589 624 q 322 560 385 624 q 260 379 260 497 l 260 0 l 126 0 l 126 736 l 254 736 l 254 625 q 363 713 294 682 q 519 743 432 743 m 476 -131 q 528 -149 508 -131 q 547 -194 547 -167 q 529 -265 547 -228 l 488 -365 l 418 -365 l 450 -254 q 417 -232 429 -247 q 406 -194 406 -217 q 425 -149 406 -167 q 476 -131 444 -131 z "},"ṅ":{"ha":946,"x_min":126,"x_max":825,"o":"m 519 743 q 742 662 660 743 q 825 424 825 581 l 825 0 l 692 0 l 692 408 q 640 569 692 515 q 493 624 589 624 q 322 560 385 624 q 260 379 260 497 l 260 0 l 126 0 l 126 736 l 254 736 l 254 625 q 363 713 294 682 q 519 743 432 743 m 476 868 q 418 892 442 868 q 394 950 394 915 q 418 1008 394 985 q 476 1032 442 1032 q 535 1008 511 1032 q 558 950 558 985 q 535 892 558 915 q 476 868 511 868 z "},"ṇ":{"ha":946,"x_min":126,"x_max":825,"o":"m 519 743 q 742 662 660 743 q 825 424 825 581 l 825 0 l 692 0 l 692 408 q 640 569 692 515 q 493 624 589 624 q 322 560 385 624 q 260 379 260 497 l 260 0 l 126 0 l 126 736 l 254 736 l 254 625 q 363 713 294 682 q 519 743 432 743 m 476 -272 q 426 -253 447 -272 q 406 -203 406 -233 q 426 -151 406 -172 q 476 -131 447 -131 q 526 -151 506 -131 q 547 -203 547 -172 q 526 -253 547 -233 q 476 -272 506 -272 z "},"ŋ":{"ha":946,"x_min":126,"x_max":825,"o":"m 519 743 q 742 662 660 743 q 825 424 825 581 l 825 -33 q 764 -212 825 -147 q 590 -278 703 -278 q 501 -267 543 -278 q 431 -233 458 -256 l 474 -131 q 582 -165 517 -165 q 663 -133 635 -165 q 692 -36 692 -100 l 692 408 q 640 569 692 515 q 493 624 589 624 q 322 560 385 624 q 260 379 260 497 l 260 0 l 126 0 l 126 736 l 254 736 l 254 625 q 363 713 294 682 q 519 743 432 743 z "},"ǌ":{"ha":1340,"x_min":126,"x_max":1236,"o":"m 519 743 q 742 662 660 743 q 825 424 825 581 l 825 0 l 692 0 l 692 408 q 640 569 692 515 q 493 624 589 624 q 322 560 385 624 q 260 379 260 497 l 260 0 l 126 0 l 126 736 l 254 736 l 254 625 q 363 713 294 682 q 519 743 432 743 m 978 -278 q 888 -267 929 -278 q 818 -233 846 -256 l 861 -131 q 969 -165 903 -165 q 1051 -133 1022 -165 q 1079 -36 1079 -100 l 1079 736 l 1213 736 l 1213 -33 q 1151 -212 1213 -147 q 978 -278 1090 -278 m 1146 878 q 1081 903 1107 878 q 1056 964 1056 928 q 1081 1026 1056 1000 q 1146 1051 1107 1051 q 1210 1027 1185 1051 q 1236 967 1236 1003 q 1210 903 1236 929 q 1146 878 1185 878 z "},"ṉ":{"ha":946,"x_min":126,"x_max":825,"o":"m 519 743 q 742 662 660 743 q 825 424 825 581 l 825 0 l 692 0 l 692 408 q 640 569 692 515 q 493 624 589 624 q 322 560 385 624 q 260 379 260 497 l 260 0 l 126 0 l 126 736 l 254 736 l 254 625 q 363 713 294 682 q 519 743 432 743 m 250 -157 l 703 -157 l 703 -242 l 250 -242 l 250 -157 z "},"ñ":{"ha":946,"x_min":126,"x_max":825,"o":"m 519 743 q 742 662 660 743 q 825 424 825 581 l 825 0 l 692 0 l 692 408 q 640 569 692 515 q 493 624 589 624 q 322 560 385 624 q 260 379 260 497 l 260 0 l 126 0 l 126 736 l 254 736 l 254 625 q 363 713 294 682 q 519 743 432 743 m 574 847 q 516 861 540 847 q 456 903 492 875 q 419 931 435 922 q 389 940 404 940 q 339 917 358 940 q 318 854 319 894 l 243 854 q 283 978 246 932 q 379 1024 319 1024 q 438 1009 413 1024 q 497 967 464 994 q 535 938 521 947 q 564 929 549 929 q 614 951 594 929 q 635 1013 633 974 l 710 1013 q 670 892 707 938 q 574 847 633 847 z "},"o":{"ha":882,"x_min":58,"x_max":824,"o":"m 442 -8 q 244 40 332 -8 q 108 174 157 89 q 58 368 58 260 q 108 562 58 476 q 244 695 157 647 q 442 743 332 743 q 638 695 551 743 q 774 562 725 647 q 824 368 824 476 q 774 174 824 260 q 638 40 725 89 q 442 -8 551 -8 m 442 108 q 569 141 513 108 q 657 233 625 174 q 689 368 689 292 q 657 503 689 444 q 569 594 625 563 q 442 626 513 626 q 315 594 371 626 q 226 503 258 563 q 193 368 193 444 q 226 233 193 292 q 315 141 258 174 q 442 108 371 108 z "},"ó":{"ha":882,"x_min":58,"x_max":824,"o":"m 442 -8 q 244 40 332 -8 q 108 174 157 89 q 58 368 58 260 q 108 562 58 476 q 244 695 157 647 q 442 743 332 743 q 638 695 551 743 q 774 562 725 647 q 824 368 824 476 q 774 174 824 260 q 638 40 725 89 q 442 -8 551 -8 m 442 108 q 569 141 513 108 q 657 233 625 174 q 689 368 689 292 q 657 503 689 444 q 569 594 625 563 q 442 626 513 626 q 315 594 371 626 q 226 503 258 563 q 193 368 193 444 q 226 233 193 292 q 315 141 258 174 q 442 108 371 108 m 525 1024 l 694 1024 l 461 843 l 336 843 l 525 1024 z "},"ŏ":{"ha":882,"x_min":58,"x_max":824,"o":"m 442 -8 q 244 40 332 -8 q 108 174 157 89 q 58 368 58 260 q 108 562 58 476 q 244 695 157 647 q 442 743 332 743 q 638 695 551 743 q 774 562 725 647 q 824 368 824 476 q 774 174 824 260 q 638 40 725 89 q 442 -8 551 -8 m 442 108 q 569 141 513 108 q 657 233 625 174 q 689 368 689 292 q 657 503 689 444 q 569 594 625 563 q 442 626 513 626 q 315 594 371 626 q 226 503 258 563 q 193 368 193 444 q 226 233 193 292 q 315 141 258 174 q 442 108 371 108 m 440 835 q 281 886 344 835 q 215 1024 218 938 l 306 1024 q 345 943 307 974 q 440 913 383 913 q 535 943 497 913 q 575 1024 574 974 l 665 1024 q 599 886 663 938 q 440 835 536 835 z "},"ô":{"ha":882,"x_min":58,"x_max":824,"o":"m 442 -8 q 244 40 332 -8 q 108 174 157 89 q 58 368 58 260 q 108 562 58 476 q 244 695 157 647 q 442 743 332 743 q 638 695 551 743 q 774 562 725 647 q 824 368 824 476 q 774 174 824 260 q 638 40 725 89 q 442 -8 551 -8 m 442 108 q 569 141 513 108 q 657 233 625 174 q 689 368 689 292 q 657 503 689 444 q 569 594 625 563 q 442 626 513 626 q 315 594 371 626 q 226 503 258 563 q 193 368 193 444 q 226 233 193 292 q 315 141 258 174 q 442 108 371 108 m 568 843 l 440 950 l 313 843 l 192 843 l 376 1024 l 504 1024 l 689 843 l 568 843 z "},"ố":{"ha":882,"x_min":58,"x_max":893,"o":"m 442 -8 q 244 40 332 -8 q 108 174 157 89 q 58 368 58 260 q 108 562 58 476 q 244 695 157 647 q 442 743 332 743 q 638 695 551 743 q 774 562 725 647 q 824 368 824 476 q 774 174 824 260 q 638 40 725 89 q 442 -8 551 -8 m 442 108 q 569 141 513 108 q 657 233 625 174 q 689 368 689 292 q 657 503 689 444 q 569 594 625 563 q 442 626 513 626 q 315 594 371 626 q 226 503 258 563 q 193 368 193 444 q 226 233 193 292 q 315 141 258 174 q 442 108 371 108 m 567 843 l 440 921 l 314 843 l 192 843 l 378 982 l 503 982 l 689 843 l 567 843 m 742 1122 l 893 1122 l 688 965 l 578 965 l 742 1122 z "},"ộ":{"ha":882,"x_min":58,"x_max":824,"o":"m 442 -8 q 244 40 332 -8 q 108 174 157 89 q 58 368 58 260 q 108 562 58 476 q 244 695 157 647 q 442 743 332 743 q 638 695 551 743 q 774 562 725 647 q 824 368 824 476 q 774 174 824 260 q 638 40 725 89 q 442 -8 551 -8 m 442 108 q 569 141 513 108 q 657 233 625 174 q 689 368 689 292 q 657 503 689 444 q 569 594 625 563 q 442 626 513 626 q 315 594 371 626 q 226 503 258 563 q 193 368 193 444 q 226 233 193 292 q 315 141 258 174 q 442 108 371 108 m 440 -272 q 390 -253 411 -272 q 369 -203 369 -233 q 390 -151 369 -172 q 440 -131 411 -131 q 490 -151 469 -131 q 511 -203 511 -172 q 490 -253 511 -233 q 440 -272 469 -272 m 568 843 l 440 950 l 313 843 l 192 843 l 376 1024 l 504 1024 l 689 843 l 568 843 z "},"ồ":{"ha":882,"x_min":58,"x_max":824,"o":"m 442 -8 q 244 40 332 -8 q 108 174 157 89 q 58 368 58 260 q 108 562 58 476 q 244 695 157 647 q 442 743 332 743 q 638 695 551 743 q 774 562 725 647 q 824 368 824 476 q 774 174 824 260 q 638 40 725 89 q 442 -8 551 -8 m 442 108 q 569 141 513 108 q 657 233 625 174 q 689 368 689 292 q 657 503 689 444 q 569 594 625 563 q 442 626 513 626 q 315 594 371 626 q 226 503 258 563 q 193 368 193 444 q 226 233 193 292 q 315 141 258 174 q 442 108 371 108 m 567 843 l 440 921 l 314 843 l 192 843 l 378 982 l 503 982 l 689 843 l 567 843 m 456 1122 l 607 1122 l 769 965 l 661 965 l 456 1122 z "}}}
